<?xml version="1.0" encoding="UTF-8"?>
<svg xmlns="http://www.w3.org/2000/svg" xmlns:xlink="http://www.w3.org/1999/xlink" width="150pt" height="32.999998pt" viewBox="0 0 150 32.999998" version="1.2">
<defs>
<clipPath id="clip1">
  <path d="M 1.4375 0.621094 L 149.9375 0.621094 L 149.9375 32.121094 L 1.4375 32.121094 Z M 1.4375 0.621094 "/>
</clipPath>
</defs>
<g id="surface1">
<g clip-path="url(#clip1)" clip-rule="nonzero">
<path style=" stroke:none;fill-rule:nonzero;fill:#29b0fa;fill-opacity:1;" d="M 123.570312 6.230469 C 125.773438 6.121094 127.964844 5.953125 130.164062 5.820312 C 134.574219 5.582031 138.9375 5.183594 143.320312 4.847656 C 143.105469 5.960938 142.902344 7.121094 143.539062 8.078125 C 143.539062 8.078125 144.21875 7.992188 145.054688 7.832031 C 145.898438 7.679688 146.90625 7.5 147.582031 7.378906 C 153.277344 9.023438 152.492188 12.894531 149.992188 16.007812 C 149.34375 16.667969 148.609375 17.410156 147.773438 18.167969 C 147.070312 18.183594 146.367188 18.199219 145.671875 18.210938 C 142.503906 18.296875 139.382812 18.449219 136.234375 18.710938 C 133.105469 18.902344 129.964844 19.152344 126.78125 19.433594 C 120.425781 19.921875 118.542969 20.476562 111.671875 20.5625 C 102.035156 20.410156 121.246094 19.820312 111.671875 20.5625 C 123.039062 20.167969 104.5625 21.371094 116.125 20.746094 C 119.019531 20.601562 117.269531 20.457031 120.148438 20.316406 C 123.03125 20.210938 125.898438 20.109375 128.75 20.003906 C 131.613281 19.902344 134.449219 19.890625 137.292969 19.847656 C 140.140625 19.78125 142.957031 19.800781 145.785156 19.828125 C 143.652344 21.414062 141.070312 22.757812 137.941406 23.207031 C 130.476562 23.691406 123.113281 24.167969 115.8125 24.640625 C 115.78125 24.113281 110.105469 25.078125 105.089844 25.398438 C 100.078125 25.679688 95.140625 24.703125 90.167969 24.820312 C 80.21875 25.078125 60.414062 28.132812 60.277344 28.484375 C 60.226562 28.488281 60.175781 28.492188 60.128906 28.496094 C 60.175781 28.492188 60.226562 28.488281 60.277344 28.484375 C 60.152344 28.792969 60.246094 29.015625 61.523438 28.929688 C 60.246094 29.015625 60.152344 28.792969 60.277344 28.484375 C 80.449219 26.558594 94.699219 25.644531 114.984375 24.703125 C 99.253906 25.746094 88.515625 26.972656 73.042969 28.246094 C 57.574219 29.507812 42.015625 30.789062 25.96875 31.761719 C 24.605469 31.84375 21.867188 32.011719 20.5 32.09375 C 14.96875 30.835938 9.472656 30.625 4.015625 30.933594 C 5.285156 28.222656 -0.371094 23.261719 10.601562 23.691406 C 10.582031 23.164062 10.546875 22.109375 10.527344 21.582031 C 5.003906 20.582031 1.199219 18.28125 -0.0117188 15.917969 C -0.566406 14.742188 -0.5 13.515625 0.503906 12.429688 C 1.542969 11.332031 3.277344 10.378906 5.996094 9.695312 C 18.199219 6.886719 34.640625 8.015625 49.589844 5.960938 C 60.476562 4.710938 71.347656 3.414062 82.277344 3.628906 C 97.328125 4.058594 108.976562 2.160156 123.984375 2.632812 C 126.703125 2.589844 130.390625 1.875 133.75 1.347656 C 137.09375 0.78125 140.078125 0.328125 141.492188 0.933594 C 143.484375 1.417969 143.675781 2.519531 143.5 3.804688 C 139.070312 4.332031 134.667969 4.9375 130.222656 5.355469 C 128.007812 5.578125 125.800781 5.828125 123.585938 6.019531 C 121.375 6.199219 119.164062 6.378906 116.960938 6.558594 "/>
</g>
</g>
</svg>
