<svg xmlns="http://www.w3.org/2000/svg" xmlns:xlink="http://www.w3.org/1999/xlink" version="1.2" viewBox="0 0 120 48"><defs><symbol id="m" overflow="visible"><path d="M1.438-9.813l.109.126v.109l.125-.11h.594c.156 0 .226.2.218.594h.125c.008-.238.094-.36.25-.36.157 0 .227.122.22.36l.843-.125 1.281.235.469-.11c.601 0 1.07.32 1.406.953l-.125.829.11.125v.109l-.266.719h-.11v-.235h-.125C5.946-5.102 5.082-4.07 3.97-3.5l-1.938.828L1.97-.64l.093.594c-.156 0-.37.395-.64 1.188l-.11.125h-.125L.25.78l.156-.953L.062-.64.36-2.312l-.125-.126.438-2.25-.125-.125.125-.125h.25l-.016.485h.11l.03-.594-.109-.36h.235L1.188-6l-.235-.234v.468H.828c.02-.5-.203-.894-.672-1.187l-.093-.719.015-.469c1.04-.425 1.563-.707 1.563-.843l.015-.11-.234-.25-.125.125-.11-.469.125-.124zm1.03 4.641h.235c1.031-.426 1.93-1.14 2.703-2.14h-.36c-1.593.105-2.398.343-2.405.718zM5.5-6.828c-.25.45-1.266 1.121-3.047 2.016l-.11.125v.109h.235c1.164-.352 2.18-1.102 3.047-2.25zm-4.828 2.5l-.016.11.11.124-.11.11-.015.25h.234l.031-.594zm0 0"/></symbol><symbol id="n" overflow="visible"><path d="M4.734-9.875c.051.242.368.36.954.36l.953 4.171h.843v.11l-.718.125V-5c.238 0 .359.086.359.25h.953v.11c0 .18-.398.34-1.187.484l.234.703-.125.36.125.718L7-2.25h.125L7-2.14l.125 1.437V0L7-.11h-.11l.344 1.782H7c0-.242-.078-.36-.234-.36v.125l.125.36h-.125l-.125-.125h-.11c0 .238-.078.36-.234.36L5.687 0h-.109v.484h-.125L5.22-.953l.36.25v-.125c-.063-.707-.184-1.063-.36-1.063l.125-.125v-.359h-.25v.36h-.11V-2.5l.11-.11h-.11l-.125.11v-.469h.125l.11.125h.125l-.125-.125v-.719l-2.61.594v.25l.829-.25.468.125.61-.125v.25c-1.668.293-2.5.688-2.5 1.188C1.67-.781 1.43-.226 1.17 0v.25H.813L.688.125H.579V.25L.218 0l.235-.703h-.11c-.241 0-.359.32-.359.953L-.266 0l.125-.703-.359-.36 2.031-4.89h.11c0 .242.082.36.25.36L2-6.189l-.11.125h-.124v-.484l.125-.594.109.125h.125L2-7.14v-.109l.234-.484h.125l.125.125h.11v-.125c0-.157-.121-.235-.36-.235l.61-1.672h.469l-.126.125v.11c.551-.313 1.067-.469 1.547-.469zm-.703 2.734l-.953 2.5h.235c.789 0 1.226-.234 1.312-.703L4.141-7.14zm-1.078.72l-.234.827-.125-.11h-.11l.11.47h.125l.36-1.063v-.125zM1.641-5.345l-.11.11V-5h.11l.125-.344zm.718.469l-.125.484h.125l.125-.125v-.359zm-1.078.125l-.11.469h.11l.25-.469zm2.032.36v.109h.234c.719-.07 1.078-.192 1.078-.36H4.5zm1.671 2.609h.235v.718h-.125zm1.657.828v.25l.125.469h.125V-.47l-.125-.484zm-1.188.36v.25l.36-.126v-.234zm0 0"/></symbol><symbol id="o" overflow="visible"><path d="M2.422-9.266l.828.704c0-.239.082-.36.25-.36h.11L5.28-4.625v.234h-.125l-.234-.718h-.125v.234l.844 2.031h.109c.32-2.062.781-4.219 1.375-6.469l.36.25.359-.124.718.359v.11c-.242 0-.359.163-.359.484h.125l.11.109h.124l.11-.594h.25v.125l-.125.125.125.11v.125c-.606 1.836-1.14 4.464-1.61 7.89h-.25l.25-1.906c-.167 0-.406.758-.718 2.266C6.3.254 6.02.375 5.75.375v.234h-.11c0-.156-.163-.234-.484-.234v-.844c0-.351-.793-2.336-2.375-5.953h-.125c-.312 1.418-.59 3.324-.828 5.719l-.125-.11C1.234-.675 1-.476 1-.219H.75c-.156-.3-.234-.816-.234-1.547h-.11v1.063h-.25l-.11-.594c0-2.156.474-4.773 1.423-7.86zM.75-6.296v.124l.125.11-.125.125v.234h.125L1-6.172l-.125-.125zm4.531 1.905c.207 0 .364.32.469.954v.124h-.11zm0 0"/></symbol><symbol id="p" overflow="visible"><path d="M7.266-9.547l.359.125v.235h-.36l.25.359c-.18.398-.812.594-1.906.594l-.843.109-.11.36h.11c-.243.574-.715 3.117-1.422 7.624l.36 1.547h-.126c-.18 0-.336-.398-.469-1.187L3.22-.97v-.125h-.11v.235c-.242 0-.359.086-.359.25V-.5l.234 1.906v.125H2.75l-.484-.36-.11.11h-.125C1.72.601 1.562.008 1.562-.5l.11.125h.125l-.234-.844.343-.11v-.593h-.234v-.125c.238 0 .36-.078.36-.234v-.125h-.235c0-.633.117-.953.36-.953v-1.547c.124-.114.28-.946.468-2.5l-.828.125-1.672-.125v-.11l.594-.125v.125l.125-.125h1.781V-8l-1.906.234-.11-.109H.484l-.718.11L-.594-8l.125-.594-.125-.125c0-.394.48-.594 1.438-.594zm-.704.36v.124h.47v-.124zM2.157-2.516l-.25 2.61h.25L2.031-.5v-.234l.235-.36h-.11l.11-.125v-.11l-.11-.124v-.11l.235-.484-.125-.469zm0 0"/></symbol><symbol id="q" overflow="visible"><path d="M1.563-9.406h.125v.36h.125v-.235h.468c.156 0 .235.242.235.719l.359.109c0-.227.078-.344.234-.344l.125.11v.124l-.593 3.22 1.78-.126H5.61l.125-.593-.125-.125h.25l-.125-.829v-.125h.235l-.11-.109v-.25h.235v-.234h-.235v-.11h.235l-.125-.125v-.828l.125.11h.125v-.47l-.125-.124v-.125h.36l-.595 4.062c.157 0 .391-1.312.704-3.937l.484-.125c.082.636.203.953.36.953h.109c0-.227.082-.344.25-.344h.109c-.398 2.742-.992 5.953-1.781 9.64h-.125L5.859.72l.11-.11v-.953h-.11L5.5.844h-.36c-.156 0-.234-.242-.234-.719h-.125v.484h-.11c-.167 0-.25-.12-.25-.359 0-.57.24-1.922.72-4.047h-.125l-1.547.11-1.063-.11C2.164-1.898 1.926-.633 1.687 0h-.359c-.156 0-.234-.316-.234-.953H.969l-.11.844-.25-.235v-.36l.125-.124v-.125l-.125-.11H.5l-.125.11h-.11l-.124-.469C.453-4.098.812-6.039 1.219-7.25h.11l-.11-.125v-.36l.343-1.312h-.109zm.125.484v.828h.125v-.828zm-.125.953l-.11.953v.235h.11l.125-.953v-.235zm-.235 1.313v.468h.125v-.468zm-.11.593l-.124.594v.125h.125l.11-.484v-.234zm-.25 1.188v.484h.126v-.484zM5.5-3.687l-.125.718v.125H5.5l.11-.61v-.233zm-.234.953v.484h.109v-.484zm.828 1.312l-.125.594v.36h.125l.125-.829v-.125zM.266-.828h.109v.594h-.11zm0 0"/></symbol><symbol id="r" overflow="visible"><path d="M6.594-9.328l.578.39c-.18.711-.484 1.047-.922 1.016l-3.11.14-.015.25.594.032.719-.063.109.125.125.016.844-.078.234.031v.11l-2.766.296-.218 1.532.109.015 3.234-.265.11.125v.125l-.25-.016v.11l.828.187-.016.11c-.168.449-1.304.808-3.406 1.077l-1.203.047.11.125-.579 1.516h-.11l.063-1.078h-.11l-.234 1.64c2.375-.312 4.051-.437 5.032-.375l.578.157v.25l-.234-.016.093.125-.015.36c-.23.292-.715.417-1.454.375l-.015.125.953.062-.016.234L.688.297.578.28C.191.195 0 .078 0-.079v-.03l.016-.36.328-1.281-.11-.125H.47l-.031.594.109.015c.05-.394.144-.582.281-.562l-.11-.14.095-1.188-.25-.016-.157.594.14-.125.11.015-.047.72-.125-.016.032-.36H.39l-.016.235h-.11v-.25l.391-2-.125-.016.281-.563-.125-.14.016-.11.25-2.015.125.125.11.016.015-.25-.078-.594.188-1.063.03-.36.11.017.11.124.125-.109.125.016.109.11.125-.11.36.031zM.625-4.125l-.047.828.11.016.062-.828zm3.938.156h.109v.11L2.5-3.641l-.11-.125.016-.109 1.078-.047-.015.11zm0 0"/></symbol><symbol id="s" overflow="visible"><path d="M2.531-9.39h1.422c1.664.312 2.5 1.027 2.5 2.14v.719L5.266-4.875h.125l1.187-1.063v.235c-.406.906-.922 1.5-1.547 1.781l-.718.25v.469c.175 0 1.007 1.031 2.5 3.094.32.132.64.453.953.953v.125L7.172.484V.61c.394.414.594.735.594.954H7.64l-.594.359h-.11l-.234-.36-.125.125h-.125C4.867.383 3.758-.925 3.125-2.25l-.594-1.188c-.281 0-.445.477-.484 1.422.05.805.015 1.29-.11 1.454-.242.199-.28.39-.125.578V.25h-.359c-.156 0-.234-.156-.234-.469h-.125c0 .313-.149.43-.438.36L.125-.563l.14-1.093v-.469l.72-3.344h.109v.485h.125l.593-2.5c-.156 0-.234.156-.234.468h-.125v-.234H.75v-.125c0-.156.234-.27.703-.344v-.125H1.22L.5-7.609H.39c0-.157.157-.235.47-.235v-.125c-.313 0-.47-.117-.47-.36zm.11 4.28h.125c1.25-.593 2.125-1.226 2.625-1.906v-.234c0-.27-.48-.547-1.438-.828l-.703.234zm2.39-2.968c.157.355.313.555.469.594v-.235zm.719.703l-.125.61h.125l.11-.126v-.484zm-4.406.36h.11v.359l-.11.484h-.125v-.36zm4.047.484l-.594.828h.11l.593-.719v-.11zm1.187.234h.234l-.109.36h-.125zm-5.484.36h.125v.468h-.125zM.859-4.391v.47h.125v-.47zM4.438-.812v.109l.468.484c-.156-.363-.312-.562-.468-.594zm.593.828V.14L5.5.484V.375zm0 0"/></symbol><symbol id="t" overflow="visible"><path d="M3.828-9.5c.207.156.875.234 2 .234l-.016.125h-.828v.11c.989 0 1.61.242 1.86.719l-.016.234h-.594l-.015.125.828.11v.124h-.719v.125c.238 0 .352.078.344.235-1.418 0-2.684.515-3.797 1.546v.125c1.531.407 2.742 1.32 3.64 2.735v.11C6.224-1.814 5.41-.86 4.079.015L3.36.14l-.015.125h.25c-.012.207-.742.441-2.188.703l.016-.235h.594L2.03.61C1.52.61 1.055.332.641-.219.285-.395.109-.742.109-1.266a.67.67 0 01.016-.14l.36-.235.343.235h.25c2.238-.352 3.39-1.067 3.453-2.14-.937-.477-1.558-.72-1.86-.72v.125L1.5-4.625l.11.125v.234C.616-4.992.132-5.55.155-5.937l.922-1.657.625-.484-.016.234zM2.203-6.297l-.015.125 2.109-1.312.969-.235.015-.234h-.25c-1.25.469-2.195 1.023-2.828 1.656zm.656 4.89h.125l.25-.234H3.11zm2.141 0l-.516.595h.125l.516-.594zm-1.484.954v.11h.109l.5-.344zm-1.36.828V.5h.469l.61-.125v-.11h-.126zm0 0"/></symbol><symbol id="u" overflow="visible"><path d="M2.703-9.281c-.023.23.125.344.438.344l.218.484-.125.125h.125c-.574 1.68-.921 3.621-1.046 5.828l-.047.719.125.11-.016.124-.125.125h.125l-.125.11.063.843-.016.235C1.879.273 1.66.672 1.64.953h-.485L.594.72.75-.125.297-.594l.219-1.781.125-2.156.25-.344.03-.484-.109-.125v-.11h.25v-.125l-.109-.11.485-2.265h-.125l.125-.125.046-.719-.125-.109.016-.125zm-1.328 2.14l-.031.829h.11l.046-.829zm-.172 1.188l-.047.719h.125l.032-.72zm-.187 1.078l-.032.703h.11l.047-.703zM1-.125L.953.469l.25-.235.031-.359zm0 0"/></symbol><symbol id="v" overflow="visible"><path d="M5.078-9.14l.11.124h.109l.016-.125c1.312.344 1.937.825 1.875 1.438l.156.719h-.235c.032-.32-.039-.485-.203-.485h-.11l.063.594-.03.125h-.235c-.157 0-.219-.117-.188-.36l-.14.126h-.11C5.75-7.304 5.363-7.47 5-7.47c-.793 0-1.715.836-2.766 2.5L1.86-3.656c-.117 1.054.32 1.808 1.313 2.265l-.031.235h-.235l-.015.125h.234c.563 0 1.39-.719 2.484-2.157l.016-.109h-.11c-.636.762-1.214 1.32-1.734 1.672h-.125l1.485-1.563h-.829c.008-.156-.101-.234-.328-.234l-.109-.11.016-.124c.007-.156.414-.274 1.218-.36l.032-.234L5-4.125h-.703l-.625-.844.125-.11.015-.124 1.297.125 3.141-.36v-.125c-.398 0-.586-.078-.563-.234h.125l.11.11.125-.11h.125c.844.242 1.254.438 1.234.594v.125l-.14.11-.016.124h.484l-.03.235h-.126l-1.922.234-.015.125h.125l1.078-.125-.031.25c-.793 0-1.227.313-1.297.938l-.563 1.906.11.125-.016.125-.188.593.032.954-.266.234.094.125c-.324.094-.5.29-.532.594h-.359c-.156 0-.2-.36-.125-1.078h-.11l-.093.828h-.36l.063-.594-.031-.828h-.234c-.45.312-.903.469-1.36.469h-.594L2.781.03v-.11h.235l.015-.124C1.383-.203.492-.758.36-1.875a8.428 8.428 0 01-.14-1.531c0-.32.015-.645.047-.969l.03-.234c.071-.602.36-1.395.86-2.375h.11l-.032.234-.437.828-.016.125h.125c.07-.726.844-1.64 2.313-2.734h.125l.015-.125h-.125l-.375.125c.239-.406.977-.61 2.22-.61zm-2.453.718h.11l-.922.844.015-.125zm1.75.235l-.016.124h.844v-.124zm-2.563.609l-.015.11-.531.484.015-.125zm5.266 1.89h.484l-.265.25zM3.547-1.625h.11l-.25.234H3.28zm.578 1.188l1.016-.485.015-.234h-.11zm-.875.359v.11h.594l.015-.11zm0 0"/></symbol><symbol id="w" overflow="visible"><path d="M2.195-.637l.27.637h.508L1.738-2.824H1.25L.004 0H.5l.27-.637zm-.183-.422H.949l.531-1.257zm0 0"/></symbol><symbol id="x" overflow="visible"><path d="M2.297-2.395v-.43H.035v.43h.89V0h.477v-2.395zm0 0"/></symbol><symbol id="y" overflow="visible"><path d="M.848-.43v-2.394H.37V0h1.7v-.43zm0 0"/></symbol><symbol id="z" overflow="visible"><path d="M2.82 0v-2.824h-.468v2.031L.84-2.824H.37V0h.477v-2.023L2.352 0zm0 0"/></symbol><clipPath id="a"><path d="M5 2h51v43H5zm0 0"/></clipPath><clipPath id="b"><path d="M14.95-3.8L63.87 18.18 49.117 51.016.195 29.039zm0 0"/></clipPath><clipPath id="c"><path d="M14.96-3.828l48.923 21.98-14.754 32.84L.207 29.012zm0 0"/></clipPath><clipPath id="d"><path d="M12 31h1v2h-1zm0 0"/></clipPath><clipPath id="e"><path d="M14.95-3.8L63.87 18.18 49.117 51.016.195 29.039zm0 0"/></clipPath><clipPath id="f"><path d="M14.96-3.828l48.923 21.98-14.754 32.84L.207 29.012zm0 0"/></clipPath><clipPath id="g"><path d="M7 29h6v3H7zm0 0"/></clipPath><clipPath id="h"><path d="M14.95-3.8L63.87 18.18 49.117 51.016.195 29.039zm0 0"/></clipPath><clipPath id="i"><path d="M14.96-3.828l48.923 21.98-14.754 32.84L.207 29.012zm0 0"/></clipPath><clipPath id="j"><path d="M8 29h2v2H8zm0 0"/></clipPath><clipPath id="k"><path d="M14.95-3.8L63.87 18.18 49.117 51.016.195 29.039zm0 0"/></clipPath><clipPath id="l"><path d="M14.96-3.828l48.923 21.98-14.754 32.84L.207 29.012zm0 0"/></clipPath></defs><g clip-path="url(#a)"><g clip-path="url(#b)"><g clip-path="url(#c)"><path fill="#f1dbfb" fill-rule="evenodd" d="M52.629 28.969c.059.308-.664.406-.399.886.137.067.235.036.313-.05.164.113-.129.453-.215.48-.047.195.426.195.41.38-1.11 1.241-2.605 1.456-4.25 1.28 1.371 1.785 5.102 3.176 6.696 4.457-.2.641-.168 1.032-.606 1.567-.152.191.098.23.133.347-.648.559-.973 1.028-1.54 1.922a6.715 6.715 0 01-3.773-.633c-.613-.296-1.039-.96-1.59-1.199-.285-.12-.527-.058-.886-.394-.164.086-.2.5-.484.648.19.594 1.015.95 1.246 1.528.254-.008.328-.051.343-.329.051.203.36.309.22.582-.075-.035-.017-.125-.009-.195-.222-.117-.14.57-.422.293.18.504.07.938.524 1.203-.117.332-.262.594-.485.653.235 1.484-1.292 1.648-2.203 2.101-1.539.207-2.746-.945-4.273-1.242a1.449 1.449 0 00-.277-.027c-1.477.199-3.332 1.433-4.97.086-.347.105.071.402-.218.484-.504-.332-.875-.317-1.102.086-.894-.746-1.374-.742-2.44-.809.03.145.144.258.214.387-.668-.266-1.324-.879-1.945-1.262-.153.192.093.23.132.352-.859-.164-1.804-.871-2.5-1.317-.12-.027-.16.168-.226.286-.524-.32-1.625-.801-1.992-1.38-.2-.019-.621-.156-.883-.398-1.496-1.379-3.633-2.906-5.488-3.914-.356-.195-.817-.172-.977-.633-1.766-.644-2.852-2.058-4.309-3.097-1.52-1.078-2.964-2.285-4.5-2.891.004.23.684.633.676 1.078-2.074-1.101-2.785-2.277-4.293-3.574.121-.176-.066-.238.102-.438-.52-.988-.547-1.918-1.305-2.906.137-.11.371.043.422-.293-.379-.52.113-.363-.426-.773.18-.168.371-.305.485-.653.285-.027.28.29.43-.093.183.062-.09.3-.098.437.355-.031.203-.035.48.215.32-.34-.129-.395-.219-.582.18-.277.02-.602.325-.723-.004-.25-.633-.57-.106-.629-.3-.308-.226-.757-.71-.996.273-.425.312-.418.558-.812.148.047.363.262.39-.016.348.11-.109.156-.097.438.441.18 1.535-.383 1.422.058.472-.175.535-.3 1.261-.011.04-.168-.28-.204-.097-.43.273.074.222.273.527.332.172-.508-.55-.68-.793-1.031.234-.262.328-.375.629-.106.375-.504-.133-.828-.461-.691.242-.238.531-.352.805-.508-.157-.273-.29-.555-.504-.809.828-.84.664-2.226 1.383-3.726.316.125 0 .078-.028.277 1.422.906 4.317 2.547 7.016 3.54-2.05-1.286-3.488-2.532-5.977-3.266.075-.352.594.004.457-.375-.02-.348-.793-.336-.894-.594.086-.246.277-.211.422-.297-.371-.676-1.059-1.574-1.496-1.832-.114-.453.355-.875.492-1.52.199.102-.008.36.058.512.254-.156.442-.473.727-.543.488.317 1.316.25 1.906.274-.535-.426-.887-.336-1.492-.766.125-.2.441.113.59-.023-.418-.286-.469-.711-1.024-.946-.129-.234.555.184.758.246-.441-.433-.707-.933-1.12-1.375.124-.257.394-.136.581-.222.2-.407-.195-.59-.156-.942.27-.324.535.032.875.203.281-.07-.246-.39-.219-.582.11-.18.246-.289.375-.414.59.383.934.114 1.52.493.265.054.004-.208.144-.325.887.586 2.274.746 2.832 1.66.239.153.313-.12.512-.062.215-.191-.383-.555.102-.438-.012-.234-.457-.156-.47.18.173-.91.735-1.223 1.227-1.867 1.504.332 3.11.93 4.633 1.309.082-.75.746-1.254 1.11-1.825C29.59 2.012 36.902 6.008 43.05 9.2c2.652 1.38 5.504 2.871 6.738 4.574-.348.457-.531.692-.98 1.11-1.985-.586-4.516-2.207-7.079-3.18 1.993 1.98 5.223 4.145 7.56 6.2.456.402.933.91 1.667 1.23-.012.34.043.652.39.855-.238.176-.562.496-.011.668-.27.977-.281 1.707-1.012 2.254-.02.824.324 1.606-.699 2.2.105 1.14 1.984 1.605 2.05 2.757.208.055.106.227.364.262-.082.433-.168.863.168 1.137.223-.11.258-.434.422-.297zm-11.707 1.316c.328-.144.355.54.598.172-.25-.086-.387-.445-.598-.172zm-2.238-1.683c-.043.332.691.714 1.05.668-.336-.184-.57-.758-1.05-.668zm-.77-.442c.316.035.469.695.723.324-.348-.027-.446-.488-.723-.324zm.523-5.469c.508.305 1.477 1.118 1.973.985-.707-.383-1.332-1.024-1.972-.985zm-10.535-.863c-.34-.101.22.434.18.465.012-.012-.34-.105-.277-.027.261.324.715.254 1.125.504.582.359 1.008 1.117 1.617.921.953.95 2.207 1.309 3.277 1.957 1.293.782 2.664 2.012 3.758 2.172-.613-.492-1.61-1.082-2.086-1.808.07.011.16.07.195-.008-.68-.496-1.714-1.215-2.425-1.477.03.254.714.258.73.52-.351.11-.547-.406-.84-.281.344.246.711.484.785.836-.402-.399-1.129-.68-.793-1.032-1.484-.566-3.175-2.129-4.273-2.113.172.14.813.441.535.531-.574-.36-1.219-.691-1.508-1.16zm10.739-.883c-3.758-2.422-8.926-5.011-12.899-6.566 3.711 1.934 8.09 3.809 11.434 6.39-.102-.027-.223-.113-.278-.027.844-.082 1.059.992 1.98 1.18.028-.297-.167-.563-.237-.977zm-8.278 7.887c.43.125.63.336.813.555.27-.43-.61-.887-.813-.555zm-2.386-.496c-.278.285.453.184.175.469-.054-.16-.312-.239-.527-.336.32-.121-.082-.125-.05-.313.124.043.28.164.355.067a21.134 21.134 0 01-1.051-.668c-.094.3.48.351.379.656-.582-.461-1.074-.902-1.856-1.027 1.395 1.05 3.055 2.191 4.543 3.007.094-.289-.187-.246.145-.324-.055-.043-.156-.07-.125-.152-.324-.215-.004.191-.23.09-.403-.7-1.165-.93-1.758-1.47zm.566-.613c.437.254.727.566 1.293.773-.36-.531-.43-.457-1.293-.773zm-.094-3.235c.145.133.836.657.883.399-.402-.051-.555-.54-.883-.399zm-1.984-1.18c.246.66 1.332.598 1.785 1.188.117-.465-.895-.504-.945-.906.71.285 1.312.613 1.894.945-1.988-1.582-4.941-3.25-7.226-3.922.09.035.187.13.043.117-3.094-1.687-5.426-3.117-8.578-3.277.523.172 1.527.926 2.296 1.129-.09-.055-.234-.086-.207-.187.286.097.637.722.485.214 1.508.286 1.722.918 2.687 1.114-.094-.055-.18-.11-.086-.235.114.578.871.45 1.176.82.29-.308-.543-.19-.254-.5 2.106 1.465 5.067 2.735 6.93 3.5zm-2.746-.558c1.07.938 2.828 1.555 4.156 2.156-1.262-.746-2.57-1.617-4.156-2.156zm-2.285 11.543c.316.367.66 1.082 1.418.93-.239-.356-.997-.868-1.418-.93zm5.828-12.754c-.121.535.066.148.453.492.129-.27-.192-.37-.453-.492zm-.914-.121c.101-.125.07.074.125.152.215-.105.472.184.68.207-.106-.07-.012-.215-.055-.312-.328-.098-.328-.32-.688-.406.012.25-.152.234-.062.359zm-4.293 3.098c.101.03.222.117.277.03-.77-.839-1.488-1.214-2.957-1.812-.691.536-1.988-.879-2.906-.629a10.988 10.988 0 013.468 1.75c-1.289-.648-2.398-.96-3.335-1.402.789 1.027 2.738 1.422 4.273 2.113 1.457.657 2.836 1.563 4.11 2.04-.973-.692-2.16-1.528-2.93-2.09zm-2.653 7.414c.13-.149.528.148.563.254-.047-.63-1.27-.809-1.75-1.27-.008.445.953.527.793 1.031-.336-.32-1.04-.836-1.442-.453.832.422 1.625 1.203 2.211.895.387.636.766.656 1.543 1.082.051-.102.153-.067.188-.203-.551-.86-1.38-.72-2.106-1.336zm-3.226.293c.836.414 1.41.687 1.949 1.261-.48-.066-.758-.68-1.082-.39 1.102.699 2.105 1.457 3.465 1.75-.938-.657-1.711-.98-2.32-1.719.328.203.882.305 1.359.418-1.152-.957-2.98-1.8-4.285-2.504-.055.262.164.426.183.66-.918-.855-1.949-1.699-3.32-2.07 1.254 1.039 1.867 1.52 3.766 2.367-.055.488.863.887 1.062.867-.488-.261-.648-.347-.777-.64zm9.199-11.434c.188.203.621.227.813.555.171-.457-.473-.551-.813-.555zm1.145.031c-.266-.062-.645-.414-.84-.28.289.175.558.62.84.28zm-.489-1.285c.45.027.383.25.653.488.117-.234-.422-.816-.653-.488zm-4.902 6.402c-.242-.152.226-.335.539-.34-.11.36 1.254.555.543.731.644.207.898.574 1.285.578-.129-.351-.762-.511-.863-.875.101.035.199.063.23-.086-1.25-.86-3.215-1.793-4.949-2.32.203.684 1.113.762 1.715 1.348-.43-.196-.875-.43-1.2-.344.884.84 1.618.906 2.7 1.308zm4.297-6.769c.07.008.16.066.195-.008-.637-.25-1.504-1.039-2.125-.86.293.071.527.27.211.384.625.02 1.215.777 1.887.753a.603.603 0 01-.168-.269zm-5.149-2.313c.36.247.961.391 1.325.497-.332-.297-.887-.665-1.325-.497zm-.773-.64c.195.062.55.61.64.289-.14-.086-.437-.445-.64-.29zM13.187 29.62c.043.336.528.594.688.406a1.94 1.94 0 00-.688-.406zm0 0"/></g></g></g><g clip-path="url(#d)"><g clip-path="url(#e)"><g clip-path="url(#f)"><path fill="#f1dbfb" fill-rule="evenodd" d="M12.91 32.398c.2.11-.816-.046-.57-.449.144.164.46.266.57.45zm0 0"/></g></g></g><g clip-path="url(#g)"><g clip-path="url(#h)"><g clip-path="url(#i)"><path fill="#f1dbfb" fill-rule="evenodd" d="M11.258 31.559c.172-.48.441.218 1 .351-.867.281-1.649-.75-2.54-1.234-.937-.512-1.968-.844-2.437-1.676.973.824 2.801 1.723 3.977 2.559zm0 0"/></g></g></g><g clip-path="url(#j)"><g clip-path="url(#k)"><g clip-path="url(#l)"><path fill="#f1dbfb" fill-rule="evenodd" d="M9.863 30.352c-.02.14-.629-.586-.898-.79.36-.023.664.547.898.79zm0 0"/></g></g></g><use x="53.027" y="18.061" fill="#232323" xlink:href="#m"/><use x="60.136" y="18.061" fill="#ff66c4" xlink:href="#n"/><use x="68.534" y="18.061" fill="#232323" xlink:href="#o"/><use x="77.517" y="18.061" fill="#232323" xlink:href="#p"/><use x="83.952" y="18.061" fill="#5ce1e6" xlink:href="#q"/><use x="91.817" y="18.061" fill="#232323" xlink:href="#r"/><use x="99.014" y="18.061" fill="#232323" xlink:href="#s"/><use x="106.128" y="18.061" fill="#232323" xlink:href="#t"/><use x="55.405" y="30.915" fill="#ffbd59" xlink:href="#m"/><use x="62.514" y="30.915" fill="#232323" xlink:href="#n"/><use x="70.916" y="30.915" fill="#232323" xlink:href="#u"/><use x="74.28" y="30.915" fill="#008037" xlink:href="#o"/><use x="83.26" y="30.915" fill="#232323" xlink:href="#p"/><use x="89.694" y="30.915" fill="#232323" xlink:href="#u"/><use x="93.062" y="30.915" fill="#232323" xlink:href="#o"/><use x="102.044" y="30.915" fill="#a6a6a6" xlink:href="#v"/><use x="72.712" y="41.531" fill="#232323" xlink:href="#w"/><use x="76.028" y="41.531" fill="#232323" xlink:href="#x"/><use x="78.702" y="41.531" fill="#232323" xlink:href="#y"/><use x="81.196" y="41.531" fill="#232323" xlink:href="#w"/><use x="84.511" y="41.531" fill="#232323" xlink:href="#z"/><use x="88.044" y="41.531" fill="#232323" xlink:href="#x"/><use x="90.719" y="41.531" fill="#232323" xlink:href="#w"/></svg>