<?xml version="1.0" encoding="iso-8859-1" ?>
              <svg
                version="1.1"
                xmlns="http://www.w3.org/2000/svg"
                xmlns:xlink="http://www.w3.org/1999/xlink"
                viewBox="0 0 490.99999999999994 491"
                width="490.99999999999994"
                height="491"
              >
                <g transform="translate(147.62733333333333 41.244) scale(0.6621291882556131 0.6616065959952885)" ><defs>
    <clipPath id="clipPath_cZkB49lXcjQCe_hIImsGQ">
    <rect x="0" y="0" width="482.5" height="566" />
    </clipPath></defs>  <polygon points="361,564.5 1.5,564 121.5,1.5 481,1.5 " fill="#FFFFFF"/> <path d="M361,566L361,566L1.5,565.5c-0.8,0-1.5-0.7-1.5-1.5c0-0.1,0-0.2,0-0.3L120,1.2c0.1-0.7,0.8-1.2,1.5-1.2H481  c0.8,0,1.5,0.7,1.5,1.5c0,0.1,0,0.2,0,0.3l-120,563C362.3,565.5,361.7,566,361,566z M3.4,562.5l356.4,0.5L479.1,3H122.7L3.4,562.5z" fill="#1A1A1A"/> <line x1="272" y1="576.5" x2="289" y2="587.5" fill="none"/> <line x1="324" y1="0.5" x2="341" y2="11.5" fill="none"/> </g><g transform="translate(259.248 43.208) scale(0.8697979225684608 0.8707389162561576)" ><defs>
    <clipPath id="clipPath_rA2H67gQFxYAEXoY9HGhO">
    <rect x="0" y="0" width="176.5" height="101.5" />
    </clipPath></defs><title>rectangle_1 copy 5</title><g id="Layer_2rA2H67gQFxYAEXoY9HGhO" data-name="Layer 2"><g id="rectangle_1_copy_5rA2H67gQFxYAEXoY9HGhO" data-name="rectangle_1 copy 5"><rect width="176.5" height="101.5" fill="rgb(241,219,251)"/></g></g></g><g transform="translate(110.96600000000001 63.829999999999984) scale(0.31222570276693085 0.311793363752354)" ><defs>
    <clipPath id="clipPath_RNJtJSL8ClUcMKtcSMUYR">
    <rect x="0" y="0" width="815.645" height="1251.41" />
    </clipPath></defs><g id="bdf6319b-dcae-40a8-a75d-512a010702bbRNJtJSL8ClUcMKtcSMUYR" data-name="Layer 2"><g id="ab599b1d-1bff-452b-a6e0-82e2f22c6405RNJtJSL8ClUcMKtcSMUYR" data-name="worker"><path d="M124.95,574.469l-15.844-6.691-.365-26.6,9.572-23.895a120.835,120.835,0,0,0-32.089-35.044c-20.882-14.943-40.515-25.193-46.206-25.105C42,453.646,85.871,405.364,125.4,385.8s60.117-23.185,90.118-23.434,70.966,5.678,106.829,38.675c24.759,22.782,34.348,41.665,34.348,41.665s-47.036,32.542-57.812,54.094C283.4,500.469,124.95,574.469,124.95,574.469Z" fill="rgb(255,255,255)"/><path d="M169.951,442.566C161.974,418.623,154.49,389.5,144,376.548l-23.889,12.51c10.815,11.956,20.906,33.9,26.39,58.525,1.6,7.21,5.958,12.152,5.5,18.063s-5.939,12.228-3.2,15.114,1.653,5.634,1.371,8.186c-1.718,15.523-13.322,83.464-40.873,102.17,1.567,31.236,1.917,47.66,1.917,47.66-2.149,57.977-11.076,131.756-27,220.4-26.118,145.412-34.588,264-34.588,264s27.3,5.93,49.882,7.059c11.8.59,31.059,10.036,32.471.077S191.058,878.272,225.4,785.057c4.942-13.411,8.236,129.412,10.118,183.059s5.441,143.638,15.294,155.765c4.588,5.647,101.647-13.412,106.588-16.941s-32.823-394.588-31.764-430.588,1.4-41.008,1.4-84.772c.192-67.346-28.181-77.781-34.2-120.382,4.912-.023,9.068.1,5.254-5.473s-7.753-11.8-6.454-14.059,7.769-4.854-.525-16.966c-.934-8.528-5.81-48.938-25.169-65.7a189.332,189.332,0,0,0-26.675-5.411s22.105,8.041,29.012,43.486c3.6,18.455,3.085,30.69,3.085,30.69s-4,2.162-.714,13.546c-1.715,6.925-9.7,12.438-8.708,15.387a3.232,3.232,0,0,0,3.761,2.32s-14.995,24.643-38.764,22.872-38.71-10.595-43.887-18.595c1-.706,4.06-2.138.122-4.879s-10.063-9.474-10.769-12.3S169.951,442.566,169.951,442.566Z" fill="rgb(241,219,251)"/><path d="M166.529,598.087a1.5,1.5,0,0,1-1.5-1.593c.012-.2,1.248-19.948,3.634-39.573,4.962-40.8,9.963-41.353,12.1-41.59a1.439,1.439,0,0,1,.347,0c33.075,4.026,75.493,3.321,89.914.027a6.108,6.108,0,0,1,5.313,1.3c11.838,9.44,11.974,68.59,11.974,71.1a1.5,1.5,0,0,1-1.39,1.5l-120.283,8.823C166.6,598.086,166.565,598.087,166.529,598.087Zm14.455-79.747c-.85.3-5.037,3.577-9.338,38.931-1.97,16.194-3.153,32.48-3.507,37.694l117.169-8.6c-.105-17.692-2.183-60.461-10.84-67.364a3.1,3.1,0,0,0-2.775-.722C255.443,522,211.432,522.019,180.984,518.34Z" fill="#1a1a1a"/><path d="M229.383,556.79c-9.343,0-38.338-4.26-57.761-13.342a1.5,1.5,0,1,1,1.271-2.717c19.765,9.242,49.562,13.4,57.383,13.041,7.286-.32,45.3-13.108,52.294-16.422a1.5,1.5,0,1,1,1.285,2.711c-6.64,3.147-45.389,16.354-53.447,16.709C230.1,556.783,229.756,556.79,229.383,556.79Z" fill="#1a1a1a"/><path d="M458,329.763c5.238-5.253,9.621-7.255,13.287,16.706,3.294,21.53,3.2,28.461-.566,32.931s-13.747,24.245-14.479,31.363C452,451.94,417.636,574.107,383.283,573.7s-70.363-40.32-70.363-40.32-12.977-29.944-14.3-37c12.8-18.177,49.084-47.526,49.084-47.526,21.032,36.564,34.316,50.943,68.022-32.4-1.151-18.92,4.378-31.273,7.672-42.332s6.682-12.9,10.324-13.735c.92-5.593.831-6.655,3.791-9.261s-2.222-.96,4-9.865c1.433-2.05,5.494-2.238,7.823-1.786,1.644-2.079,5.77-4.441,6.874-4.941C456.489,333.616,456.416,331.616,458,329.763Z" fill="rgb(241,219,251)"/><path d="M430.817,1203.049c-1.2-18.084-63.411-32.117-82-42s-20.706-30.117-24.453-45.093l-45.387,6.883c.524,21.6-14.4,52.689-13.341,66.454s65.882,15.059,111.058,19.294S431.523,1213.637,430.817,1203.049Z" fill="rgb(241,219,251)"/><path d="M118.238,724.471c-1.181,11.874,34.28-24.3,39.074-50.031,4.588-.863,8.677-1.265,10.794.921-2,11.291-7.249,35.133-33.675,55.427-12.913,9.917-24.1,14.078-32.474,14.167C103.327,736.616,118.238,724.471,118.238,724.471Z" fill="rgb(255,255,255)"/><path d="M60.542,1125.307c15.917-134.6,25.837-194.132,39.23-258.367S125.95,637.387,125.95,637.387l-14.786-.87S106.6,732.2,86.552,846.03c-13.173,74.789-32.328,210.632-36.916,277.145C54.577,1124.41,60.542,1125.307,60.542,1125.307Z" fill="rgb(255,255,255)"/><path d="M226.106,782.41c13.765,4.765,17.642,55.589,18.7,67.236s6.476,259.647,21.638,274.7c-7.277.313-16.235,3.228-18.346-6.146s-11.117-66.107-13.911-191.965C231.518,806,226.106,782.41,226.106,782.41Z" fill="rgb(255,255,255)"/><path d="M306.7,674.252c8.246,34.4,17.089,50.654,21.614,50.993.888,12.418,1.459,17.812,1.459,17.812s-12.182-2.294-23.123-32.828c-4.475-12.488-10.348-32.9-10.568-35.152A89.89,89.89,0,0,1,306.7,674.252Z" fill="rgb(255,255,255)"/><path d="M333.192,787.35c-37.909,52.3-45.576,85.606-19.991,76.3s-7.1,22.117,5.611,46.117,16.471,14.53,21.294,34.294,8.262,24,8.262,24Z" fill="#1a1a1a"/><path d="M125.289,1136.347c-3.8,0-8.516-1.134-13.4-2.31a74.469,74.469,0,0,0-12.446-2.305c-22.443-1.123-49.851-7.032-50.126-7.091a1.5,1.5,0,0,1-1.177-1.573c.084-1.187,8.775-120.332,34.608-264.159,15.728-87.568,24.8-161.651,26.975-220.189a1.5,1.5,0,1,1,3,.111c-2.176,58.678-11.267,132.9-27.02,220.609-24.35,135.569-33.452,249.171-34.472,262.538,5.644,1.166,28.916,5.785,48.364,6.758a76.294,76.294,0,0,1,13,2.385c6.756,1.624,13.741,3.3,16.582,1.375a3.212,3.212,0,0,0,1.331-2.4c1.042-7.35,58.832-251.491,93.49-345.561.638-1.732,1.62-1.954,2.336-1.843,1.881.306,3.657.6,6.133,53.94,1.385,29.847,2.537,67.209,3.462,97.228.413,13.419.771,25.009,1.093,34.2,1.5,42.677,5,142.62,14.959,154.872,1.455,1.043,14.255,1.1,52.6-5.713,25.739-4.577,48.125-9.683,51.625-11.324,1.64-8.79-7.89-121.288-16.31-220.7-8.36-98.684-16.255-191.895-15.756-208.886l.362-12.11c.773-25.664,1.034-34.309,1.034-72.618-.413-42.267-10.167-61.138-19.6-79.388-6.246-12.083-12.144-23.5-14.587-40.784a1.5,1.5,0,1,1,2.97-.42c2.372,16.783,8.157,27.977,14.282,39.827,9.147,17.7,19.513,37.755,19.934,80.75,0,38.37-.261,47.026-1.035,72.724l-.362,12.106c-.494,16.821,7.761,114.289,15.746,208.546,4.562,53.864,9.28,109.561,12.456,151.162,5.37,70.319,4.187,71.163,2.935,72.057-3,2.148-30.389,7.988-54.037,12.169-50.931,9-53.682,5.612-54.587,4.5-9.332-11.485-13.137-85.637-15.629-156.658-.323-9.2-.68-20.789-1.094-34.212-1.524-49.47-4-129.667-7-145.976-34.694,95.611-91.424,335.267-92.455,342.54a6.172,6.172,0,0,1-2.616,4.456A9.8,9.8,0,0,1,125.289,1136.347Z" fill="#1a1a1a"/><path d="M243.358,659.453c-59.539,0-120.759-5.168-132.918-7.252a1.5,1.5,0,0,1,.507-2.957c18.294,3.135,148.153,13.288,215.143,2.092a1.5,1.5,0,0,1,.494,2.959C303.81,658.1,273.8,659.453,243.358,659.453Z" fill="#1a1a1a"/><path d="M222.106,679.734c-47.334,0-111.825-10.035-112.471-10.136a1.5,1.5,0,1,1,.465-2.963c.643.1,64.909,10.1,112.006,10.1,47.039,0,61.606-1.266,103.48-6.686a1.5,1.5,0,1,1,.385,2.974C283.942,678.463,269.32,679.734,222.106,679.734Z" fill="#1a1a1a"/><path d="M241.354,363.848c-12.659-1.49-45.68-6.989-81.253,6.633s-61.974,29.538-88.567,54.324-31.516,32.326-31.516,32.326,7.5-1.888,16.806,3.818c17.929,1.56,35.576,5.8,37.341-16.617s13.293-29.764,25.588-31.323c9.8-1.244,23.283-21.853,44.112-22.089s41.617,7.984,72.359-3.98c20.277-7.892,76,5.369,120.118,55.626h0s-17.137-28.209-43.422-49.506-71.566-29.212-71.566-29.212" fill="rgb(241,219,251)"/><path d="M348,450.057c-15.717,18.383-33.779,47.588-30.309,64s11.334,22.409,13.4,36.116l-12.061-10.694s-13.429-33.51-19.61-43.719C316.547,470.057,348,450.057,348,450.057Z" fill="#1a1a1a"/><path d="M417.075,396.789c-2.52,10.18-4.18,19.49-1.82,19.71L17.415,814.339c-2.1,2.1-9.83,6.979-13.68,6.979a2.3,2.3,0,0,1-1.69-.56c-2.47-2.469,3.94-12.879,6.42-15.359Z" fill="rgb(241,219,251)"/><path d="M247.327,277.528c-.942-6.588-14.221,1.647-19.633-8.706S223.93,247.175,212.165,238l-73.94,55.764c21.175,19.343,35.051,44.647,35.051,44.647a62.068,62.068,0,0,1,0,28.564l26.089-3.926,31.678-.225c-4.054-6.765-5.878-27.177-4-29.295,12.382-13.928,20.707-13.412,9.883-35.059C233.636,291.881,248.268,284.116,247.327,277.528Z" fill="rgb(241,219,251)"/><path d="M124.949,575.2a1.5,1.5,0,0,1-1.334-2.183,249.034,249.034,0,0,0,23.367-68.809,126.263,126.263,0,0,0,1.857-21.971,1.5,1.5,0,0,1,1.5-1.5h0a1.5,1.5,0,0,1,1.5,1.5,129.328,129.328,0,0,1-1.9,22.5,252.059,252.059,0,0,1-23.652,69.651A1.5,1.5,0,0,1,124.949,575.2Z" fill="#1a1a1a"/><path d="M146.5,449.083a1.5,1.5,0,0,1-1.465-1.183c-5.1-23.558-15.077-45.72-26.036-57.837a1.5,1.5,0,1,1,2.224-2.011c11.292,12.482,21.539,35.172,26.744,59.214a1.5,1.5,0,0,1-1.149,1.783A1.516,1.516,0,0,1,146.5,449.083Z" fill="#1a1a1a"/><path d="M271.359,436.859a1.5,1.5,0,0,1-1.5-1.5c-.018-25.632-9.182-58.538-29.259-70.215a1.5,1.5,0,0,1,1.507-2.593c21.1,12.272,30.733,46.343,30.752,72.806a1.5,1.5,0,0,1-1.5,1.5Z" fill="#1a1a1a"/><path d="M226.516,493.381c-16.218,0-33.457-7-42.954-17.927q-.338-.39-.672-.805a1.5,1.5,0,1,1,2.338-1.88q.3.37.6.717c10.22,11.757,30.017,18.691,47.063,16.5,9.813-1.264,23.132-6.052,30.859-21.679a1.5,1.5,0,1,1,2.689,1.33c-8.315,16.816-22.625,21.966-33.165,23.325A53.011,53.011,0,0,1,226.516,493.381Z" fill="#1a1a1a"/><path d="M169.951,444.065a1.5,1.5,0,0,1-1.423-1.025c-1.662-4.99-3.334-10.3-4.951-15.437-6.2-19.7-12.613-40.077-20.743-50.111a1.5,1.5,0,0,1,2.332-1.889c8.488,10.479,14.987,31.128,21.273,51.1,1.613,5.124,3.281,10.424,4.935,15.389a1.5,1.5,0,0,1-.949,1.9A1.479,1.479,0,0,1,169.951,444.065Z" fill="#1a1a1a"/><path d="M109.865,569.953a1.5,1.5,0,0,1-1.491-1.358c-1.188-12.544-1.438-21.274-.767-26.69a1.5,1.5,0,0,1,2.978.369c-.645,5.2-.392,13.714.775,26.037a1.5,1.5,0,0,1-1.351,1.635A1.4,1.4,0,0,1,109.865,569.953Z" fill="#1a1a1a"/><path d="M48.165,475.293l7.059-13.471s-14.141-7.706-15.924-2.588S48.165,475.293,48.165,475.293Z" fill="#1a1a1a"/><path d="M164.072,640.294s19.007,4.09,27.33,7.324c5.057-4.972,37.44-38.149,37.44-38.149s-17.03-7.632-12.618-12.22,6.659-5.261,2.667-7.572C214.9,591.116,168.273,628.824,164.072,640.294Z" fill="rgb(241,219,251)"/><path d="M416.437,1213.032c-8.392,0-20.991-1.18-39.883-2.952-9.184-.86-19.414-1.617-29.307-2.349-49.632-3.67-82.23-6.928-83.107-18.323-.511-6.646,2.388-16.6,5.745-28.139,3.688-12.668,7.868-27.029,7.592-38.393a1.5,1.5,0,0,1,1.463-1.536,1.484,1.484,0,0,1,1.536,1.464c.287,11.828-3.962,26.425-7.71,39.3-3.139,10.784-6.1,20.968-5.635,27.07.744,9.675,44.876,12.939,80.337,15.561,9.908.733,20.153,1.49,29.366,2.355,31.56,2.958,47.4,4.444,51.3.647.967-.94,1.332-2.357,1.183-4.592-.773-11.591-32.034-22.527-54.86-30.511-11.048-3.866-20.59-7.2-26.348-10.264-16.774-8.918-20.665-26.153-23.791-40-.478-2.117-.929-4.118-1.413-6.052a1.5,1.5,0,0,1,2.91-.728c.493,1.968.948,3.984,1.43,6.12,3.146,13.94,6.713,29.741,22.272,38.014,5.556,2.953,15.453,6.415,25.931,10.08,26.229,9.175,55.958,19.574,56.862,33.144.132,1.981.06,4.855-2.084,6.942C427.941,1212.119,423.814,1213.032,416.437,1213.032Z" fill="#1a1a1a"/><path d="M3.75,822.81a3.752,3.752,0,0,1-2.764-.987c-3.868-3.868,4.783-15.847,6.421-17.485l408.3-408.3a1.5,1.5,0,0,1,2.121,2.121l-408.3,408.3c-3.216,3.216-7.537,12.127-6.421,13.243s10.027-3.205,13.243-6.421L414.188,415.442a1.5,1.5,0,1,1,2.121,2.121L18.471,815.4C17.128,816.746,8.825,822.809,3.75,822.81Z" fill="#1a1a1a"/><path d="M237.165,618.116c-.353-8.47-22.582-13.918-20.176-18.588a53.922,53.922,0,0,1,4.785-7.437,13.4,13.4,0,0,0-9.374-6.563c-13.724-2-24.823,9.882-35.2,8.926-23.271-7.044-66.565-27.732-77.977-29.329,1.941-3.832,19.93-47.392,19.93-47.392s-15.47-29.13-63.647-55.564a260.47,260.47,0,0,0-15.813,33.162C-6.541,608.273,2.669,611.427,58.4,628.037c37.765,11.256,80.628,8.12,107.294,12.353,10.864,1.725,27.06,8.55,35.3,8.667s16.853-3.411,18.97-8.353,10.677-1.764,10.677-8.646S237.518,626.587,237.165,618.116Z" fill="rgb(241,219,251)"/><path d="M169.4,593.763c16.118,5.059,14.824,14.471,21.883,6.824s15.851-13.895,25.984-12.418c-5.867-2.641-11.514-4.876-19.984-.406S179.283,595.293,169.4,593.763Z" fill="rgb(255,255,255)"/><path d="M118.269,521.388a1.5,1.5,0,0,1-1.5-1.5c0-13.87-52.513-54.126-71.194-60-3.174-1-4.41-.69-4.622-.388-.065.094-1.483,2.423,7.988,14.7a1.5,1.5,0,1,1-2.376,1.832c-9.682-12.555-9.4-16.349-8.072-18.252,1.868-2.68,6.469-1.232,7.982-.757,18.615,5.853,73.294,46.535,73.294,62.861A1.5,1.5,0,0,1,118.269,521.388Z" fill="#1a1a1a"/><path d="M39.829,459.872a1.5,1.5,0,0,1-1.274-2.29c12.918-20.839,57.686-56.867,80.059-69.342a1.5,1.5,0,0,1,1.461,2.621c-21.595,12.04-66.5,48.185-78.97,68.3A1.5,1.5,0,0,1,39.829,459.872Z" fill="#1a1a1a"/><path d="M111.268,1132.346l-43.821-5.032c-2.988,20.8-23.811,50.214-39.693,74.214s-24.354,42.353-4.589,46.941,36.706-1.412,55.765-24.706,39.176-30.353,43.764-45.529S110.122,1143.524,111.268,1132.346Z" fill="rgb(241,219,251)"/><path d="M291.2,437.331a1.5,1.5,0,0,1-1.494-1.384c-2.039-26.293-9.625-47.628-23.191-65.224a1.5,1.5,0,0,1,2.376-1.832c13.933,18.073,21.72,39.931,23.806,66.824a1.5,1.5,0,0,1-1.379,1.611A1.177,1.177,0,0,1,291.2,437.331Z" fill="#1a1a1a"/><path d="M376.7,1208.589c-45.18-4.24-110-5.53-111.06-19.3-.8-10.4,7.53-30.7,11.42-49.321,13.99,8.491,33.41,10.951,57.58,7.661a36.32,36.32,0,0,0,14.18,13.419c18.59,9.881,80.8,23.92,82,42C431.525,1213.639,421.875,1212.818,376.7,1208.589Z" fill="#1a1a1a"/><path d="M315.263,1150.528c-15.749,0-28.813-3.1-38.987-9.28a1.5,1.5,0,1,1,1.557-2.564c13.528,8.212,32.574,10.724,56.6,7.462a1.5,1.5,0,1,1,.4,2.973A145.893,145.893,0,0,1,315.263,1150.528Z" fill="#1a1a1a"/><path d="M35.021,1251.41a53.819,53.819,0,0,1-12.195-1.479c-6.13-1.423-10.082-4.265-11.747-8.446C7.26,1231.9,16.235,1216.216,26.5,1200.7q2.364-3.57,4.849-7.286c14.984-22.456,31.968-47.909,34.611-66.313a1.5,1.5,0,0,1,2.97.425c-2.74,19.078-19.924,44.831-35.085,67.553-1.648,2.47-3.27,4.9-4.843,7.277-9.347,14.125-18.456,29.689-15.138,38.019,1.3,3.26,4.451,5.43,9.638,6.634,20.3,4.712,36.533-2.523,54.265-24.2,8.691-10.622,17.422-17.759,25.125-24.056,8.927-7.3,15.978-13.064,18.364-20.956,2.482-8.209-2.025-18.244-6-27.1-3.089-6.878-6.007-13.374-5.48-18.512a1.5,1.5,0,1,1,2.984.307c-.445,4.336,2.313,10.476,5.233,16.976,4.192,9.333,8.944,19.911,6.137,29.194-2.651,8.768-10.015,14.788-19.338,22.41-7.593,6.208-16.2,13.244-24.7,23.635C65.161,1242.961,51.159,1251.41,35.021,1251.41Z" fill="#1a1a1a"/><path d="M122.7,1178.239c-4.59,15.17-24.71,22.229-43.77,45.519s-36,29.3-55.76,24.71-11.29-22.94,4.59-46.94c10.28-15.539,22.64-33.349,30.88-49.619-3.35,13.38-8.94,25.02,9.89,27.369s46.39-22.339,46.07-33.779C119.005,1155.8,125.785,1168.008,122.7,1178.239Z" fill="#1a1a1a"/><path d="M71.169,1180.943a22.569,22.569,0,0,1-2.834-.173c-6.492-.811-10.7-2.783-12.877-6.028-3.25-4.852-1.393-11.662.573-18.872.385-1.413.78-2.857,1.146-4.322a1.5,1.5,0,1,1,2.91.728c-.372,1.486-.771,2.951-1.161,4.383-1.858,6.815-3.463,12.7-.975,16.414,1.66,2.48,5.179,4.024,10.757,4.721,10.886,1.356,24.39-6.922,32.654-14.427,7.248-6.582,11.855-13.578,11.736-17.823a1.5,1.5,0,0,1,3-.084c.147,5.239-4.608,12.764-12.718,20.128C94.943,1173.248,82.381,1180.942,71.169,1180.943Z" fill="#1a1a1a"/><path d="M177.052,265.256c2.172,9.566-1.357,20.81-7.24,22.247s-17.275,3.149-13.461,16.234,15.1,16.185,14.809,30.426c0,0-25.877-19.547-32.935-39.694C152.989,280.234,177.052,265.256,177.052,265.256Z" fill="#1a1a1a"/><path d="M165.7,311.376a11.3,11.3,0,0,1-8.164-3.178,12.824,12.824,0,0,1-2.234-14.487c1.27-2.674,5.406-8.764,16.378-7.557a1.5,1.5,0,0,1-.328,2.983c-6.374-.7-11.237,1.434-13.34,5.861a9.918,9.918,0,0,0,1.628,11.062c3.083,3.034,7.983,3.12,13.8.241a1.5,1.5,0,1,1,1.33,2.689A20.718,20.718,0,0,1,165.7,311.376Z" fill="#1a1a1a"/><path d="M164.907,304.087a1.491,1.491,0,0,1-.806-.236,5.278,5.278,0,0,1-2.708-5.264c.359-2.7,2.789-5.274,5.911-6.254a1.5,1.5,0,1,1,.9,2.861c-1.951.614-3.636,2.277-3.836,3.788a2.354,2.354,0,0,0,1.349,2.341,1.5,1.5,0,0,1-.809,2.764Z" fill="#1a1a1a"/><path d="M210.047,307c6.883.706,16.824,2.706,22.53-2.294C232.577,304.705,227.7,322.881,210.047,307Z" fill="rgb(255,255,255)"/><path d="M222.823,315.011c-4.062,0-8.682-2.31-13.779-6.9a1.5,1.5,0,0,1,1.157-2.607c.868.089,1.785.2,2.736.312,6.31.753,14.163,1.691,18.651-2.242a1.5,1.5,0,0,1,2.438,1.518c-.084.311-2.126,7.666-8.349,9.508A9.986,9.986,0,0,1,222.823,315.011Zm-7.735-5.923c3.758,2.549,7.016,3.437,9.724,2.642a8.314,8.314,0,0,0,4.342-3.36C224.847,309.89,219.736,309.6,215.088,309.088Z" fill="#1a1a1a"/><path d="M202.459,277.646c-3.253-4.4,5.294-8.647,9.706-10.236s8.471-.176,9.706,2.471-5.118,5.471-8.118,6.706S205.459,281.705,202.459,277.646Z" fill="rgb(255,255,255)"/><path d="M205.91,280.944a5.512,5.512,0,0,1-4.657-2.407,4.676,4.676,0,0,1-.809-4.264c1.337-4.412,8.92-7.449,11.213-8.274,4.829-1.739,9.912-.312,11.573,3.247a3.162,3.162,0,0,1,.062,2.541c-.79,2.027-3.639,3.993-8.967,6.187-.491.2-1.088.5-1.721.819C210.814,279.691,208.316,280.944,205.91,280.944Zm9.926-12.7a9.388,9.388,0,0,0-3.163.577c-4.023,1.449-8.668,4.046-9.358,6.323a1.675,1.675,0,0,0,.351,1.61h0c1.585,2.146,4.147,1.087,7.592-.642.685-.343,1.331-.668,1.924-.912,5.978-2.462,7.108-3.969,7.316-4.5.045-.115.031-.144.014-.182C219.9,269.212,218.127,268.244,215.836,268.244Z" fill="#1a1a1a"/><path d="M99.771,566.625a1.5,1.5,0,0,1-1.322-2.206c11.5-21.561,25.927-66.889,26.071-67.344a1.5,1.5,0,0,1,2.86.906c-.145.458-14.651,46.046-26.284,67.85A1.5,1.5,0,0,1,99.771,566.625Z" fill="#1a1a1a"/><path d="M212.165,267.41c-.118,4,2.622,7.246,4.9,7.682,2.913-1.731,7.727-6.549,1.595-7.89C214.371,266.263,212.165,267.41,212.165,267.41Z" fill="#1a1a1a"/><path d="M203.4,257.116c5.883-2.47,11.177.353,10.942,2s-7.177,1.177-9.883,2.824S196.812,260.881,203.4,257.116Z" fill="#1a1a1a"/><path d="M236.224,322.293c-7.758,7.691-38.706,10.966-39.059,18.73s23.113,3.025,27.647-1.377" fill="#1a1a1a"/><path d="M22.3,540c-1.312,20.12-11.9,52.591,13.276,50.238s13.412,20.941,27.059,26.823S73.459,630.94,73.459,630.94s-53.967-9.733-60.233-26.278S15.143,553.994,22.3,540Z" fill="rgb(255,255,255)"/><path d="M201.356,650.561c-.13,0-.259,0-.389,0-4.757-.069-11.72-2.175-19.092-4.406a136.474,136.474,0,0,0-16.416-4.28c-9.466-1.5-21.251-2.082-33.729-2.695-23.126-1.136-49.339-2.424-73.758-9.7-24.274-7.235-40.31-12.014-46.529-25.012-8.27-17.282,2.073-49.144,26.863-109.7a302.221,302.221,0,0,1,15.606-32.809,1.5,1.5,0,0,1,2.624,1.455A299.124,299.124,0,0,0,41.083,495.9C17.15,554.36,6.414,587,14.149,603.168c5.645,11.8,21.174,16.426,44.68,23.432,24.071,7.174,50.091,8.453,73.048,9.581,12.561.617,24.426,1.2,34.053,2.728a138.277,138.277,0,0,1,16.814,4.372c6.849,2.072,13.931,4.214,18.266,4.277,7.864.122,15.763-3.228,17.571-7.444,1.225-2.859,4.038-3.618,6.3-4.227,2.875-.776,4.258-1.263,4.258-3.829,0-3.886,1.9-5.642,3.57-7.19s3.119-2.887,2.96-6.689c-.155-3.736-6.506-7.309-11.608-10.179-5.458-3.071-10.172-5.724-8.4-9.158a53.764,53.764,0,0,1,4.3-6.829,11.8,11.8,0,0,0-7.77-5c-7.289-1.059-13.993,1.912-20.474,4.787-5.145,2.283-10,4.454-14.6,4.151-6.11-.381-17.25-5.273-31.354-11.468-21.1-9.268-47.364-20.8-67.9-21.927a1.5,1.5,0,0,1-1.416-1.58,1.519,1.519,0,0,1,1.58-1.416c21.085,1.155,47.624,12.811,68.948,22.176,13.283,5.834,24.755,10.873,30.334,11.221,3.865.256,8.4-1.77,13.2-3.9,6.55-2.906,13.976-6.2,22.121-5.014a14.843,14.843,0,0,1,10.491,7.359,1.5,1.5,0,0,1-.152,1.614,52.805,52.805,0,0,0-4.633,7.2c-.089,1.066,4.657,3.736,7.207,5.17,6.051,3.4,12.909,7.263,13.135,12.669.216,5.187-2.078,7.31-3.921,9.015-1.514,1.4-2.607,2.413-2.607,4.989,0,4.978-3.743,5.988-6.476,6.725-2.283.615-3.713,1.092-4.322,2.513C218.832,647.143,209.294,650.561,201.356,650.561Z" fill="#1a1a1a"/><path d="M173.276,366.974c3.948,13.966,54.94,28.027,57.767-4.151,0,0-20.492-.6-27.3-.138C196.067,363.2,173.276,366.974,173.276,366.974Z" fill="rgb(241,219,251)"/><path d="M153.3,464.609a9.016,9.016,0,0,1-8.806-7.151l-1.012-4.818a9.011,9.011,0,0,1,6.958-10.658l14.607-3.067a9.005,9.005,0,0,1,10.658,6.959l1.012,4.817a9,9,0,0,1-6.959,10.658l-14.606,3.067A8.965,8.965,0,0,1,153.3,464.609Zm13.6-19.886a3.027,3.027,0,0,0-.617.063l-14.606,3.067a3.006,3.006,0,0,0-2.32,3.554l1.012,4.819a3.005,3.005,0,0,0,3.553,2.319l14.606-3.067h0a3,3,0,0,0,2.32-3.552l-1.013-4.818A3,3,0,0,0,166.9,444.723Z" fill="#1a1a1a"/><path d="M288.833,455.368c-.164,0-.328,0-.494-.014h0l-14.9-.81a9,9,0,0,1-8.5-9.476l.267-4.916a9,9,0,0,1,9.475-8.5l14.9.811a9,9,0,0,1,8.5,9.474l-.268,4.916A9.012,9.012,0,0,1,288.833,455.368Zm-.168-6a3.01,3.01,0,0,0,3.158-2.834l.267-4.916a3,3,0,0,0-2.832-3.158l-14.9-.811a3.015,3.015,0,0,0-3.158,2.833l-.267,4.916a3,3,0,0,0,2.832,3.16Z" fill="#1a1a1a"/><path d="M432.491,383.41a1.354,1.354,0,0,1-.179-.011A1.5,1.5,0,0,1,431,381.733a183.368,183.368,0,0,0,1.225-21.314c-.155-6.025,2.337-9.061,4.455-10.547a9.314,9.314,0,0,1,8.384-1.211,1.5,1.5,0,1,1-1.092,2.793,6.283,6.283,0,0,0-5.569.874c-2.175,1.526-3.275,4.3-3.179,8.015a182.453,182.453,0,0,1-1.246,21.744A1.5,1.5,0,0,1,432.491,383.41Z" fill="#1a1a1a"/><path d="M365.165,570.234c-8.47-6.235-1.647-15.529,12-18.118s31.53-7.294,32.235-20,22.673-27.028,22.673-27.028-18.5,53.676-38.787,65.43C382.812,576.587,365.165,570.234,365.165,570.234Z" fill="rgb(255,255,255)"/><path d="M151.166,483.432a4.5,4.5,0,0,1-4.151-6.215c.209-.5.426-1.013.645-1.525,1.682-3.938,3.421-8.01,2.69-13.438a1.5,1.5,0,0,1,1.757-1.676c3.48.642,15.586-2.418,19.956-3.649a1.5,1.5,0,0,1,1.68.65c2.932,4.7,6.534,7.106,10.019,9.427l.635.425a4.5,4.5,0,0,1-1.408,8.1l-30.708,7.766A4.53,4.53,0,0,1,151.166,483.432Zm2.326-19.783c.284,5.361-1.49,9.514-3.073,13.221-.215.5-.427,1-.632,1.5a1.46,1.46,0,0,0,.252,1.543,1.478,1.478,0,0,0,1.506.476l30.708-7.766a1.481,1.481,0,0,0,1.113-1.2,1.465,1.465,0,0,0-.637-1.491l-.631-.422c-3.354-2.234-7.128-4.75-10.286-9.392C168.407,461.037,158.707,463.557,153.492,463.649Z" fill="#1a1a1a"/><path d="M296.432,472.978c-.125,0-.251-.006-.378-.016l-31.572-2.539a4.5,4.5,0,0,1-3.029-7.448c.36-.411.729-.821,1.1-1.236,2.861-3.186,5.82-6.481,6.876-11.855a1.5,1.5,0,0,1,2.2-1.021c3.094,1.728,15.535,2.732,20.068,2.973a1.5,1.5,0,0,1,1.381,1.157c1.26,5.4,3.9,8.831,6.448,12.151l.465.606a4.5,4.5,0,0,1-3.563,7.228Zm-24.477-20.761c-1.458,5.167-4.476,8.527-7.168,11.526q-.547.609-1.08,1.212a1.461,1.461,0,0,0-.259,1.541,1.48,1.48,0,0,0,1.274.937l31.572,2.539a1.484,1.484,0,0,0,1.441-.781,1.467,1.467,0,0,0-.123-1.619l-.461-.6c-2.455-3.2-5.217-6.792-6.713-12.2C286.916,454.549,276.921,453.809,271.955,452.217Z" fill="#1a1a1a"/><path d="M120.111,390.556a1.5,1.5,0,0,1-.812-2.762,166.351,166.351,0,0,1,53.648-22.285,1.5,1.5,0,1,1,.657,2.927,163.385,163.385,0,0,0-52.684,21.881A1.494,1.494,0,0,1,120.111,390.556Z" fill="#1a1a1a"/><path d="M354.205,461.161a1.5,1.5,0,0,1-1.265-.691c-1.88-2.935-3.957-6.39-6.534-10.87a1.5,1.5,0,0,1,2.6-1.5c2.554,4.439,4.606,7.855,6.46,10.75a1.5,1.5,0,0,1-1.261,2.308Z" fill="#1a1a1a"/><path d="M374.6,479.059c-4.533,0-9.057-2.586-13.767-7.851a1.5,1.5,0,0,1,2.237-2c4.749,5.311,8.915,7.443,13.1,6.713,10.161-1.773,22.338-20.969,38.309-60.4-1.555-14.008,2.414-26.161,5.608-35.944.675-2.065,1.312-4.017,1.871-5.892,3.235-10.861,6.77-13.7,11.426-14.769a1.5,1.5,0,0,1,.67,2.924c-3.076.7-6.1,2.206-9.221,12.7-.57,1.914-1.213,3.883-1.894,5.968-3.3,10.091-7.031,21.53-5.436,35.046a1.513,1.513,0,0,1-.1.738c-16.92,41.837-29.1,60.553-40.719,62.58A12.083,12.083,0,0,1,374.6,479.059Z" fill="#1a1a1a"/><path d="M299.969,497.349a1.5,1.5,0,0,1-1.278-2.283c15.061-24.629,48.76-48.282,55.638-52.956-4.922-8.11-35.436-55.3-87.469-71a148.218,148.218,0,0,0-35.918-6.788,1.5,1.5,0,0,1-1.185-.724c-3.905-6.517-6.554-28-3.831-31.064,2.623-2.951,5.037-5.234,7.166-7.25,7.689-7.277,10.566-10,2.5-26.14-2.221-4.444,1.57-8.762,5.237-12.938,2.632-3,5.354-6.1,5.017-8.463-.2-1.388-.777-1.605-4.322-1.555-4.005.031-10.05.1-15.021-6.457-3.089-4.074-4.309-8.688-5.487-13.149-1.595-6.035-3.106-11.753-8.883-16.675l-72.22,54.469c2.5,9.813,10.864,17.639,18.959,25.216,6.369,5.962,12.384,11.593,15.743,18.137s2.544,16.143.142,29.514a1.5,1.5,0,0,1-2.953-.531c2.228-12.4,3.1-21.842.142-27.614-3.12-6.079-8.951-11.537-15.125-17.317-8.683-8.128-17.662-16.533-20.059-27.7a1.5,1.5,0,0,1,.564-1.512l73.94-55.764a1.5,1.5,0,0,1,1.825.014c7.313,5.7,9.1,12.461,10.825,19,1.155,4.373,2.246,8.5,4.978,12.1,4.059,5.353,8.805,5.307,12.6,5.269,3.153-.038,6.722-.068,7.322,4.131.532,3.731-2.653,7.358-5.733,10.867-3.012,3.43-6.127,6.977-4.808,9.616,8.718,17.435,5.549,21.459-3.117,29.661-2.085,1.974-4.448,4.21-6.986,7.064-1.2,2.126.254,19.945,3.793,26.86a150.66,150.66,0,0,1,35.8,6.862c57.866,17.466,89.577,73.026,89.891,73.586a1.5,1.5,0,0,1-.482,1.985c-.4.262-39.809,26.472-55.918,52.814A1.5,1.5,0,0,1,299.969,497.349Z" fill="#1a1a1a"/><ellipse cx="788.565" cy="147.529" rx="33.007" ry="10.078" transform="translate(100.625 560.249) rotate(-41.558)" fill="rgb(255,255,255)"/><path d="M813.263,125.633c-5.647-7.059-112.058-115-122.411-122.528S636.537,15.558,641.6,46.5c1.9,11.61,112.889,118.017,122.27,122.925" fill="rgb(255,255,255)"/><path d="M763.864,170.925a1.5,1.5,0,0,1-.694-.171c-5.209-2.726-37.451-32.816-64.3-59.209-21.432-21.07-57.565-57.509-58.758-64.8-2.388-14.607,5.757-29.223,21.787-39.1C673.744.352,686.29-2.069,691.735,1.892c9.9,7.2,115.779,114.153,122.7,122.8a1.5,1.5,0,1,1-2.342,1.875C807.951,121.393,700.673,12.1,689.97,4.317c-3.736-2.715-14.928-1.24-26.494,5.883-5.6,3.451-23.638,16.253-20.4,36.058.736,4.5,23.464,29.292,57.9,63.148,29.443,28.947,59.155,56.372,63.584,58.69a1.5,1.5,0,0,1-.7,2.829Z" fill="#1a1a1a"/><path d="M662.106,9.235c-4.144,16.139-8.2,32.9,14.738,35.9s18.177,13.235,24.706,29.117,31.765-7.588,39.177,7.236S722.2,124.9,758.021,127.021s32.631,6.159,32.631,6.159,24.513-7.417,10.512,16.23c5-4.1,16.2-19.606,9.426-26.753C804.671,116.416,690.224,1.969,690.224,1.969S678.577-1.168,662.106,9.235Z" fill="rgb(241,219,251)"/><path d="M763.864,170.925a1.5,1.5,0,0,1-.694-.171c-5.209-2.726-37.451-32.816-64.3-59.209-21.432-21.07-57.565-57.509-58.758-64.8-2.388-14.607,5.757-29.223,21.787-39.1C673.744.352,686.29-2.069,691.735,1.892c9.9,7.2,115.779,114.153,122.7,122.8a1.5,1.5,0,1,1-2.342,1.875C807.951,121.393,700.673,12.1,689.97,4.317c-3.736-2.715-14.928-1.24-26.494,5.883-5.6,3.451-23.638,16.253-20.4,36.058.736,4.5,23.464,29.292,57.9,63.148,29.443,28.947,59.155,56.372,63.584,58.69a1.5,1.5,0,0,1-.7,2.829Z" fill="#1a1a1a"/><path d="M767.379,172.194a5.9,5.9,0,0,1-4.636-1.774c-4.988-5.628,5.624-20.458,18.141-31.555,6.705-5.944,13.736-10.745,19.794-13.515,6.676-3.053,11.416-3.3,13.707-.712,4.99,5.628-5.622,20.458-18.139,31.554-6.7,5.945-13.736,10.745-19.794,13.516A23,23,0,0,1,767.379,172.194Zm42.344-46.331c-1.713,0-4.27.6-7.8,2.214-5.8,2.651-12.562,7.279-19.051,13.032-14.608,12.951-20.263,24.64-17.887,27.321.983,1.11,4.183,1.309,10.216-1.45,5.8-2.651,12.562-7.28,19.051-13.032,14.608-12.95,20.262-24.639,17.886-27.32A3.162,3.162,0,0,0,809.723,125.863Z" fill="#1a1a1a"/><path d="M801.275,173.039l-23.29,23.24a36.014,36.014,0,0,1-50.85,0l-26.78-26.7a26.985,26.985,0,0,0-38.18,0l-189.2,189.2c-.39-3.47-.96-7.53-1.69-12.31-.18-1.18-.36-2.3-.54-3.35l184.36-184.36a37,37,0,0,1,52.33,0l26.74,26.75a26.007,26.007,0,0,0,36.77,0l19.54-19.54a5.99,5.99,0,0,0,0-8.48s-6.16-3.99-6.16-6.16c0-3.16,5.8-9.28,8.94-8.95,2.82.3,8.02,8.02,8.02,8.02A15.994,15.994,0,0,1,801.275,173.039Z" fill="rgb(241,219,251)"/><path d="M383.455,575.2h-.19c-25.279-.3-51.106-21.163-64.252-33.573a1.5,1.5,0,0,1,2.06-2.182c12.827,12.11,37.968,32.468,62.227,32.755h.152c14.039,0,30.437-23.032,46.2-64.9,13.54-35.97,23.036-76.661,25.1-96.687.777-7.559,11.118-27.776,14.823-32.175,3.38-4.014,3.43-10.836.231-31.739-2.343-15.318-4.835-18.305-6.112-18.722-1.191-.4-3.1,1.317-4.629,2.848-2.37,2.377-1.359,9.149.04,18.522.347,2.326.721,4.833,1.082,7.513a1.5,1.5,0,0,1-2.973.4c-.359-2.666-.731-5.158-1.076-7.472-1.586-10.62-2.633-17.637.8-21.082,2.381-2.387,4.96-4.476,7.687-3.582,3.625,1.186,6.061,7.5,8.145,21.121,3.4,22.22,3.214,29.235-.9,34.123-3.828,4.546-13.459,23.982-14.134,30.551-2.079,20.213-11.643,61.23-25.272,97.436C420.968,538.879,403.152,575.2,383.455,575.2Z" fill="#1a1a1a"/><path d="M104.974,497.528c6.191,2.824,18.932-3.167,20.814-1.226-1.235,4.706-5.069,17.991-7.671,23.941C120.189,514.41,106.737,502.431,104.974,497.528Z" fill="#1a1a1a"/><path d="M237.577,226.68c-47.186,21.577-102.692,74.412-102.692,74.412,0-14.3-32.086-47.611,10.048-80.751C188.145,186.352,201.963,238.137,237.577,226.68Z" fill="rgb(241,219,251)"/><path d="M143.615,293.107c.08-6.285-9.979-26.05-8.038-42.991s33.647-24.706,38.529-31.941,0-9.574,0-9.574-33.249,1.311-48.269,35.67c-3.79,8.669-4,25.453,3.989,41.134,5.633,11.064,5.457,15.687,5.457,15.687Z" fill="rgb(255,255,255)"/><path d="M134.884,302.593a1.5,1.5,0,0,1-1.5-1.5c0-3.217-1.912-7.814-4.125-13.136-7.137-17.163-17.922-43.1,14.745-68.795,25.666-20.189,41.51-10.933,56.831-1.982,11.209,6.547,21.8,12.729,36.282,8.073a1.5,1.5,0,0,1,1.083,2.792c-46.412,21.223-101.729,73.607-102.282,74.135A1.5,1.5,0,0,1,134.884,302.593Zm38.154-92.5c-7.753,0-16.5,3.027-27.178,11.424-30.878,24.288-21.025,47.984-13.83,65.286a69.45,69.45,0,0,1,3.99,11.177c9.956-9.193,52.4-47.415,91.7-68.114-10.8.2-19.721-5.028-28.4-10.1C190.912,214.857,182.758,210.1,173.038,210.1Z" fill="#1a1a1a"/><path d="M447.163,371.381a1.5,1.5,0,0,1-1.48-1.272c-4.347-28.251.785-32.474,9.519-37.025l.341-.179a1.5,1.5,0,0,1,1.389,2.66l-.344.179c-7.071,3.686-12.181,6.348-7.941,33.908a1.5,1.5,0,0,1-1.484,1.729Z" fill="#1a1a1a"/><path d="M438.5,352.024h-.015A1.5,1.5,0,0,1,437,350.51c.086-8.987,3.888-13.009,12.327-13.04h0a1.5,1.5,0,0,1,.006,3c-6.823.025-9.267,2.66-9.338,10.069A1.5,1.5,0,0,1,438.5,352.024Z" fill="#1a1a1a"/><path d="M206.843,383.89c-15.132,0-32.589-7.943-35.01-16.507a1.5,1.5,0,1,1,2.887-.817c2.061,7.292,20.028,15.623,35.573,14.166,8.129-.765,18.068-4.517,19.256-18.04a1.5,1.5,0,0,1,2.989.262c-1.069,12.157-8.869,19.531-21.963,20.765C209.354,383.834,208.106,383.89,206.843,383.89Z" fill="#1a1a1a"/><path d="M329.765,746.059a1.486,1.486,0,0,1-.795-.231c-.946-.594-23.277-15.189-33.81-70.471a1.5,1.5,0,1,1,2.947-.56c10.253,53.812,32.242,68.353,32.463,68.494a1.5,1.5,0,0,1-.805,2.768Z" fill="#1a1a1a"/><path d="M278.988,1124.235c8-.53,37.559,1.675,48.765,5.911-1.147-5.294-3.882-15.53-3.882-15.53Z" fill="#1a1a1a"/><path d="M64.429,1138.757c7.618-1.464,26.854-6.012,48.207,1.733a51.224,51.224,0,0,1-1.471-8.609l-43.714-5.376S65.34,1136.343,64.429,1138.757Z" fill="#1a1a1a"/><path d="M102.616,746.064c-.214,0-.425,0-.638,0a1.5,1.5,0,0,1,.057-3c.191,0,.384,0,.575,0,30.473,0,62.6-45.878,64.953-67.863a1.5,1.5,0,0,1,2.983.318C168.04,698.975,135.123,746.064,102.616,746.064Z" fill="#1a1a1a"/><path d="M77.283,562.175c-7.412-2.294,3.235-12.882,11.706-18.294s15.294-2.588,18.353-11.529,6.717-7.706,9.47-11.883S101.5,562.705,99.121,565.4C96.121,564.162,77.283,562.175,77.283,562.175Z" fill="#1a1a1a"/><path d="M472.972,360.279a1.5,1.5,0,0,1-1.06-2.56l189.2-189.2a28.532,28.532,0,0,1,40.3,0l26.778,26.7a34.558,34.558,0,0,0,48.725,0l23.291-23.234a14.5,14.5,0,0,0,.014-20.519,1.515,1.515,0,0,1-.184-.223c-2.276-3.377-5.683-7.231-6.932-7.364-.642-.055-2.037.532-3.7,2.025-2.216,1.993-3.587,4.369-3.587,5.427.137.784,2.748,3.136,5.473,4.9a1.429,1.429,0,0,1,.246.2,7.5,7.5,0,0,1,0,10.606L772.009,186.57a27.529,27.529,0,0,1-38.891,0L706.37,159.821a35.54,35.54,0,0,0-50.205,0L471.8,344.188a1.5,1.5,0,0,1-2.121-2.121L654.044,157.7a38.542,38.542,0,0,1,54.447,0l26.748,26.749a24.531,24.531,0,0,0,34.649,0l19.538-19.539a4.5,4.5,0,0,0,.1-6.259c-2.129-1.39-6.7-4.684-6.7-7.325,0-2.443,2.3-5.606,4.581-7.657,1.269-1.141,3.743-3.021,6.019-2.777,3.2.338,7.617,6.478,9.025,8.552a17.5,17.5,0,0,1-.12,24.659l-23.291,23.234a37.561,37.561,0,0,1-52.962.006l-26.78-26.7a25.529,25.529,0,0,0-36.064,0l-189.2,189.2A1.5,1.5,0,0,1,472.972,360.279Z" fill="#1a1a1a"/><circle cx="227.735" cy="542.352" r="4.471" fill="#1a1a1a"/><path d="M139.217,1099.9a1.5,1.5,0,0,1-.39-.051c-9.624-2.583-67.479-11.52-85.978-13.282a1.5,1.5,0,1,1,.284-2.986c18.581,1.769,76.768,10.766,86.471,13.371a1.5,1.5,0,0,1-.387,2.948Z" fill="#1a1a1a"/><path d="M260.971,1107.46c-3.261-22.614,12.782-53.108,21.253-66.873s.108-27.552-14.118-12.51-15.22,1.144-15.519-3.515-6.312,2.437-6.312,2.437S255.954,1104.274,260.971,1107.46Z" fill="rgb(255,255,255)"/><path d="M242.319,1086.575a1.5,1.5,0,0,1-.357-2.957c15.5-3.8,85.939-18.577,112.614-21.756a1.5,1.5,0,1,1,.355,2.979c-26.571,3.166-96.8,17.9-112.254,21.691A1.523,1.523,0,0,1,242.319,1086.575Z" fill="#1a1a1a"/><path d="M96.93,1129.352c-21-11.118-5.624-19.765,8.294-27.53s19.765-7.765,16.235-22.588,9.238-17.578,22.588-36.353,20.177-51.294,20.177-51.294-29.691,121.827-31.993,137.384C130.224,1139.763,112.85,1132.305,96.93,1129.352Z" fill="#1a1a1a"/><path d="M141.055,1097.159c-.2.83-.48,1.98-.71,2.92-3.89-.94-12.87-2.56-23.78-4.37a18.173,18.173,0,0,0,3.27-2.491C129.555,1094.849,137.425,1096.289,141.055,1097.159Z" fill="rgb(255,255,255)"/><ellipse cx="292.871" cy="880.912" rx="10.552" ry="9.334" transform="translate(-523.983 439.858) rotate(-43.243)" fill="#1a1a1a"/><path d="M139.474,993.977a5.969,5.969,0,0,1-2.222-.43,59.265,59.265,0,0,0-27.436-3.74,6,6,0,0,1-1.8-11.865A70.511,70.511,0,0,1,141.7,982.4a6,6,0,0,1-2.226,11.575Z" fill="#1a1a1a"/><path d="M105.348,1043.973a6,6,0,0,1-4-10.469c.2-.181,5.029-4.49,12.753-10.24a6,6,0,0,1,7.165,9.627c-7.254,5.4-11.869,9.513-11.915,9.553A5.974,5.974,0,0,1,105.348,1043.973Z" fill="#1a1a1a"/><path d="M87.793,929.082c5.295-12.831,28.275-61.672,38.157-73.436s8.627-28.236-1.961-20.941-18.231,23.629-21.116,15.579S87.793,929.082,87.793,929.082Z" fill="rgb(255,255,255)"/><path d="M104.064,842.989c3.454-9.7,7.689-22.167,18.513-36.284s-.665-36.854-10.921-20.427" fill="rgb(255,255,255)"/><path d="M251.922,1014c2.89-15.3,12.612-1.574-2.9-55.495C249.021,958.508,241.5,999.889,251.922,1014Z" fill="rgb(255,255,255)"/></g></g></g><g transform="translate(26.71533333333334 366.376) scale(0.44852626588499206 0.44995005428881646)" ><defs>
    <clipPath id="clipPath_kkztNebUGAyr-NuG_Lcpw">
    <rect x="0" y="0" width="172.962" height="153.5" />
    </clipPath></defs><title>paint_bucket</title><g id="b8de71fa-33ca-41e2-8df1-12cb50423d0ekkztNebUGAyr-NuG_Lcpw" data-name="Layer 2"><g id="b02e006a-d263-48bf-8dfa-d18db301636bkkztNebUGAyr-NuG_Lcpw" data-name="paint_bucket"><path d="M143.283,152H29.678A18.284,18.284,0,0,1,11.4,134.044L9.03,1.5h154.9l-2.368,132.544A18.283,18.283,0,0,1,143.283,152Z" fill="rgb(241,219,251)"/><path d="M143.283,153.5H29.678A19.879,19.879,0,0,1,9.9,134.071L7.53,1.527A1.5,1.5,0,0,1,9.03,0h154.9a1.5,1.5,0,0,1,1.5,1.527l-2.368,132.544A19.88,19.88,0,0,1,143.283,153.5ZM10.557,3,12.9,134.017A16.864,16.864,0,0,0,29.678,150.5h113.6a16.864,16.864,0,0,0,16.78-16.483L162.4,3Z" fill="#1a1a1a"/><rect x="4.727" y="1.5" width="163.507" height="11.677" fill="rgb(241,219,251)"/><path d="M168.234,14.677H4.727a1.5,1.5,0,0,1-1.5-1.5V1.5A1.5,1.5,0,0,1,4.727,0H168.234a1.5,1.5,0,0,1,1.5,1.5V13.177A1.5,1.5,0,0,1,168.234,14.677Zm-162.007-3H166.734V3H6.227Z" fill="#1a1a1a"/><path d="M86.481,101.6c-44.067,0-65.25-21.141-75.261-38.875A89.234,89.234,0,0,1,0,23.9,1.5,1.5,0,0,1,1.5,22.38H9.03a1.5,1.5,0,0,1,0,3H3.077A88.909,88.909,0,0,0,13.89,61.356C27.891,86.072,52.314,98.6,86.481,98.6s58.589-12.532,72.591-37.248A88.9,88.9,0,0,0,169.884,25.38h-5.953a1.5,1.5,0,0,1,0-3h7.531a1.5,1.5,0,0,1,1.5,1.521,89.25,89.25,0,0,1-11.22,38.828C151.731,80.463,130.547,101.6,86.481,101.6Z" fill="#1a1a1a"/><path d="M55.285,1.5H162.318c-.538,7.785-8.068,9.082-9.144,14.272s-8.605,28.543-20.438,20.758-12.908,9.082-15.06,20.759S114.449,80.642,108,80.642s-7.53-20.758-16.136-36.327S82.178,55.991,76.8,62.478s-12.908,1.3-11.832-20.758-9.682-19.461-9.682-19.461c-17.211,1.3-11.832,23.353-19.362,23.353-9.682,0-6.455-20.759-15.06-24.651S12.257,9.285,12.257,1.5Z" fill="#fff"/><path d="M168.234,14.677H4.727a1.5,1.5,0,0,1-1.5-1.5V1.5A1.5,1.5,0,0,1,4.727,0H168.234a1.5,1.5,0,0,1,1.5,1.5V13.177A1.5,1.5,0,0,1,168.234,14.677Zm-162.007-3H166.734V3H6.227Z" fill="#1a1a1a"/></g></g></g>
              </svg>