<?xml version="1.0" encoding="UTF-8"?><svg xmlns="http://www.w3.org/2000/svg" viewBox="0 0 223.18 378.937" x="0px" y="0px" width="224px" height="379px" version="1.1" xmlns:xlink="http://www.w3.org/1999/xlink"><title>mailbox</title><g id="Layer_2" data-name="Layer 2"><g id="mailbox"><rect x="91.116" y="117.158" width="16.687" height="203.201" style="fill:#f1dbfb"/><path d="M111.671,95.3H92.029a1.281,1.281,0,0,0-1.3,1.3v280.2a1.281,1.281,0,0,0,1.3,1.3H104.11a1.281,1.281,0,0,0,1.3-1.3V364.683h4.823v12.081a1.3,1.3,0,0,0,2.608,0v-81.7l.173-198.508A1.37,1.37,0,0,0,111.671,95.3ZM102.806,375.5H93.333V357.991h9.473Zm0-73.571-9.473,9.386v-170.3l9.473-6.6Z" style="fill:#1a1a1a"/><path d="M124.056,354.688c-5.606,7.909-7.3,14.21-7.648,18.556h22.771s-.348-7.474,4.65-18.382c9.125-19.946,38.806-36.807,38.806-36.807C144.307,325.138,133.269,341.738,124.056,354.688Z" style="fill:#f1dbfb"/><path d="M141.83,96.646H13.417V42.022A40.717,40.717,0,0,1,54.135,1.3H182.374" style="fill:#fff"/><path d="M183.2,1.391V1.347H54.961A40.636,40.636,0,0,0,25.281,14.21H151.52a40.674,40.674,0,0,0-11.037,27.855V60.838c-3.39.174-17.47.783-25.813-.738-9.517-1.739-7.779-9.17-14.862-9.387S82.3,54.407,73.951,56.145s-9.6-3.129-12.776-5.91c-4.736-4.172-15.209-1.173-27.247,3.259A175.351,175.351,0,0,0,14.2,62.055V84.087h126.24v12.6h81.393V42.065A40.564,40.564,0,0,0,183.2,1.391Z" style="fill:#f1dbfb"/><path d="M33.581,313.4S80.3,327.311,89.856,370.637l-20.12.3s-2.781-17.948-12.689-34.026C47.965,322.1,33.581,313.4,33.581,313.4Z" style="fill:#f1dbfb"/><path d="M160.69,308.147s-57.84,16.687-64.62,69.269L120.8,376.2s-1.651-11.994,8.344-30.636C138.092,328.875,160.69,308.147,160.69,308.147Z" style="fill:#f1dbfb"/><path d="M161.819,307.5a1.285,1.285,0,0,0-1.477-.608,111.08,111.08,0,0,0-30.159,15.122c-14.166,9.952-31.853,27.638-35.416,55.233a1.284,1.284,0,0,0,.347,1.043,1.4,1.4,0,0,0,.956.435h.044L120.84,377.5a1.28,1.28,0,0,0,.956-.478,1.585,1.585,0,0,0,.3-.739v-.261c0-.087-.869-7.257,3.3-18.9.044-.131.087-.217.131-.348l.391-1.043c.087-.217.174-.434.261-.608a6.6,6.6,0,0,1,.347-.826c.131-.261.217-.565.348-.825.087-.218.174-.435.3-.7.13-.3.3-.652.435-1,.086-.218.173-.391.26-.609.174-.347.348-.738.522-1.086l.261-.522c.173-.391.391-.782.608-1.216a2.3,2.3,0,0,0,.217-.478c.3-.565.565-1.13.913-1.695q.325-.587.652-1.173c.043-.087.087-.131.13-.218.217-.391.435-.738.652-1.13.043-.086.13-.217.174-.3.217-.347.434-.738.7-1.086.087-.087.13-.217.217-.3.174-.261.348-.522.522-.826.087-.174.217-.3.3-.478.174-.3.391-.565.565-.869.13-.217.3-.435.434-.652a1.857,1.857,0,0,0,.218-.3c.3-.435.651-.913.956-1.347v-.044c10.255-14.123,25.552-28.246,25.726-28.42A1.23,1.23,0,0,0,161.819,307.5Zm-51.756,37.72a88.776,88.776,0,0,1,21.555-21.033,117.421,117.421,0,0,1,11.081-6.866c-1.087.869-2.216,1.825-3.346,2.825-9.083,8.256-20.99,23.466-26.03,49.322l-2,5.823-13.776.7A71.213,71.213,0,0,1,110.063,345.215Z" style="fill:#1a1a1a"/><path d="M63.739,300.238S82.3,311.145,94.593,335.959c12.689,25.595,9.995,38.024,9.995,38.024l-14.6-.913s-2.26-25.682-6.475-37.807A119.135,119.135,0,0,0,63.739,300.238Z" style="fill:#f1dbfb"/><path d="M165.731,376.416c-.131,0-14.384-.825-23.727-4.563-5.911-2.346-12.907-4.606-20.164-3.65-1.869.261-3.563.522-5.215.782-5.823.956-10.429,1.695-17.208.305a49.664,49.664,0,0,1-6.475-1.956c-6.823-2.39-14.6-5.041-27.247-.608-2.043.695-4.042,1.607-6.171,2.52-6.649,2.912-14.167,6.171-27.247,7.083a1.305,1.305,0,0,0,.087,2.608h133.28a1.3,1.3,0,0,0,1.3-1.26A1.313,1.313,0,0,0,165.731,376.416Z" style="fill:#1a1a1a"/><path d="M183.852,317.577a1.276,1.276,0,0,0-1.478-.826c-38.067,7.04-49.583,23.293-58.839,36.329l-.609.826c-5.953,8.387-7.561,15.079-7.865,19.208a1.241,1.241,0,0,0,.347,1,1.4,1.4,0,0,0,.956.435h22.771a.546.546,0,0,0,.261-.044c.044,0,.044,0,.087-.043.044,0,.087-.044.174-.044a.154.154,0,0,0,.087-.043c.043,0,.087-.044.13-.087s.087-.043.087-.087l.087-.087h0c.043-.043.043-.087.087-.13,0-.044.043-.044.043-.087.044-.043.044-.087.087-.13,0-.044.044-.044.044-.087s.043-.131.043-.174v-.348s0-.478.044-1.347a46.589,46.589,0,0,1,4.476-16.47h0a10.622,10.622,0,0,1,.608-1.217c.043-.13.13-.217.174-.347.217-.391.391-.782.608-1.174a3.763,3.763,0,0,0,.261-.434c.13-.261.3-.478.435-.739.478-.782.956-1.564,1.477-2.3v-.043c11.3-16.557,34.417-29.811,34.678-29.985A1.131,1.131,0,0,0,183.852,317.577ZM125.1,355.427l.609-.826c7.648-10.777,16.9-23.814,42.282-31.679-8.734,4.65-20.859,12.863-28.811,25.726a90.668,90.668,0,0,0-9.734,23.292h-11.6C118.407,368.073,120.145,362.424,125.1,355.427Z" style="fill:#1a1a1a"/><path d="M91.16,370.332C86.119,347.561,70.823,332.96,58.872,324.7a99.055,99.055,0,0,0-24.9-12.559,1.316,1.316,0,0,0-1.043,2.39c.13.087,14.21,8.691,23.075,23.075,9.647,15.644,12.472,33.374,12.515,33.548,0,.044,0,.087.044.087,0,.043,0,.043.043.087a.228.228,0,0,0,.087.174v.043c.044.087.087.131.131.217h0l.043.044.13.13c.044.044.087.044.131.087l.043.044a1.233,1.233,0,0,0,.565.173h.087l7.3-.13c.043.174.13.3.173.478.478,1.26.826,2.216,1.7,2.216a2.575,2.575,0,0,0,.522-.087c.521-.173,1.086-.651.782-1.955-.044-.174-.087-.391-.174-.695l9.821-.131a1.3,1.3,0,0,0,1-.478A1.722,1.722,0,0,0,91.16,370.332Zm-11.907-.869c-.435-1.347-.956-3.042-1.608-5.127a89.506,89.506,0,0,0-21.206-35.5,80.615,80.615,0,0,0-9.6-8.344,98.266,98.266,0,0,1,10.6,6.388c11.255,7.779,25.6,21.424,30.767,42.457Z" style="fill:#1a1a1a"/><path d="M95.766,335.394c-12.341-24.9-30.593-35.808-31.375-36.286a1.272,1.272,0,0,0-1.651.3,1.371,1.371,0,0,0,0,1.7A117.606,117.606,0,0,1,82.208,335.7c3.085,8.822,5.128,25.161,6,33.027a1.606,1.606,0,0,0-.044.347,1.259,1.259,0,0,0,.218,1.043c.217,1.869.3,3.042.3,3.086a1.269,1.269,0,0,0,1.217,1.173l14.6.912h.087a1.3,1.3,0,0,0,1.26-1.043C105.935,373.766,108.5,361.12,95.766,335.394Zm7.649,37.242-6.649-.435c.391-2.39.3-8.691-3.477-25.248C90.16,333.221,81.86,320.1,75.646,311.71A95.742,95.742,0,0,1,93.42,336.524c6.431,12.95,8.734,22.38,9.6,27.985A36.7,36.7,0,0,1,103.415,372.636Z" style="fill:#1a1a1a"/><path d="M99.808,21.38a1.227,1.227,0,0,0-.913-.434L8.246,14.862A1.248,1.248,0,0,0,6.9,15.905L.033,50.974a1.114,1.114,0,0,0,.26,1.043,1.45,1.45,0,0,0,.956.478l18.339.7h.043a1.29,1.29,0,0,0,1.26-1.521L17.372,29.68l80.133,8.6a1.276,1.276,0,0,0,.956-.3,1.454,1.454,0,0,0,.478-.913l1.173-14.818A1.194,1.194,0,0,0,99.808,21.38Z" style="fill:#1a1a1a"/><circle cx="90.111" cy="29.252" r="3.607" transform="translate(55.59 117.479) rotate(-86.615)" style="fill:#f1dbfb"/><path d="M183.156,51.8a14.906,14.906,0,1,1,14.906-14.906A14.93,14.93,0,0,1,183.156,51.8Zm0-27.16a12.3,12.3,0,1,0,12.3,12.3A12.314,12.314,0,0,0,183.156,24.64Z" style="fill:#fff"/><circle cx="183.156" cy="23.988" r="6.605" style="fill:#1a1a1a"/><path d="M182.591.043c-.086,0-.173-.043-.26-.043H54.092A42.081,42.081,0,0,0,12.07,42.022V96.646a1.281,1.281,0,0,0,1.3,1.3H153.65c0,.087-.044.217-.044.3a2.431,2.431,0,0,0,2.434,2.434h12.037a2.431,2.431,0,0,0,2.434-2.434.637.637,0,0,0-.044-.3h20.555c0,.087-.043.217-.043.3a2.43,2.43,0,0,0,2.433,2.434h12.037a2.43,2.43,0,0,0,2.434-2.434.637.637,0,0,0-.044-.3h14.037a1.28,1.28,0,0,0,1.3-1.3V42.022A42.017,42.017,0,0,0,182.591.043ZM54.092,2.651H166.643a42.079,42.079,0,0,0-27.421,39.414V83.74H14.721V42.065A39.428,39.428,0,0,1,54.092,2.651ZM220.616,95.343H141.83V42.022a39.415,39.415,0,1,1,78.829,0V95.343Z" style="fill:#1a1a1a"/></g></g></svg>
