<?xml version="1.0" encoding="iso-8859-1" ?>
              <svg
                version="1.1"
                xmlns="http://www.w3.org/2000/svg"
                xmlns:xlink="http://www.w3.org/1999/xlink"
                viewBox="0 0 331.5 442"
                width="331.5"
                height="442"
              >
                <g transform="translate(116.08499999999997 61.980000000000004) scale(0.6033947447900937 0.6033947447900937)" ><defs>
    <clipPath id="clipPath_1cqBYalvjIMBcobuMKuVb">
    <rect x="0" y="0" width="331.1" height="331.1" />
    </clipPath></defs>  <g>  <g>   <g>    <g>     <g>      <circle cx="326.1" cy="5" r="5" fill="#383A48"/>     </g>    </g>   </g>   <g>    <g>     <g>      <circle cx="326.1" cy="29.7" r="5" fill="#383A48"/>     </g>    </g>   </g>   <g>    <g>     <g>      <circle cx="326.1" cy="54.4" r="5" fill="#383A48"/>     </g>    </g>   </g>   <g>    <g>     <g>      <circle cx="326.1" cy="79.1" r="5" fill="#383A48"/>     </g>    </g>   </g>   <g>    <g>     <g>      <circle cx="326.1" cy="103.8" r="5" fill="#383A48"/>     </g>    </g>   </g>   <g>    <g>     <g>      <circle cx="326.1" cy="128.5" r="5" fill="#383A48"/>     </g>    </g>   </g>   <g>    <g>     <g>      <circle cx="326.1" cy="153.2" r="5" fill="#383A48"/>     </g>    </g>   </g>   <g>    <g>     <g>      <circle cx="326.1" cy="177.9" r="5" fill="#383A48"/>     </g>    </g>   </g>   <g>    <g>     <g>      <circle cx="326.1" cy="202.6" r="5" fill="#383A48"/>     </g>    </g>   </g>   <g>    <g>     <g>      <circle cx="326.1" cy="227.3" r="5" fill="#383A48"/>     </g>    </g>   </g>   <g>    <g>     <g>      <circle cx="326.1" cy="252" r="5" fill="#383A48"/>     </g>    </g>   </g>   <g>    <g>     <g>      <circle cx="326.1" cy="276.7" r="5" fill="#383A48"/>     </g>    </g>   </g>   <g>    <g>     <g>      <circle cx="326.1" cy="301.4" r="5" fill="#383A48"/>     </g>    </g>   </g>   <g>    <g>     <g>      <circle cx="326.1" cy="326.1" r="5" fill="#383A48"/>     </g>    </g>   </g>   <g>    <g>     <g>      <circle cx="301.4" cy="5" r="5" fill="#383A48"/>     </g>    </g>   </g>   <g>    <g>     <g>      <circle cx="301.4" cy="29.7" r="5" fill="#383A48"/>     </g>    </g>   </g>   <g>    <g>     <g>      <circle cx="301.4" cy="54.4" r="5" fill="#383A48"/>     </g>    </g>   </g>   <g>    <g>     <g>      <circle cx="301.4" cy="79.1" r="5" fill="#383A48"/>     </g>    </g>   </g>   <g>    <g>     <g>      <circle cx="301.4" cy="103.8" r="5" fill="#383A48"/>     </g>    </g>   </g>   <g>    <g>     <g>      <circle cx="301.4" cy="128.5" r="5" fill="#383A48"/>     </g>    </g>   </g>   <g>    <g>     <g>      <circle cx="301.4" cy="153.2" r="5" fill="#383A48"/>     </g>    </g>   </g>   <g>    <g>     <g>      <circle cx="301.4" cy="177.9" r="5" fill="#383A48"/>     </g>    </g>   </g>   <g>    <g>     <g>      <circle cx="301.4" cy="202.6" r="5" fill="#383A48"/>     </g>    </g>   </g>   <g>    <g>     <g>      <circle cx="301.4" cy="227.3" r="5" fill="#383A48"/>     </g>    </g>   </g>   <g>    <g>     <g>      <circle cx="301.4" cy="252" r="5" fill="#383A48"/>     </g>    </g>   </g>   <g>    <g>     <g>      <circle cx="301.4" cy="276.7" r="5" fill="#383A48"/>     </g>    </g>   </g>   <g>    <g>     <g>      <circle cx="301.4" cy="301.4" r="5" fill="#383A48"/>     </g>    </g>   </g>   <g>    <g>     <g>      <circle cx="301.4" cy="326.1" r="5" fill="#383A48"/>     </g>    </g>   </g>   <g>    <g>     <g>      <circle cx="276.7" cy="5" r="5" fill="#383A48"/>     </g>    </g>   </g>   <g>    <g>     <g>      <circle cx="276.7" cy="29.7" r="5" fill="#383A48"/>     </g>    </g>   </g>   <g>    <g>     <g>      <circle cx="276.7" cy="54.4" r="5" fill="#383A48"/>     </g>    </g>   </g>   <g>    <g>     <g>      <circle cx="276.7" cy="79.1" r="5" fill="#383A48"/>     </g>    </g>   </g>   <g>    <g>     <g>      <circle cx="276.7" cy="103.8" r="5" fill="#383A48"/>     </g>    </g>   </g>   <g>    <g>     <g>      <circle cx="276.7" cy="128.5" r="5" fill="#383A48"/>     </g>    </g>   </g>   <g>    <g>     <g>      <circle cx="276.7" cy="153.2" r="5" fill="#383A48"/>     </g>    </g>   </g>   <g>    <g>     <g>      <circle cx="276.7" cy="177.9" r="5" fill="#383A48"/>     </g>    </g>   </g>   <g>    <g>     <g>      <circle cx="276.7" cy="202.6" r="5" fill="#383A48"/>     </g>    </g>   </g>   <g>    <g>     <g>      <circle cx="276.7" cy="227.3" r="5" fill="#383A48"/>     </g>    </g>   </g>   <g>    <g>     <g>      <circle cx="276.7" cy="252" r="5" fill="#383A48"/>     </g>    </g>   </g>   <g>    <g>     <g>      <circle cx="276.7" cy="276.7" r="5" fill="#383A48"/>     </g>    </g>   </g>   <g>    <g>     <g>      <circle cx="276.7" cy="301.4" r="5" fill="#383A48"/>     </g>    </g>   </g>   <g>    <g>     <g>      <circle cx="276.7" cy="326.1" r="5" fill="#383A48"/>     </g>    </g>   </g>   <g>    <g>     <g>      <circle cx="252" cy="5" r="5" fill="#383A48"/>     </g>    </g>   </g>   <g>    <g>     <g>      <circle cx="252" cy="29.7" r="5" fill="#383A48"/>     </g>    </g>   </g>   <g>    <g>     <g>      <circle cx="252" cy="54.4" r="5" fill="#383A48"/>     </g>    </g>   </g>   <g>    <g>     <g>      <circle cx="252" cy="79.1" r="5" fill="#383A48"/>     </g>    </g>   </g>   <g>    <g>     <g>      <circle cx="252" cy="103.8" r="5" fill="#383A48"/>     </g>    </g>   </g>   <g>    <g>     <g>      <circle cx="252" cy="128.5" r="5" fill="#383A48"/>     </g>    </g>   </g>   <g>    <g>     <g>      <circle cx="252" cy="153.2" r="5" fill="#383A48"/>     </g>    </g>   </g>   <g>    <g>     <g>      <circle cx="252" cy="177.9" r="5" fill="#383A48"/>     </g>    </g>   </g>   <g>    <g>     <g>      <circle cx="252" cy="202.6" r="5" fill="#383A48"/>     </g>    </g>   </g>   <g>    <g>     <g>      <circle cx="252" cy="227.3" r="5" fill="#383A48"/>     </g>    </g>   </g>   <g>    <g>     <g>      <circle cx="252" cy="252" r="5" fill="#383A48"/>     </g>    </g>   </g>   <g>    <g>     <g>      <circle cx="252" cy="276.7" r="5" fill="#383A48"/>     </g>    </g>   </g>   <g>    <g>     <g>      <circle cx="252" cy="301.4" r="5" fill="#383A48"/>     </g>    </g>   </g>   <g>    <g>     <g>      <circle cx="252" cy="326.1" r="5" fill="#383A48"/>     </g>    </g>   </g>   <g>    <g>     <g>      <circle cx="227.3" cy="5" r="5" fill="#383A48"/>     </g>    </g>   </g>   <g>    <g>     <g>      <circle cx="227.3" cy="29.7" r="5" fill="#383A48"/>     </g>    </g>   </g>   <g>    <g>     <g>      <circle cx="227.3" cy="54.4" r="5" fill="#383A48"/>     </g>    </g>   </g>   <g>    <g>     <g>      <circle cx="227.3" cy="79.1" r="5" fill="#383A48"/>     </g>    </g>   </g>   <g>    <g>     <g>      <circle cx="227.3" cy="103.8" r="5" fill="#383A48"/>     </g>    </g>   </g>   <g>    <g>     <g>      <circle cx="227.3" cy="128.5" r="5" fill="#383A48"/>     </g>    </g>   </g>   <g>    <g>     <g>      <circle cx="227.3" cy="153.2" r="5" fill="#383A48"/>     </g>    </g>   </g>   <g>    <g>     <g>      <circle cx="227.3" cy="177.9" r="5" fill="#383A48"/>     </g>    </g>   </g>   <g>    <g>     <g>      <circle cx="227.3" cy="202.6" r="5" fill="#383A48"/>     </g>    </g>   </g>   <g>    <g>     <g>      <circle cx="227.3" cy="227.3" r="5" fill="#383A48"/>     </g>    </g>   </g>   <g>    <g>     <g>      <circle cx="227.3" cy="252" r="5" fill="#383A48"/>     </g>    </g>   </g>   <g>    <g>     <g>      <circle cx="227.3" cy="276.7" r="5" fill="#383A48"/>     </g>    </g>   </g>   <g>    <g>     <g>      <circle cx="227.3" cy="301.4" r="5" fill="#383A48"/>     </g>    </g>   </g>   <g>    <g>     <g>      <circle cx="227.3" cy="326.1" r="5" fill="#383A48"/>     </g>    </g>   </g>   <g>    <g>     <g>      <circle cx="202.6" cy="5" r="5" fill="#383A48"/>     </g>    </g>   </g>   <g>    <g>     <g>      <circle cx="202.6" cy="29.7" r="5" fill="#383A48"/>     </g>    </g>   </g>   <g>    <g>     <g>      <circle cx="202.6" cy="54.4" r="5" fill="#383A48"/>     </g>    </g>   </g>   <g>    <g>     <g>      <circle cx="202.6" cy="79.1" r="5" fill="#383A48"/>     </g>    </g>   </g>   <g>    <g>     <g>      <circle cx="202.6" cy="103.8" r="5" fill="#383A48"/>     </g>    </g>   </g>   <g>    <g>     <g>      <circle cx="202.6" cy="128.5" r="5" fill="#383A48"/>     </g>    </g>   </g>   <g>    <g>     <g>      <circle cx="202.6" cy="153.2" r="5" fill="#383A48"/>     </g>    </g>   </g>   <g>    <g>     <g>      <circle cx="202.6" cy="177.9" r="5" fill="#383A48"/>     </g>    </g>   </g>   <g>    <g>     <g>      <circle cx="202.6" cy="202.6" r="5" fill="#383A48"/>     </g>    </g>   </g>   <g>    <g>     <g>      <circle cx="202.6" cy="227.3" r="5" fill="#383A48"/>     </g>    </g>   </g>   <g>    <g>     <g>      <circle cx="202.6" cy="252" r="5" fill="#383A48"/>     </g>    </g>   </g>   <g>    <g>     <g>      <circle cx="202.6" cy="276.7" r="5" fill="#383A48"/>     </g>    </g>   </g>   <g>    <g>     <g>      <circle cx="202.6" cy="301.4" r="5" fill="#383A48"/>     </g>    </g>   </g>   <g>    <g>     <g>      <circle cx="202.6" cy="326.1" r="5" fill="#383A48"/>     </g>    </g>   </g>   <g>    <g>     <g>      <circle cx="177.9" cy="5" r="5" fill="#383A48"/>     </g>    </g>   </g>   <g>    <g>     <g>      <circle cx="177.9" cy="29.7" r="5" fill="#383A48"/>     </g>    </g>   </g>   <g>    <g>     <g>      <circle cx="177.9" cy="54.4" r="5" fill="#383A48"/>     </g>    </g>   </g>   <g>    <g>     <g>      <circle cx="177.9" cy="79.1" r="5" fill="#383A48"/>     </g>    </g>   </g>   <g>    <g>     <g>      <circle cx="177.9" cy="103.8" r="5" fill="#383A48"/>     </g>    </g>   </g>   <g>    <g>     <g>      <circle cx="177.9" cy="128.5" r="5" fill="#383A48"/>     </g>    </g>   </g>   <g>    <g>     <g>      <circle cx="177.9" cy="153.2" r="5" fill="#383A48"/>     </g>    </g>   </g>   <g>    <g>     <g>      <circle cx="177.9" cy="177.9" r="5" fill="#383A48"/>     </g>    </g>   </g>   <g>    <g>     <g>      <circle cx="177.9" cy="202.6" r="5" fill="#383A48"/>     </g>    </g>   </g>   <g>    <g>     <g>      <circle cx="177.9" cy="227.3" r="5" fill="#383A48"/>     </g>    </g>   </g>   <g>    <g>     <g>      <circle cx="177.9" cy="252" r="5" fill="#383A48"/>     </g>    </g>   </g>   <g>    <g>     <g>      <circle cx="177.9" cy="276.7" r="5" fill="#383A48"/>     </g>    </g>   </g>   <g>    <g>     <g>      <circle cx="177.9" cy="301.4" r="5" fill="#383A48"/>     </g>    </g>   </g>   <g>    <g>     <g>      <circle cx="177.9" cy="326.1" r="5" fill="#383A48"/>     </g>    </g>   </g>   <g>    <g>     <g>      <circle cx="153.2" cy="5" r="5" fill="#383A48"/>     </g>    </g>   </g>   <g>    <g>     <g>      <circle cx="153.2" cy="29.7" r="5" fill="#383A48"/>     </g>    </g>   </g>   <g>    <g>     <g>      <circle cx="153.2" cy="54.4" r="5" fill="#383A48"/>     </g>    </g>   </g>   <g>    <g>     <g>      <circle cx="153.2" cy="79.1" r="5" fill="#383A48"/>     </g>    </g>   </g>   <g>    <g>     <g>      <circle cx="153.2" cy="103.8" r="5" fill="#383A48"/>     </g>    </g>   </g>   <g>    <g>     <g>      <circle cx="153.2" cy="128.5" r="5" fill="#383A48"/>     </g>    </g>   </g>   <g>    <g>     <g>      <circle cx="153.2" cy="153.2" r="5" fill="#383A48"/>     </g>    </g>   </g>   <g>    <g>     <g>      <circle cx="153.2" cy="177.9" r="5" fill="#383A48"/>     </g>    </g>   </g>   <g>    <g>     <g>      <circle cx="153.2" cy="202.6" r="5" fill="#383A48"/>     </g>    </g>   </g>   <g>    <g>     <g>      <circle cx="153.2" cy="227.3" r="5" fill="#383A48"/>     </g>    </g>   </g>   <g>    <g>     <g>      <circle cx="153.2" cy="252" r="5" fill="#383A48"/>     </g>    </g>   </g>   <g>    <g>     <g>      <circle cx="153.2" cy="276.7" r="5" fill="#383A48"/>     </g>    </g>   </g>   <g>    <g>     <g>      <circle cx="153.2" cy="301.4" r="5" fill="#383A48"/>     </g>    </g>   </g>   <g>    <g>     <g>      <circle cx="153.2" cy="326.1" r="5" fill="#383A48"/>     </g>    </g>   </g>   <g>    <g>     <g>      <circle cx="128.5" cy="5" r="5" fill="#383A48"/>     </g>    </g>   </g>   <g>    <g>     <g>      <circle cx="128.5" cy="29.7" r="5" fill="#383A48"/>     </g>    </g>   </g>   <g>    <g>     <g>      <circle cx="128.5" cy="54.4" r="5" fill="#383A48"/>     </g>    </g>   </g>   <g>    <g>     <g>      <circle cx="128.5" cy="79.1" r="5" fill="#383A48"/>     </g>    </g>   </g>   <g>    <g>     <g>      <circle cx="128.5" cy="103.8" r="5" fill="#383A48"/>     </g>    </g>   </g>   <g>    <g>     <g>      <circle cx="128.5" cy="128.5" r="5" fill="#383A48"/>     </g>    </g>   </g>   <g>    <g>     <g>      <circle cx="128.5" cy="153.2" r="5" fill="#383A48"/>     </g>    </g>   </g>   <g>    <g>     <g>      <circle cx="128.5" cy="177.9" r="5" fill="#383A48"/>     </g>    </g>   </g>   <g>    <g>     <g>      <circle cx="128.5" cy="202.6" r="5" fill="#383A48"/>     </g>    </g>   </g>   <g>    <g>     <g>      <circle cx="128.5" cy="227.3" r="5" fill="#383A48"/>     </g>    </g>   </g>   <g>    <g>     <g>      <circle cx="128.5" cy="252" r="5" fill="#383A48"/>     </g>    </g>   </g>   <g>    <g>     <g>      <circle cx="128.5" cy="276.7" r="5" fill="#383A48"/>     </g>    </g>   </g>   <g>    <g>     <g>      <circle cx="128.5" cy="301.4" r="5" fill="#383A48"/>     </g>    </g>   </g>   <g>    <g>     <g>      <circle cx="128.5" cy="326.1" r="5" fill="#383A48"/>     </g>    </g>   </g>   <g>    <g>     <g>      <circle cx="103.8" cy="5" r="5" fill="#383A48"/>     </g>    </g>   </g>   <g>    <g>     <g>      <circle cx="103.8" cy="29.7" r="5" fill="#383A48"/>     </g>    </g>   </g>   <g>    <g>     <g>      <circle cx="103.8" cy="54.4" r="5" fill="#383A48"/>     </g>    </g>   </g>   <g>    <g>     <g>      <circle cx="103.8" cy="79.1" r="5" fill="#383A48"/>     </g>    </g>   </g>   <g>    <g>     <g>      <circle cx="103.8" cy="103.8" r="5" fill="#383A48"/>     </g>    </g>   </g>   <g>    <g>     <g>      <circle cx="103.8" cy="128.5" r="5" fill="#383A48"/>     </g>    </g>   </g>   <g>    <g>     <g>      <circle cx="103.8" cy="153.2" r="5" fill="#383A48"/>     </g>    </g>   </g>   <g>    <g>     <g>      <circle cx="103.8" cy="177.9" r="5" fill="#383A48"/>     </g>    </g>   </g>   <g>    <g>     <g>      <circle cx="103.8" cy="202.6" r="5" fill="#383A48"/>     </g>    </g>   </g>   <g>    <g>     <g>      <circle cx="103.8" cy="227.3" r="5" fill="#383A48"/>     </g>    </g>   </g>   <g>    <g>     <g>      <circle cx="103.8" cy="252" r="5" fill="#383A48"/>     </g>    </g>   </g>   <g>    <g>     <g>      <circle cx="103.8" cy="276.7" r="5" fill="#383A48"/>     </g>    </g>   </g>   <g>    <g>     <g>      <circle cx="103.8" cy="301.4" r="5" fill="#383A48"/>     </g>    </g>   </g>   <g>    <g>     <g>      <circle cx="103.8" cy="326.1" r="5" fill="#383A48"/>     </g>    </g>   </g>   <g>    <g>     <g>      <circle cx="79.1" cy="5" r="5" fill="#383A48"/>     </g>    </g>   </g>   <g>    <g>     <g>      <circle cx="79.1" cy="29.7" r="5" fill="#383A48"/>     </g>    </g>   </g>   <g>    <g>     <g>      <circle cx="79.1" cy="54.4" r="5" fill="#383A48"/>     </g>    </g>   </g>   <g>    <g>     <g>      <circle cx="79.1" cy="79.1" r="5" fill="#383A48"/>     </g>    </g>   </g>   <g>    <g>     <g>      <circle cx="79.1" cy="103.8" r="5" fill="#383A48"/>     </g>    </g>   </g>   <g>    <g>     <g>      <circle cx="79.1" cy="128.5" r="5" fill="#383A48"/>     </g>    </g>   </g>   <g>    <g>     <g>      <circle cx="79.1" cy="153.2" r="5" fill="#383A48"/>     </g>    </g>   </g>   <g>    <g>     <g>      <circle cx="79.1" cy="177.9" r="5" fill="#383A48"/>     </g>    </g>   </g>   <g>    <g>     <g>      <circle cx="79.1" cy="202.6" r="5" fill="#383A48"/>     </g>    </g>   </g>   <g>    <g>     <g>      <circle cx="79.1" cy="227.3" r="5" fill="#383A48"/>     </g>    </g>   </g>   <g>    <g>     <g>      <circle cx="79.1" cy="252" r="5" fill="#383A48"/>     </g>    </g>   </g>   <g>    <g>     <g>      <circle cx="79.1" cy="276.7" r="5" fill="#383A48"/>     </g>    </g>   </g>   <g>    <g>     <g>      <circle cx="79.1" cy="301.4" r="5" fill="#383A48"/>     </g>    </g>   </g>   <g>    <g>     <g>      <circle cx="79.1" cy="326.1" r="5" fill="#383A48"/>     </g>    </g>   </g>   <g>    <g>     <g>      <circle cx="54.4" cy="5" r="5" fill="#383A48"/>     </g>    </g>   </g>   <g>    <g>     <g>      <circle cx="54.4" cy="29.7" r="5" fill="#383A48"/>     </g>    </g>   </g>   <g>    <g>     <g>      <circle cx="54.4" cy="54.4" r="5" fill="#383A48"/>     </g>    </g>   </g>   <g>    <g>     <g>      <circle cx="54.4" cy="79.1" r="5" fill="#383A48"/>     </g>    </g>   </g>   <g>    <g>     <g>      <circle cx="54.4" cy="103.8" r="5" fill="#383A48"/>     </g>    </g>   </g>   <g>    <g>     <g>      <circle cx="54.4" cy="128.5" r="5" fill="#383A48"/>     </g>    </g>   </g>   <g>    <g>     <g>      <circle cx="54.4" cy="153.2" r="5" fill="#383A48"/>     </g>    </g>   </g>   <g>    <g>     <g>      <circle cx="54.4" cy="177.9" r="5" fill="#383A48"/>     </g>    </g>   </g>   <g>    <g>     <g>      <circle cx="54.4" cy="202.6" r="5" fill="#383A48"/>     </g>    </g>   </g>   <g>    <g>     <g>      <circle cx="54.4" cy="227.3" r="5" fill="#383A48"/>     </g>    </g>   </g>   <g>    <g>     <g>      <circle cx="54.4" cy="252" r="5" fill="#383A48"/>     </g>    </g>   </g>   <g>    <g>     <g>      <circle cx="54.4" cy="276.7" r="5" fill="#383A48"/>     </g>    </g>   </g>   <g>    <g>     <g>      <circle cx="54.4" cy="301.4" r="5" fill="#383A48"/>     </g>    </g>   </g>   <g>    <g>     <g>      <circle cx="54.4" cy="326.1" r="5" fill="#383A48"/>     </g>    </g>   </g>   <g>    <g>     <g>      <circle cx="29.7" cy="5" r="5" fill="#383A48"/>     </g>    </g>   </g>   <g>    <g>     <g>      <circle cx="29.7" cy="29.7" r="5" fill="#383A48"/>     </g>    </g>   </g>   <g>    <g>     <g>      <circle cx="29.7" cy="54.4" r="5" fill="#383A48"/>     </g>    </g>   </g>   <g>    <g>     <g>      <circle cx="29.7" cy="79.1" r="5" fill="#383A48"/>     </g>    </g>   </g>   <g>    <g>     <g>      <circle cx="29.7" cy="103.8" r="5" fill="#383A48"/>     </g>    </g>   </g>   <g>    <g>     <g>      <circle cx="29.7" cy="128.5" r="5" fill="#383A48"/>     </g>    </g>   </g>   <g>    <g>     <g>      <circle cx="29.7" cy="153.2" r="5" fill="#383A48"/>     </g>    </g>   </g>   <g>    <g>     <g>      <circle cx="29.7" cy="177.9" r="5" fill="#383A48"/>     </g>    </g>   </g>   <g>    <g>     <g>      <circle cx="29.7" cy="202.6" r="5" fill="#383A48"/>     </g>    </g>   </g>   <g>    <g>     <g>      <circle cx="29.7" cy="227.3" r="5" fill="#383A48"/>     </g>    </g>   </g>   <g>    <g>     <g>      <circle cx="29.7" cy="252" r="5" fill="#383A48"/>     </g>    </g>   </g>   <g>    <g>     <g>      <circle cx="29.7" cy="276.7" r="5" fill="#383A48"/>     </g>    </g>   </g>   <g>    <g>     <g>      <circle cx="29.7" cy="301.4" r="5" fill="#383A48"/>     </g>    </g>   </g>   <g>    <g>     <g>      <circle cx="29.7" cy="326.1" r="5" fill="#383A48"/>     </g>    </g>   </g>   <g>    <g>     <g>      <circle cx="5" cy="5" r="5" fill="#383A48"/>     </g>    </g>   </g>   <g>    <g>     <g>      <circle cx="5" cy="29.7" r="5" fill="#383A48"/>     </g>    </g>   </g>   <g>    <g>     <g>      <circle cx="5" cy="54.4" r="5" fill="#383A48"/>     </g>    </g>   </g>   <g>    <g>     <g>      <circle cx="5" cy="79.1" r="5" fill="#383A48"/>     </g>    </g>   </g>   <g>    <g>     <g>      <circle cx="5" cy="103.8" r="5" fill="#383A48"/>     </g>    </g>   </g>   <g>    <g>     <g>      <circle cx="5" cy="128.5" r="5" fill="#383A48"/>     </g>    </g>   </g>   <g>    <g>     <g>      <circle cx="5" cy="153.2" r="5" fill="#383A48"/>     </g>    </g>   </g>   <g>    <g>     <g>      <circle cx="5" cy="177.9" r="5" fill="#383A48"/>     </g>    </g>   </g>   <g>    <g>     <g>      <circle cx="5" cy="202.6" r="5" fill="#383A48"/>     </g>    </g>   </g>   <g>    <g>     <g>      <circle cx="5" cy="227.3" r="5" fill="#383A48"/>     </g>    </g>   </g>   <g>    <g>     <g>      <circle cx="5" cy="252" r="5" fill="#383A48"/>     </g>    </g>   </g>   <g>    <g>     <g>      <circle cx="5" cy="276.7" r="5" fill="#383A48"/>     </g>    </g>   </g>   <g>    <g>     <g>      <circle cx="5" cy="301.4" r="5" fill="#383A48"/>     </g>    </g>   </g>   <g>    <g>     <g>      <circle cx="5" cy="326.1" r="5" fill="#383A48"/>     </g>    </g>   </g>  </g> </g> </g><g transform="translate(11.000000000000014 35.127999999999986) scale(0.4258322599562272 0.4258774948382657)" ><defs>
    <clipPath id="clipPath_GAxbp4olMj5EM7sny5jes">
    <rect x="0" y="0" width="541.127" height="784.62" />
    </clipPath></defs><title>postman</title><g id="Layer_2GAxbp4olMj5EM7sny5jes" data-name="Layer 2"><g id="postmanGAxbp4olMj5EM7sny5jes"><path d="M253.352,44.346c-1.173.7-14.861,14.6-14.861,27.812S241.272,94.885,249.4,95.8l8.126.912-3.259,15.775L277.471,125.7l20.163-12.081L287.205,82.978s5.779,2.086,9.256.7,5.345-6.736,3.259-10-10-2.086-10-2.086l.218-13.906-12.3-13.472s-15.557-6.735-16.469-6.474-5.563,1.607-5.563,1.607Z" fill="rgb(241,219,251)"/><path d="M74.053,132.909S69.664,121.524,61.972,119a78.169,78.169,0,0,0-15.992-3.259s-19.946-4.389-20.859-1.868c-.912,2.563,8.822,6.735,8.822,6.735s-5.78,3.259-7.648,3c-1.869-.218-22.25-5.345-23.206-2.3-.913,3,19.729,9.038,19.729,9.038s20.424-.912,21.337.218c.913,1.173,7.17,19.033,7.866,19.033s10.212-3.954,13.471-6.735C68.708,140.123,74.053,132.909,74.053,132.909Z" fill="rgb(241,219,251)"/><path d="M466.939,171.672s6.736,10.69,10.69,14.384a41.665,41.665,0,0,0,7.866,5.78s10.429-15.558,12.515-15.3c2.086.217,17.165,3.955,17.165,3.955l23.9-1.391s-.913-4.389-5.084-5.084-16.948-.7-16.948-.7l-8.126-5.345s12.3-1.608,11.124-3.693-13.688-2.564-19.729-2.782c0,0-11.385-2.781-15.079-.912C481.584,162.372,466.939,171.672,466.939,171.672Z" fill="rgb(241,219,251)"/><path d="M105.124,294.262h0c-10.6-.305-21.163-9.039-31.462-25.944a159.363,159.363,0,0,1-12.211-25.03,1.292,1.292,0,1,1,2.433-.869c.174.478,18.078,48.583,41.24,49.235a1.3,1.3,0,0,1,0,2.608Z" fill="#1a1a1a"/><path d="M437.693,296.347a1.232,1.232,0,0,1-.956-.434,1.3,1.3,0,0,1,.087-1.825c25.943-23.206,43.369-58.405,43.543-58.753a1.3,1.3,0,0,1,2.347,1.13c-.174.348-17.817,35.982-44.152,59.535A1.114,1.114,0,0,1,437.693,296.347Z" fill="#1a1a1a"/><path d="M275.6,1.194c5.084-.3,14.992,4.041,20.25,13.124s11.734,24.9,11.907,35.416-3.563,21.033-8.213,22.9l-5.562-3.259S293.81,58.686,279.47,43.39c-14.384-15.3-14.993-8.648-14.993-8.648l-8.517-.608s-13.906-.783-13.472-1.391c.478-.608-2.781-9.126,4.172-9.43a24.1,24.1,0,0,1,12.689,3.39s-.912-13.6,4.954-19.642S275.6,1.194,275.6,1.194Z" fill="rgb(241,219,251)"/><path d="M268.823,25.66a6.1,6.1,0,0,1,4.65-.739,4.8,4.8,0,0,1,2.824,4,12.508,12.508,0,0,1-.652,5.041,4.166,4.166,0,0,1-1.39,2.52A3.115,3.115,0,0,1,270.648,36C267.3,33.221,263.608,28.4,268.823,25.66Z" fill="#fff"/><path d="M252.44,51.6a10.288,10.288,0,0,0-3.433-1.651l-2.651,3.65a10.416,10.416,0,0,0,2.781,2.738c2.782,1.912,5.736,2.433,6.649,1.13S255.221,53.515,252.44,51.6Z" fill="#fff"/><path d="M253.179,50.56a13.193,13.193,0,0,0-3.868-1.869,1.308,1.308,0,1,0-.695,2.521,10.312,10.312,0,0,1,3.042,1.477c.043.044.087.044.13.087a2.121,2.121,0,0,0-1.782.7,1.944,1.944,0,0,0-.087,1.781.042.042,0,0,1-.043-.043,9.451,9.451,0,0,1-2.477-2.434,1.314,1.314,0,0,0-2.173,1.478,11.744,11.744,0,0,0,3.129,3.085,10.425,10.425,0,0,0,5.606,2.13,3.392,3.392,0,0,0,2.868-1.261C258.22,56.253,256.7,53.037,253.179,50.56Z" fill="#1a1a1a"/><path d="M300.024,20.184c3.477,7.822,6.3,14.6,7.605,23.032,1.3,8.474.652,17.426-3.3,25.031a8.7,8.7,0,0,1-2.346,3.085,3.576,3.576,0,0,1-3.694.478,6.071,6.071,0,0,1-1.825-1.955c-4.606-7.04-9.213-14.124-12.081-21.989a4.744,4.744,0,0,0,6.866-5.65c6.866,1.391,9-4.649,9.126-6.518.391-7.127-.695-12.124-2.26-18.382Z" fill="#fff"/><path d="M316.711,126.13s27.2,8.822,45.151,25.031c17.948,16.252,35.721,50.1,40.067,74.049l1.39,1.564L467.2,171.889s2,5.737,10.82,14.21c3.651,3.52,13.124,9.43,13.124,9.43s-4.085,6.215-7.127,10.343c-1.781,2.434,4.476,3.085,4.476,3.085l-25.682,37.59s-27.378,35.112-34.331,40.675-25.378,19.946-40.674,12.689-32.158-28.768-32.158-28.768l-12.428,54.1-2.434,6.431,17.6,109.509L403.71,714.4l-16.382-2.173-36.677-4.128-31.984-89.563s-18.556-53.495-25.987-80.394-19.772-69.269-19.772-69.269l1.564,61.838,2.477,170.435L241.1,707.268l-12.081,2.477L210.2,619.53,186.387,496.158s-13.3-92.778-13.3-116.592S175.87,319.9,175.87,319.9l9.6-74.832s-38.328,33.722-57.84,34.635c-19.468.912-28.464-4.042-50.713-40.805a439.071,439.071,0,0,1-34.33-70.53,48.517,48.517,0,0,0,11.3-3.824l-6.736-13.3,16.253-7.171,11.038-10.69,56.015,71.746s7.431-21.337,29.984-47.628,57.84-36.807,82.263-37.111l11.429-7.127,23.2,12.689,20.425-12.08Z" fill="#fff"/><path d="M277.688,126.217l-27.16,22.163s7.17,18.077,11.82,23.422,14.6,18.165,14.6,18.165,10.212-7.257,16.687-16.991a192.092,192.092,0,0,0,11.3-19.642Z" fill="#1a1a1a"/><path d="M340.873,331.721s-8.3.869-25.509,3.129C224.976,346.583,175.87,319.9,175.87,319.9s-2.781,35.894-2.781,59.665c0,23.814,13.3,116.592,13.3,116.592L210.2,619.53l18.86,90.3,12.08-2.477,35.852-6.127-2.477-170.435-1.565-61.838s12.385,42.37,19.773,69.269c7.431,26.9,25.986,80.394,25.986,80.394l31.984,89.563,36.677,4.128,16.383,2.173L358.429,441.273Z" fill="rgb(241,219,251)"/><path d="M330.791,469.868c5.3,18.208,10.082,36.546,14.688,54.928q6.844,27.573,13.124,55.32,6.258,27.7,11.95,55.58c3.738,18.556,7.345,37.2,10.343,55.928-5.3-18.208-10.082-36.547-14.688-54.929q-6.845-27.573-13.124-55.319-6.258-27.7-11.95-55.581C337.4,507.2,333.833,488.6,330.791,469.868Z" fill="#fff"/><path d="M81.831,142.687s-9.343,4.432,5.128,25.422c52.234,75.83,63.837,56.579,63.837,56.579Z" fill="rgb(241,219,251)"/><path d="M379.505,241.636s9.517,9.734,33.635-8.517c73.4-55.58,53.5-59.144,53.5-59.144Z" fill="rgb(241,219,251)"/><path d="M316.19,125.522l-2.564,6.866s24.292,8.43,51.5,35.243c25.944,25.6,30.289,66.574,30.289,66.574l7.257-7.126s-11.3-42.37-27.377-61.708C359.255,146.076,332.486,130,316.19,125.522Z" fill="rgb(241,219,251)"/><polygon points="291.855 118.221 313.626 132.388 316.711 126.13 297.634 113.658 291.855 118.221" fill="rgb(241,219,251)"/><polygon points="243.445 125.218 258.22 115.918 254.265 112.528 242.662 119.786 243.445 125.218" fill="rgb(241,219,251)"/><path d="M137.5,211.956s17.469-34.982,39.892-53.973c38.5-32.635,66.01-32.765,66.01-32.765l-.782-4.781s-38.85.218-65.575,21.946c-8.344,6.822-41.762,39.892-47.324,61.838Z" fill="rgb(241,219,251)"/><polygon points="283.902 143.947 288.465 135.604 277.775 124.392 264.695 135.777 268.997 143.773 262.609 173.628 276.819 191.923 289.638 180.146 283.902 143.947" fill="rgb(241,219,251)"/><polygon points="352.432 286.179 362.862 326.202 357.995 323.594 343.611 322.899 352.432 286.179" fill="#fff"/><path d="M362.862,327.505a1,1,0,0,1-.609-.173l-4.606-2.477-14.123-.7a1.294,1.294,0,0,1-1.217-1.608l8.822-36.72a1.3,1.3,0,0,1,1.26-1,1.267,1.267,0,0,1,1.26.956l10.43,40.066a1.24,1.24,0,0,1-.478,1.347A.894.894,0,0,1,362.862,327.505Zm-17.6-5.823,12.82.609a.954.954,0,0,1,.565.174l2.216,1.216-8.344-32.114Z" fill="#1a1a1a"/><path d="M491.535,196.051a1.284,1.284,0,0,1-1.043-2.042c.174-.826-1.477-3.694-2.26-4.52a1.344,1.344,0,0,1-.478-1.477,1.3,1.3,0,0,1,1.652-.826c1.086.348,3,3.737,3.433,5.258a3.343,3.343,0,0,1-.261,3.085A1.3,1.3,0,0,1,491.535,196.051Z" fill="#1a1a1a"/><path d="M279.426,356.056l-3.954-21.424a1.573,1.573,0,0,0-.174-.478c-.348-.521-34.9-53.407-50.887-107.9-9.561-32.5-13.3-57.84-14.775-73.354-1.608-16.817-.956-26.03-.956-26.16a1.286,1.286,0,0,0-.522-1.13c-.13-.087-3.694-2.608-9.43,0-5.649,2.564-6.518,6.779-6.562,7v.217c0,.478-1.39,48.845,18.86,113.03,10.6,33.591,28.029,62.1,40.762,80.046a281.949,281.949,0,0,0,25.422,31.331,1.325,1.325,0,0,0,.912.392,1.532,1.532,0,0,0,.609-.131A1.339,1.339,0,0,0,279.426,356.056Z" fill="#1a1a1a"/><path d="M426.09,759.328a9.768,9.768,0,0,0,1.13-.087,6,6,0,0,0,4.563-3.911,5.167,5.167,0,0,0-.087-4.171c-.826-1.826-2.781-3.607-5.823-5.259a12.941,12.941,0,0,0,7.822-2.39,7.736,7.736,0,0,0,2.477-8c-1.521-5.823-8.039-7.3-10.777-7.648-10.169-1.347-26.291,1.3-30.81,2.13l-4.65-15.862,13.645,1.608h.174a1.347,1.347,0,0,0,.956-.391,1.329,1.329,0,0,0,.348-1.13L342.307,331.5a1.3,1.3,0,0,0-2.564.392l62.49,381.022-36.677-4.345-103.86-335c0-.044-.043-.087-.043-.13s0-.044-.044-.087-.043-.087-.087-.131a.909.909,0,0,0-.174-.217h0a.6.6,0,0,0-.173-.13h0a.33.33,0,0,0-.174-.087h0a.261.261,0,0,0-.174-.044h-.044c-.043,0-.13-.043-.173-.043h-.218L220.5,374.873a1.3,1.3,0,0,0,.087,2.607h.086l9.039-.478a32.55,32.55,0,0,0,7.518,20.511c1.13,1.391,2.347,2.781,3.52,4.129,7,8,13.6,15.6,11.733,27.073-.565,3.346-1.347,6.735-2.086,10.038-2.477,10.647-5,21.685.131,32.5a109.33,109.33,0,0,0,7.257,12.211c6.909,10.56,14.732,22.554,15.731,39.98l.739,56.623c-2.955-3.824-8.474-10.82-14.775-18.686-9.517-11.863-15.166-17.9-19.6-18.165a4.292,4.292,0,0,0-3.3,1.261c-5.258,5.258.7,16.643,5.737,22.553,1.173,1.391,2.216,2.564,3.172,3.564,3.172,3.476,4.91,5.432,5.606,9.69a31.792,31.792,0,0,1,.26,4.216c.087,5.041.218,11.3,7.518,18.773,2.608,2.694,5.085,4.823,7.214,6.692,5.041,4.389,8.213,7.17,8.735,12.472l1.043,77.7-33.331,6.3c-.522-2.3-1.391-6.127-2.564-11.3-.522-2.173-1.043-4.607-1.651-7.257a6.723,6.723,0,0,0,2.3-1.13A6.447,6.447,0,0,0,243.1,682.5a6.527,6.527,0,0,0-1.26-4.78L239.4,674.5a43.96,43.96,0,0,1-7.909-16.948l-.565-2.651a11.29,11.29,0,0,1,.13-5.649c.478-1.651,1-2.086,1.217-2.216,1.434-.826,3.346.826,5.91,3.3,2.477,2.39,5.563,5.345,8.344,2.911,3.607-3.129.565-11.125-9.865-25.813-2.216-3.129-5.388-7.518-9.43-12.993a54.783,54.783,0,0,1-9.56-21.554c-5.519-26.9-10.212-51.539-13.993-73.224a.775.775,0,0,1,.391-.869.9.9,0,0,1,.956,0c4.607,3.216,7.518,2.086,9.126.565,3.346-3.129.261-10.734-2.694-18.121-1.608-4.042-3.651-9.039-3.129-10.56s1-1.521,2.825-1.347a8.723,8.723,0,0,0,6.3-1.391c4.563-3.259,2-11.863-8.909-29.593-.912-1.478-1.781-2.955-2.651-4.389a114.439,114.439,0,0,1-15.687-54.277c-1.565-49.062,3.867-72.137,3.954-72.4a1.284,1.284,0,0,0-.825-1.521L177.7,320.118a1.342,1.342,0,0,0-1.086-1.477,1.284,1.284,0,0,0-1.477,1.086v.087a1.315,1.315,0,0,0-.522.912c0,.131-.3,4.129-.652,10.3-.478,5.6-.956,13.254-1.173,22.684-.391,8.734-.652,17.9-.652,25.812,0,5.041.608,13.255,1.564,23.032.913,15.123,2.434,31.984,4.954,50.409,10.995,81.22,49.019,255.783,49.41,257.564a1.3,1.3,0,0,0,1.26,1.043.557.557,0,0,0,.261-.043l11.038-2.086c.695,6.344,1.564,16.252,1.26,19.6a34.351,34.351,0,0,0-7.214-8.821c-4.432-3.737-9.212-5.693-12.211-4.954a4.1,4.1,0,0,0-2.738,5.823,11.189,11.189,0,0,0,3.52,3.737c-5.736-1.825-9.777-2.216-12.254-1.173a4.42,4.42,0,0,0-2.651,2.911c-.913,3.216.13,5.3,1.217,6.475,2.3,2.521,7.17,3.781,14.427,3.781.956,0,2-.043,3.042-.087-7.17,2.825-16.948,6.432-29.593,10.734-10.473,3.563-10.6,7.865-10.43,9.082.3,1.825,1.912,3,4.172,3h1.043c11.472.13,21.293.13,29.42.13,8.169,0,14.644-.043,19.468-.087,41.109-.391,42.63-2,43.412-2.825,2.391-2.563.739-10.559-2.259-23.466-1.217-5.3-2.39-10.3-2.738-13.515-.3-3.042-.913-18.251-.913-18.642l-1.043-77.569a1.191,1.191,0,0,0,.044-.391l-.348-20.512-1.043-78.221c0-.086.044-.173.044-.3l-.348-41.457c4.259,14.732,11.125,38.589,15.9,55.841,7.344,26.639,25.813,79.959,25.987,80.481l1.955,5.432c16.253,47.5,29.55,82.74,30.028,84.131,2.347,7.561,14.167,44.933,19.556,48.41,2.65,1.738,16.513,9.212,30.245,15.731,16.557,7.909,27.377,11.907,32.288,11.907a6.282,6.282,0,0,0,1.39-.131,2.857,2.857,0,0,0,1.913-1.347c1.216-2.216.13-7.127-16.557-26.551A14.271,14.271,0,0,0,426.09,759.328Zm-191.424-25.9c-2.086.261-4.606.522-7.213.652-8.431.435-14.21-.565-16.3-2.824a3.94,3.94,0,0,1-.652-4,1.758,1.758,0,0,1,1.13-1.217,6.5,6.5,0,0,1,2.3-.348c2.39,0,6.605.783,13.949,3.781,2.955,1.173,5.693,2.477,7.822,3.52C235.405,733.124,235.057,733.3,234.666,733.428Zm-2.129-6.344c-8.17-3.52-10.256-5.954-10.821-7.083a1.271,1.271,0,0,1-.086-1.174,1.636,1.636,0,0,1,1.129-1,4.768,4.768,0,0,1,.826-.087c2.26,0,5.823,1.738,9.082,4.476a30.687,30.687,0,0,1,6.084,7.257C237.056,728.909,234.84,728.04,232.537,727.084Zm11.255-8.3c-.347-4.129-.739-8.126-.956-9.778l32.9-6.214c.131,3.476.522,11.95.783,15.861Zm114.333,7.778c-1.695-4.91-3.563-10.516-5.562-16.861l34.46,4.085,5.128,17.513Zm38.937,5.65c6.083-1,19.381-2.868,27.9-1.738,6.432.869,8.17,3.954,8.605,5.736a5.014,5.014,0,0,1-1.478,5.214c-5.388,4-15.253.913-22.6-2.433A104.9,104.9,0,0,1,397.062,732.212Zm7.822,9.343A114.534,114.534,0,0,1,416.1,744.64c9.952,3.259,12.559,6.171,13.211,7.605a2.35,2.35,0,0,1,.044,2.086,3.25,3.25,0,0,1-2.564,2.3,4.168,4.168,0,0,1-.739.044c-4.476,0-11.82-5.867-17.556-11.256C407.23,744.119,406.014,742.772,404.884,741.555Z" fill="#1a1a1a"/><circle cx="256.134" cy="277.661" r="5.302" fill="#1a1a1a"/><path d="M256.134,284.267a6.606,6.606,0,1,1,6.6-6.606A6.6,6.6,0,0,1,256.134,284.267Zm0-10.6a4,4,0,1,0,4,4A3.987,3.987,0,0,0,256.134,273.663Z" fill="#1a1a1a"/><circle cx="257.264" cy="247.155" r="5.302" fill="#1a1a1a"/><path d="M257.264,253.761a6.606,6.606,0,1,1,6.605-6.606A6.6,6.6,0,0,1,257.264,253.761Zm0-10.6a4,4,0,1,0,4,4A3.987,3.987,0,0,0,257.264,243.157Z" fill="#1a1a1a"/><path d="M446.862,195.269a4.52,4.52,0,1,0,4.52,4.519A4.543,4.543,0,0,0,446.862,195.269Z" fill="#1a1a1a"/><path d="M456.51,187.186a4.52,4.52,0,1,0,4.519,4.519A4.544,4.544,0,0,0,456.51,187.186Z" fill="#1a1a1a"/><rect x="315.651" y="192.387" width="11.777" height="30.507" transform="matrix(0.16, -0.987, 0.987, 0.16, 65.244, 491.92)" fill="rgb(241,219,251)"/><path d="M90.523,163.807a4.527,4.527,0,0,0-3.738,7.474,4.451,4.451,0,0,0,3.086,1.564h.347a4.588,4.588,0,0,0,2.955-1.086,4.45,4.45,0,0,0,1.565-3.085A4.62,4.62,0,0,0,90.523,163.807Z" fill="#1a1a1a"/><path d="M83.135,153.594a4.5,4.5,0,0,0-4.824,4.172,4.556,4.556,0,0,0,1.087,3.3,4.453,4.453,0,0,0,3.085,1.564h.348a4.592,4.592,0,0,0,2.955-1.086,4.453,4.453,0,0,0,1.564-3.086A4.6,4.6,0,0,0,83.135,153.594Z" fill="#1a1a1a"/><path d="M253.352,74.548a1.4,1.4,0,0,1-.912-.348c-3.52-3.433-3.781-6.475-2.868-8.213a3.6,3.6,0,0,1,4.041-1.738,1.451,1.451,0,0,0,1.347-.218c1.13-.869,1.478-3.346,1.521-4.128a1.284,1.284,0,0,1,2.564.13c0,.435-.261,4.346-2.564,6.084a4.167,4.167,0,0,1-3.52.7.967.967,0,0,0-1.173.391c-.478.869.043,2.868,2.39,5.128a1.3,1.3,0,0,1,.044,1.825A1.162,1.162,0,0,1,253.352,74.548Z" fill="#1a1a1a"/><ellipse cx="268.876" cy="63.116" rx="2.868" ry="6.084" transform="translate(62.97 247.183) rotate(-55.005)" fill="#fff"/><path d="M274.689,63.249a12.033,12.033,0,0,0-3.433-3.563,11.652,11.652,0,0,0-4.563-2c-2.39-.435-3.476.565-3.911,1.173s-.956,1.956.218,4.085a12.033,12.033,0,0,0,3.433,3.563,10.425,10.425,0,0,0,5.606,2.13,3.4,3.4,0,0,0,2.868-1.26C275.385,66.726,275.906,65.379,274.689,63.249ZM265.3,61.641c-.435-.738-.435-1.216-.348-1.3a1.1,1.1,0,0,1,.7-.174,3.783,3.783,0,0,1,.651.043,8.737,8.737,0,0,1,3.477,1.565c.043.043.087.043.13.087a2.117,2.117,0,0,0-1.781.7,1.94,1.94,0,0,0-.087,1.782.043.043,0,0,1-.044-.044A8.263,8.263,0,0,1,265.3,61.641Z" fill="#1a1a1a"/><path d="M276.775,59.555a1.53,1.53,0,0,1-.608-.13c-6.214-3.172-7.388-10.3-7.431-10.6a1.3,1.3,0,1,1,2.564-.391c0,.087,1.043,6.127,6.04,8.647a1.316,1.316,0,0,1-.565,2.477Z" fill="#1a1a1a"/><path d="M255.612,49.517a14.588,14.588,0,0,1-4.823-.826,1.292,1.292,0,1,1,.869-2.433,11.431,11.431,0,0,0,8.083-.087,1.313,1.313,0,0,1,1.086,2.39A13.943,13.943,0,0,1,255.612,49.517Z" fill="#1a1a1a"/><path d="M254.265,85.542a1.366,1.366,0,0,1-1.13-.608c-1.564-2.521-3.259-3.955-4.91-4.172a4.07,4.07,0,0,0-3.129,1.043,1.29,1.29,0,1,1-1.825-1.825,6.772,6.772,0,0,1,5.258-1.738c2.52.3,4.823,2.129,6.822,5.345a1.278,1.278,0,0,1-.434,1.781A1.613,1.613,0,0,1,254.265,85.542Z" fill="#1a1a1a"/><path d="M308.107,42.086c-2.651-14.167-11.516-32.635-21.771-39.067a16.815,16.815,0,0,0-25.205,7.344c-2.173,4.563-2.955,11.081-3.259,14.21-5.519-2.564-10.6-3.389-13.819-1.825-4.389,2.13-3.346,7.822-2.651,10.3a12.691,12.691,0,0,0-1.086,7.257c.608,5.65,4.78,7.822,8,8.431a50.565,50.565,0,0,0-7.822,12.3,36.668,36.668,0,0,0-3.173,19.121c.913,7.431,4.433,13.341,9.43,15.731a19.184,19.184,0,0,0,8.431,1.738h.478l-3.129,15.383a1.29,1.29,0,0,0,1,1.521c.087,0,.174.044.261.044a1.3,1.3,0,0,0,1.26-1.043l.478-2.39c.044-.087.044-.174.087-.217l.478-1.913c1.478-4.128,5.693-6.127,10.126-8.256a34.671,34.671,0,0,0,6.04-3.346,12.646,12.646,0,0,0,5.041-6.823v-.434a.258.258,0,0,0-.044-.174c0-.044,0-.044-.043-.087a.33.33,0,0,0-.087-.174V89.67h0a.6.6,0,0,0-.13-.173l-.044-.044-.13-.13-.044-.044-.043-.043c-.044-.044-.087-.044-.13-.087a.043.043,0,0,1-.044-.043c-.087-.044-.13-.044-.217-.087H276.3c-.043,0-.13-.044-.173-.044h-.305c-.087,0-.13.044-.217.044h-.043a.323.323,0,0,0-.174.087h-.044c-.173.086-17.165,9.343-27.551,4.389-4.128-1.956-7.17-7.214-7.952-13.689-1.478-12.3,5.041-25.856,17.513-36.5,3.563,3.216,7.952,2.3,10.69.912,1.738,3.086,5.388,3.911,7.909,3.868a10.152,10.152,0,0,0,10,7,2.9,2.9,0,0,0,.608-.043c.565.782,1.217,1.651,1.869,2.607a14.067,14.067,0,0,0-4.911,9.213c-.391,4.476,1.434,6.953,3.085,7.779a2.868,2.868,0,0,0,1.3.3,2.193,2.193,0,0,0,1.478-.522.042.042,0,0,0,.043-.043,7.511,7.511,0,0,1,6.214-1.782,5.382,5.382,0,0,1,3.564,2.521,5.868,5.868,0,0,1,.087,5,5.541,5.541,0,0,1-4.172,2.868c-5.171,1.043-7-1.477-7.127-1.651,0-.044-.043-.044-.043-.087-.044-.043-.044-.087-.087-.13l-.087-.087-.087-.087c-.044-.044-.087-.044-.131-.087a.149.149,0,0,1-.086-.044c-.044,0-.087-.043-.131-.043s-.087-.043-.13-.043h-.522a.16.16,0,0,0-.13.043h-.087c-.043,0-.087.043-.13.043s-.087.044-.131.044h0c-.043,0-.043.043-.087.043-.043.044-.087.044-.13.087l-.087.087-.087.087c-.043.044-.043.087-.087.13a.15.15,0,0,1-.043.087c0,.044-.044.087-.044.131s-.043.087-.043.13v.522a.161.161,0,0,0,.043.13c0,.043,0,.043.044.087l10.69,31.332a1.308,1.308,0,0,0,1.217.869,1.94,1.94,0,0,0,.434-.087,1.3,1.3,0,0,0,.826-1.651l-9.43-27.639a10.377,10.377,0,0,0,3.346.522,14.771,14.771,0,0,0,2.912-.3,7.948,7.948,0,0,0,6-4.3,8.562,8.562,0,0,0-.131-7.344,7.474,7.474,0,0,0-.478-.783C307.673,69.377,310.714,56.166,308.107,42.086ZM259.7,33.4c-1.477-1.478-5.215-4.78-9.734-4.911a9.546,9.546,0,0,0-6.475,2c-.3-2-.217-4.432,1.695-5.388,3.172-1.565,11.124.434,19.164,6.344a1.2,1.2,0,0,0,.695.522,1.3,1.3,0,0,0,.3.217A20.41,20.41,0,0,0,259.7,33.4ZM272.6,35.177a50.519,50.519,0,0,0-5.65-5c.044-.174.131-.347.174-.478a6.805,6.805,0,0,1,2.781-3.3,3.293,3.293,0,0,1,3-.347,3.415,3.415,0,0,1,1.825,2.433,7.161,7.161,0,0,1-.478,4.3A7.4,7.4,0,0,1,272.6,35.177ZM274.472,37a10.809,10.809,0,0,0,2.216-3.259,12.76,12.76,0,0,0,.565-1.7c3.129,1.955,11.168,7.518,15.731,16.426,5,9.691,4.476,15.775,3.39,18.9-1.608-5.259-5.3-10.734-7.866-14.124a1.278,1.278,0,0,0-.173-.347c-.131-.218-3.52-4.911-5.737-7.518A80.579,80.579,0,0,0,274.472,37Zm24.64,34.33a6.2,6.2,0,0,0-1.3-.695c1.695-2.825,4.3-10.169-2.477-23.336a40,40,0,0,0-6.431-9.039,16.42,16.42,0,0,1,5.127-7.866,1.3,1.3,0,1,0-1.564-2.085,18.551,18.551,0,0,0-5.649,7.865,50.479,50.479,0,0,0-9.3-7,6.7,6.7,0,0,0-.217-1.347,5.935,5.935,0,0,0-3.3-4.216,5.506,5.506,0,0,0-2.781-.391c-1.608-4.563.217-9.734.217-9.821a1.273,1.273,0,0,0-.782-1.651,1.241,1.241,0,0,0-1.651.782c-.087.261-2.13,6.127-.261,11.559-.044,0-.044.044-.087.044a9.28,9.28,0,0,0-3.824,4.476c-1.478-1-2.955-1.912-4.389-2.738.174-2.173.826-9.6,3.085-14.34a15.072,15.072,0,0,1,9.213-8.344c3.954-1.173,8.17-.435,12.254,2.129,8.648,5.389,17.731,21.772,20.6,37.329a46.178,46.178,0,0,1-.261,19.295C303.979,66.769,301.763,70.2,299.112,71.332Z" fill="#1a1a1a"/><path d="M283.772,142.6h-14.08a1.3,1.3,0,1,0,0,2.607h14.08a1.3,1.3,0,0,0,0-2.607Z" fill="#fff"/><path d="M538.163,174.627c-2.3-1.521-9.516-1.825-17.382-2.042-1.564-.044-2.781-.087-3.433-.131-1.043-.087-3.39-1.738-5.649-3.52,3.954-.434,8.865-1.39,9.69-3.52a2.345,2.345,0,0,0-.651-2.52c-2.825-2.955-18.556-2.955-23.293-2.912h-.174a26.088,26.088,0,0,0-15.6.565c-7.649,2.781-14.645,9.6-15.3,10.256l-62.968,53.929c-1-3.65-3.3-11.733-6.822-21.294l-.7-2.259a1.1,1.1,0,0,0-.347-.522c-4.65-12.167-11.125-26.117-19.208-36.068-18.773-23.119-41.283-32.549-42.022-32.853h0L316.8,124.348,298.33,112.355a1.413,1.413,0,0,0-1.435,0L277.6,124.7l-23.206-12.6a1.28,1.28,0,0,0-1.3.043l-10.864,6.432a121.135,121.135,0,0,0-51.018,13.993,126.585,126.585,0,0,0-36.459,29.115,168.213,168.213,0,0,0-17.165,23.988,1.2,1.2,0,0,0-.305.391l-.434.913a134.226,134.226,0,0,0-7.648,15.122L82.918,141.948c-.044-.043-.044-.087-.087-.13L75.748,132.6A27.17,27.17,0,0,0,62.189,117.83a27.693,27.693,0,0,0-13.862-2.955c-1-.174-5.91-1.043-11.038-1.695-11.994-1.564-13.341-.565-13.993-.087a1.68,1.68,0,0,0-.739,1.261c-.217,1.781,1.521,3.433,5.606,5.258.956.434,1.869.782,2.694,1.13-2.477,1.173-5.171,2.085-7.561,1.781-1.217-.174-2.955-.521-4.954-.956-8.17-1.695-14.6-2.824-17.165-.912A2.943,2.943,0,0,0,0,122.784a1.235,1.235,0,0,0,.869,1.3l21.337,7.431a1.868,1.868,0,0,0,.478.087c8.908-.392,18.9-.392,20.685.26.782,1.217,3.259,7.084,5.432,12.6-4.172,3.867-4.563,5.388-4.3,6.431a1.62,1.62,0,0,0,.521.869l1.912,3.607h0c-1.173,1.217-6.953,7.561-6.779,11.472a3.344,3.344,0,0,0,.826,2.086c.956,2.086,8.691,18.73,17.991,37.459,8.995,18.078,16.469,32.158,22.379,42.066l.305.565a.584.584,0,0,0,.26.3c2.608,4.346,4.954,7.866,6.91,10.516,7.952,10.691,14.949,16.774,22.727,19.773a31.231,31.231,0,0,0,11.169,2.042c6.475,0,13.558-1.868,21.293-5.649,14.384-7,29.2-18.947,39.5-28.116l-8.692,71.876a1.3,1.3,0,0,0,.609,1.261c.521.3,13.254,7.822,40.11,13.123,13.384,2.651,31.853,4.954,55.363,4.954a433.544,433.544,0,0,0,70.181-6.084h0a1.939,1.939,0,0,0,.218-.043c.043,0,.043-.043.086-.043s.087-.044.131-.087c.043,0,.043-.044.087-.044.043-.043.087-.043.13-.087.044,0,.044-.043.087-.043.043-.044.087-.087.087-.131l.043-.043a.323.323,0,0,0,.087-.174v-.043c.044-.087.044-.131.087-.218h0l14.688-57.535c4.954,6,19.86,23.031,32.245,27.377a30.106,30.106,0,0,0,9.777,1.782c10.951,0,20.859-6.953,34.2-19.208,7.084-6.518,18.86-20.989,34.939-43.021,11.646-15.949,21.467-30.289,22.076-31.158a4.608,4.608,0,0,0,1.173-3.216c-.087-2.347-1.782-4.563-2.781-5.606l4.171-5.954a1.4,1.4,0,0,0,.131-1.477c.261-.739.217-2.477-2.912-6.91,3.173-4.823,6.3-9,7.431-9.3,1.13-.174,7.779,1.217,16.209,3.433a4.969,4.969,0,0,0,1.608.174l24.77-.913a1.292,1.292,0,0,0,1.217-.956C541.118,179.32,541.64,176.974,538.163,174.627Zm-19.337-10.038c-1.087.782-5.346,1.651-9.6,1.955a.627.627,0,0,0-.3.087c-2-1.608-3.868-3.129-5.172-3.954l-.043-.044C510.786,162.807,517.478,163.5,518.826,164.589ZM317.016,127.26l15.253,6.431c-3.26,12.125-8.518,30.072-10.386,32.549-1.565,2.086-7,2.042-10.6,2.042a17.965,17.965,0,0,0-4.258.261c-2.043.609-2.3,3.433-.826,9.43a3.186,3.186,0,0,1-1.434,3.477,52.361,52.361,0,0,1-19.425,7.04c-1.695.217-3.172.347-4.389.391,9.473-7.214,18.3-19.469,26.291-36.5A210.9,210.9,0,0,0,317.016,127.26Zm-19.382-12.255,17.035,11.082a201.54,201.54,0,0,1-9.865,25.248l-25.03-24.9Zm5.954,38.807c-6.345,12.95-15.253,26.986-26.422,34.5a139.96,139.96,0,0,1-21.293-31.158c-1.434-2.825-2.694-5.606-3.824-8.344L277.6,127.955ZM253.83,114.7l21.555,11.69-24.336,19.9a120.2,120.2,0,0,1-7-25.813Zm-25.465,7.953a120.843,120.843,0,0,1,13.167-1.478,126.274,126.274,0,0,0,12.038,37.155,145.348,145.348,0,0,0,20.728,30.68c-14.21,1-34.243-10.256-35.547-12.515-.347-1.087,2.043-5.91,3.346-8.474,2.086-4.215,3.26-6.649,3-8.17a1.922,1.922,0,0,0-.869-1.3c-1.434-.956-4.172-.347-8.822.826-2.3.565-5.693,1.391-6.822,1.217C227.322,157.81,227.5,139.558,228.365,122.654ZM59.886,147.684a50.041,50.041,0,0,0,14.688-12.3l5.563,7.214a117.308,117.308,0,0,1-21.989,17.643c-1.565,1-3,1.825-4.3,2.564L48.2,152.2C50.369,151.986,54.063,150.9,59.886,147.684ZM25.512,115.092c1.13-.174,4.129-.217,11.69.739,1.13.13,2.26.3,3.346.478-1.086.3-1.955.652-2.564.869A31.821,31.821,0,0,0,34.247,119c-.087.044-.13.087-.217.131C30.249,117.917,26.6,116.135,25.512,115.092Zm7.475,13.645c-4.563.044-9.082.218-10.169.261L3.741,122.349c2.955-.521,10,.913,14.036,1.782,2.043.435,3.824.782,5.128,1,4.389.608,8.909-1.826,12.559-3.824a23.364,23.364,0,0,1,3.389-1.652,32.237,32.237,0,0,1,9.257-2.086,1.246,1.246,0,0,0,.564-.043,24.576,24.576,0,0,1,12.385,2.694,25.316,25.316,0,0,1,12.125,12.863,48.606,48.606,0,0,1-14.471,12.385,47.431,47.431,0,0,1-5.78,2.781l-1.347-3.78h0c-.826-2.086-4.911-12.646-6.214-14.254C44.807,129.476,44.112,128.651,32.987,128.737ZM473.805,228.86a1.243,1.243,0,0,0-.608.348c-.174.174-15.6,16.339-29.072,22.9-4.129,2.043-8.127,3.781-11.647,5.3-9.908,4.345-17.078,7.474-19.12,13.037-1,2.694-.305,4.345.478,5.3,1.347,1.608,3.954,2.217,7.17,1.652,1.173-.218,2.26-.435,3.216-.652,3.607-.782,5.041-1,5.692.174a2.294,2.294,0,0,1,0,2.129c-1,2.434-4.606,5-9.256,6.431-1.477.479-3,.87-4.476,1.3-6.518,1.825-12.732,3.52-13.123,8.431a5.221,5.221,0,0,0,2.172,4.91,24.919,24.919,0,0,1-15.253-.695c-14.079-4.911-32.548-28.333-32.722-28.551h0c-.044-.087-6.084-7.3-10.777-13.558-6.823-9-11.168-9.3-12.385-9.213a3.753,3.753,0,0,0-3.129,2.3c-2.086,4.259,3,11.429,7.909,18.339,2.26,3.216,5.388,7.605,5.258,8.821-.13,1-.434,2.695-.826,4.694-1.607,8.169-2.824,15.166-1,18.382a11.547,11.547,0,0,0,4.085,4.606l-6.475,25.422c-58.057,9.517-99.254,5.823-123.589,1.086-20.164-3.954-33.679-9.6-38.72-12.428L182,283.05a8.419,8.419,0,0,0,4.258,1.217h.348c5.779,0,8.083-8.344,9.864-21.772a181.006,181.006,0,0,0,1.043-28.29.394.394,0,0,0-.043-.217v-.043c0-.044-.044-.131-.044-.174s0-.044-.043-.087-.043-.087-.087-.174a.042.042,0,0,0-.043-.043c-.044-.044-.087-.131-.131-.174h0l-.043-.044-.131-.13-.043-.043a.327.327,0,0,0-.217-.087h-.044a.258.258,0,0,0-.174-.044h-.3a.387.387,0,0,0-.217.044h0c-.087,0-.13.043-.174.043a.042.042,0,0,0-.043.043c-.044.044-.087.044-.174.087a.043.043,0,0,0-.044.044c-.043.043-.13.087-.173.13l-4.781,4.433c-8.734,8.43-28.681,26.638-47.758,35.938-24.683,11.994-38.632,2.52-51.973-15.384-1.695-2.259-3.607-5.171-5.649-8.517a7.187,7.187,0,0,0,4.693-2.129,5.172,5.172,0,0,0,1.26-4.824c-.739-3-3.781-5.866-6.692-8.648-2.521-2.39-5.606-5.345-4.867-6.605a.808.808,0,0,1,.521-.391c1.956-.435,6.736,2.781,9.908,4.91a28.37,28.37,0,0,0,5.693,3.347,6.192,6.192,0,0,0,5.866-1.782,6.512,6.512,0,0,0,2.086-6.171C102.3,222.125,93.825,217,80.962,209.175c-12.776-7.779-25.769-17.166-25.9-17.252a1.613,1.613,0,0,0-.478-.218c-4.91-10.125-8.734-18.3-10.429-21.945,3.781-.522,9.778-3.781,14.732-6.823a120.862,120.862,0,0,0,22.858-18.164l47.019,61.1a1.352,1.352,0,0,0,.478.391c1.13,1.738,3.476,5.258,6.171,8.778,5.345,6.91,9.43,10.3,12.428,10.386h.217a4.688,4.688,0,0,0,4.433-2.259c1.738-3.086-.3-8.257-1.564-10.256-.435-.695-1.043-1.434-1.652-2.26-2.086-2.651-4.693-5.953-3.607-9.43l.087-.3c.913-2.825,2.695-8.6-5.519-14.558a169.007,169.007,0,0,1,16.514-22.945,122.771,122.771,0,0,1,35.721-28.507,118.62,118.62,0,0,1,33.287-11.689c-.174,3.172-.478,10.6-.609,18.077-.347,20.642,1.043,21.25,2.173,21.728,1.565.652,4.3.044,8.692-1.043,2.042-.478,5.258-1.3,6.518-1.216a41.969,41.969,0,0,1-2.738,6.17c-2.651,5.345-4.215,8.735-3.433,10.647,1.478,3.52,21.554,14.167,36.329,14.167a20.411,20.411,0,0,0,2.869-.174l-.7,7.214a1.03,1.03,0,0,0-.087.347l-.26,2.781a32.25,32.25,0,0,1-2.695,9.344,24.811,24.811,0,0,0-2.172,7.431,47.437,47.437,0,0,0,.434,11.211,69.667,69.667,0,0,1,.695,12.516l-.434,4.606a40.574,40.574,0,0,1-1.695,8.083c-.782,2.042-1.347,3.346-1.782,4.3a16.263,16.263,0,0,0-1.651,6,18.9,18.9,0,0,0,.739,6.431,32.967,32.967,0,0,1,1.13,10,39.594,39.594,0,0,1-2.173,7.822c-1.391,3.39-1.043,7.388-.739,11.6a59.623,59.623,0,0,1,.3,7.952l-.261,2.825a1.467,1.467,0,0,0,.044.435l-2.434,24.552A1.34,1.34,0,0,0,263,338.456h.13a1.35,1.35,0,0,0,1.3-1.173l8.039-84.087.565-5.867v-.043c.044-.131.087-.261.13-.435.044-.608.131-1.173.174-1.738l2.434-26.813,2.52-26.769c.478.044,1.087.044,1.825.044,4.868,0,14.819-1,26.118-7.779a5.727,5.727,0,0,0,2.607-6.3c-1.087-4.432-.869-5.953-.782-6.344a18.924,18.924,0,0,1,3.346-.087c4.345,0,10.342,0,12.689-3.086,2.607-3.433,8.952-26.464,10.734-33.07a116.865,116.865,0,0,1,39.631,31.506c7.909,9.734,14.3,23.727,18.6,34.852-4.65,3.215-6.388,10.994-5.259,16.991.739,3.781-1.955,6.562-4.78,9.56a27.885,27.885,0,0,0-3.737,4.52c-1.869,3.085-2.173,6.3-.782,8.387a5.44,5.44,0,0,0,4.78,2.216,11.016,11.016,0,0,0,1.608-.13c6.214-.956,17.339-12.95,18.816-14.558l55.276-47.367c1.043,2.346,4.3,8.952,11.734,17.121,6.909,7.6,13.428,11.038,16.339,12.255C485.017,212.955,480.063,220.082,473.805,228.86Zm9-23.988a51.443,51.443,0,0,1-10.255-8.821c-8.518-9.387-11.386-16.731-11.559-17.165l5.91-5.041a61.746,61.746,0,0,0,11.559,14.08c5.345,5,8.735,7,10.82,7.735ZM514.958,178.8a2.541,2.541,0,0,1-.826-.087c-6.909-1.782-15.557-3.868-17.426-3.433-3,.652-8.865,9.908-11.776,14.775-1.3-1-2.868-2.3-4.693-4-7-6.562-10.3-11.994-11.342-13.949,1.912-1.782,7.691-6.866,13.688-9.039a23.627,23.627,0,0,1,19.773,1.868,54.02,54.02,0,0,1,5,3.824c4.563,3.738,7.692,6.171,9.865,6.345.7.044,1.955.087,3.563.13,4.259.131,14.167.392,15.992,1.608a5.133,5.133,0,0,1,1.3,1.174Z" fill="#1a1a1a"/><path d="M274.907,333.111l10.907,56.363s12.994,36.633,14.384,36.633,26.9,13.906,26.9,13.906l40.371-1.868,7.431-1.869s7.866-2.564,7.17-16.687c-.695-14.167-9.517-52.408-9.517-52.408l14.167-2.086s-5.562-18.078-12.081-26.2a110.9,110.9,0,0,0-15.557-15.3s-31.332-.478-45.455,1.869C299.5,327.766,274.907,333.111,274.907,333.111Z" fill="rgb(241,219,251)"/><path d="M382.069,419.589c-.13-2.955-.652-7-1.347-11.516-8.821-8.43-22.858-9.778-34.852-13.6-5.3-1.695-11.124-4.78-12.211-10.255-.956-4.65,2.086-9.387,6.128-11.907s8.865-3.3,13.558-4.042a35.425,35.425,0,0,1-29.029-16.861,25.826,25.826,0,0,1-3.129-18.686c.609-2.651,2.13-5.562,3.042-8.474-4,.261-7.648.652-10.6,1.13-14.167,2.3-38.719,7.648-38.719,7.648l10.907,56.363S298.808,426.02,300.2,426.02s26.9,13.906,26.9,13.906l40.371-1.868,7.431-1.869C374.856,436.319,382.765,433.756,382.069,419.589Z" fill="#fff"/><path d="M319.493,366.008a5.423,5.423,0,0,1-4.781-3.651,5.931,5.931,0,0,1-.173-3.867,4.222,4.222,0,0,1,2.477-2.738,4.3,4.3,0,0,1,3.693.391,5.865,5.865,0,0,1,2.477,3h0c1.043,2.782,0,5.737-2.346,6.649A4.355,4.355,0,0,1,319.493,366.008Zm-1-7.953a1.868,1.868,0,0,0-.478.087,1.817,1.817,0,0,0-.956,1.13,3.16,3.16,0,0,0,.13,2.173c.522,1.39,1.826,2.259,2.825,1.868s1.347-1.868.826-3.259a3.332,3.332,0,0,0-1.347-1.695A2.267,2.267,0,0,0,318.493,358.055Z" fill="#1a1a1a"/><path d="M372.379,360.184a5.422,5.422,0,0,1-4.781-3.65c-1.042-2.781,0-5.736,2.347-6.649s5.128.609,6.171,3.39,0,5.736-2.347,6.649A3.755,3.755,0,0,1,372.379,360.184Zm-1-7.909a1.573,1.573,0,0,0-.478.087c-1,.391-1.347,1.869-.826,3.26s1.826,2.259,2.825,1.868,1.347-1.868.826-3.259A2.89,2.89,0,0,0,371.379,352.275Z" fill="#1a1a1a"/><path d="M388.327,365.312A93.4,93.4,0,0,0,375.9,339.065,78.769,78.769,0,0,0,363.687,325.2a12.658,12.658,0,0,0-8.387-3.085c-7.518.087-22.293.391-37.024,1.695a182.379,182.379,0,0,0-44.586,9.821h0a.043.043,0,0,0-.044.043c-.043.044-.13.044-.173.087s-.087.044-.087.087c-.044.044-.087.044-.087.087-.044.043-.044.087-.087.087l-.087.087c-.043.043-.043.087-.087.13,0,.044-.043.044-.043.087s-.044.087-.044.13-.043.087-.043.131c0,.087-.044.13-.044.217h0v.261h0c.044.174,2.651,16.209,6.953,35.156,5.346,23.466,10.778,40.848,16.166,51.756.043.13.13.217.174.348l.261.521a3.468,3.468,0,0,0,.3.565,2.5,2.5,0,0,0,.174.348,9.505,9.505,0,0,1,.478.912c.347.652.695,1.261,1.043,1.869.043.087.13.174.173.261.305.521.609,1.043.956,1.564.044.043.044.087.087.13,9.952,15.645,21.859,18.209,30.42,18.209a62.8,62.8,0,0,0,6.388-.392c.347-.043.651-.043.956-.086l.695-.044c6.909-.608,25.031-2.26,35.721-7.692h.043a8.51,8.51,0,0,0,.869-.478c.044-.043.087-.043.131-.087h.043a17.221,17.221,0,0,0,5.432-4.476c3.694-5,3.607-17.817-.217-37.98-2.26-11.907-5.215-23.032-6.3-27.03l13.471-1.434a1.371,1.371,0,0,0,.956-.565A1.291,1.291,0,0,0,388.327,365.312Zm-10.082,66.531a12.429,12.429,0,0,1-3,2.782,8.1,8.1,0,0,0-2.868-4.781c-2.608-2.085-7.04-3.606-21.642-.869-10.864,2.043-18.816-1.3-23.683-10.038a78.639,78.639,0,0,1-3.563-8.126c-3.216-8.127-6.823-17.339-14.254-17.339h-.3c-4.737.174-6.084,3.911-7.17,6.909-.956,2.608-1.608,4.216-3.347,4.433h-.26c-4.433,0-10.039-14.558-11.907-19.468-5.78-21.989-9.691-44.369-10.56-49.584,1.782-.434,5.519-.956,7.648,1.26l20.338,42.24a1.359,1.359,0,0,0,1.173.738h.13l67.444-6.648c1.391,5.345,3.433,13.688,5.128,22.51C382.156,420.11,380.461,428.8,378.245,431.843Zm-5.953-65.922a.844.844,0,0,0-.565.043c-.044,0-.087.044-.131.044l-63.619,6.779c-2.955-5.128-19.729-33.983-22.641-37.329h0a8.084,8.084,0,0,0-2.825-1.956,182.826,182.826,0,0,1,36.026-7.039c14.644-1.3,29.332-1.608,36.807-1.7a9.824,9.824,0,0,1,6.649,2.433,73.066,73.066,0,0,1,11.776,13.385,93.52,93.52,0,0,1,11.6,23.944Z" fill="#1a1a1a"/></g></g></g><g transform="translate(181.9324999999999 188.21066666666667) scale(0.5822564745944977 0.5832104017290474)" ><defs>
    <clipPath id="clipPath_H5WXP6fS_XZgmN4YtZoEh">
    <rect x="0" y="0" width="223.18" height="378.937" />
    </clipPath></defs><title>mailbox</title><g id="Layer_2H5WXP6fS_XZgmN4YtZoEh" data-name="Layer 2"><g id="mailboxH5WXP6fS_XZgmN4YtZoEh"><rect x="91.116" y="117.158" width="16.687" height="203.201" fill="rgb(241,219,251)"/><path d="M111.671,95.3H92.029a1.281,1.281,0,0,0-1.3,1.3v280.2a1.281,1.281,0,0,0,1.3,1.3H104.11a1.281,1.281,0,0,0,1.3-1.3V364.683h4.823v12.081a1.3,1.3,0,0,0,2.608,0v-81.7l.173-198.508A1.37,1.37,0,0,0,111.671,95.3ZM102.806,375.5H93.333V357.991h9.473Zm0-73.571-9.473,9.386v-170.3l9.473-6.6Z" fill="#1a1a1a"/><path d="M124.056,354.688c-5.606,7.909-7.3,14.21-7.648,18.556h22.771s-.348-7.474,4.65-18.382c9.125-19.946,38.806-36.807,38.806-36.807C144.307,325.138,133.269,341.738,124.056,354.688Z" fill="rgb(241,219,251)"/><path d="M141.83,96.646H13.417V42.022A40.717,40.717,0,0,1,54.135,1.3H182.374" fill="#fff"/><path d="M183.2,1.391V1.347H54.961A40.636,40.636,0,0,0,25.281,14.21H151.52a40.674,40.674,0,0,0-11.037,27.855V60.838c-3.39.174-17.47.783-25.813-.738-9.517-1.739-7.779-9.17-14.862-9.387S82.3,54.407,73.951,56.145s-9.6-3.129-12.776-5.91c-4.736-4.172-15.209-1.173-27.247,3.259A175.351,175.351,0,0,0,14.2,62.055V84.087h126.24v12.6h81.393V42.065A40.564,40.564,0,0,0,183.2,1.391Z" fill="rgb(241,219,251)"/><path d="M33.581,313.4S80.3,327.311,89.856,370.637l-20.12.3s-2.781-17.948-12.689-34.026C47.965,322.1,33.581,313.4,33.581,313.4Z" fill="rgb(241,219,251)"/><path d="M160.69,308.147s-57.84,16.687-64.62,69.269L120.8,376.2s-1.651-11.994,8.344-30.636C138.092,328.875,160.69,308.147,160.69,308.147Z" fill="rgb(241,219,251)"/><path d="M161.819,307.5a1.285,1.285,0,0,0-1.477-.608,111.08,111.08,0,0,0-30.159,15.122c-14.166,9.952-31.853,27.638-35.416,55.233a1.284,1.284,0,0,0,.347,1.043,1.4,1.4,0,0,0,.956.435h.044L120.84,377.5a1.28,1.28,0,0,0,.956-.478,1.585,1.585,0,0,0,.3-.739v-.261c0-.087-.869-7.257,3.3-18.9.044-.131.087-.217.131-.348l.391-1.043c.087-.217.174-.434.261-.608a6.6,6.6,0,0,1,.347-.826c.131-.261.217-.565.348-.825.087-.218.174-.435.3-.7.13-.3.3-.652.435-1,.086-.218.173-.391.26-.609.174-.347.348-.738.522-1.086l.261-.522c.173-.391.391-.782.608-1.216a2.3,2.3,0,0,0,.217-.478c.3-.565.565-1.13.913-1.695q.325-.587.652-1.173c.043-.087.087-.131.13-.218.217-.391.435-.738.652-1.13.043-.086.13-.217.174-.3.217-.347.434-.738.7-1.086.087-.087.13-.217.217-.3.174-.261.348-.522.522-.826.087-.174.217-.3.3-.478.174-.3.391-.565.565-.869.13-.217.3-.435.434-.652a1.857,1.857,0,0,0,.218-.3c.3-.435.651-.913.956-1.347v-.044c10.255-14.123,25.552-28.246,25.726-28.42A1.23,1.23,0,0,0,161.819,307.5Zm-51.756,37.72a88.776,88.776,0,0,1,21.555-21.033,117.421,117.421,0,0,1,11.081-6.866c-1.087.869-2.216,1.825-3.346,2.825-9.083,8.256-20.99,23.466-26.03,49.322l-2,5.823-13.776.7A71.213,71.213,0,0,1,110.063,345.215Z" fill="#1a1a1a"/><path d="M63.739,300.238S82.3,311.145,94.593,335.959c12.689,25.595,9.995,38.024,9.995,38.024l-14.6-.913s-2.26-25.682-6.475-37.807A119.135,119.135,0,0,0,63.739,300.238Z" fill="rgb(241,219,251)"/><path d="M165.731,376.416c-.131,0-14.384-.825-23.727-4.563-5.911-2.346-12.907-4.606-20.164-3.65-1.869.261-3.563.522-5.215.782-5.823.956-10.429,1.695-17.208.305a49.664,49.664,0,0,1-6.475-1.956c-6.823-2.39-14.6-5.041-27.247-.608-2.043.695-4.042,1.607-6.171,2.52-6.649,2.912-14.167,6.171-27.247,7.083a1.305,1.305,0,0,0,.087,2.608h133.28a1.3,1.3,0,0,0,1.3-1.26A1.313,1.313,0,0,0,165.731,376.416Z" fill="#1a1a1a"/><path d="M183.852,317.577a1.276,1.276,0,0,0-1.478-.826c-38.067,7.04-49.583,23.293-58.839,36.329l-.609.826c-5.953,8.387-7.561,15.079-7.865,19.208a1.241,1.241,0,0,0,.347,1,1.4,1.4,0,0,0,.956.435h22.771a.546.546,0,0,0,.261-.044c.044,0,.044,0,.087-.043.044,0,.087-.044.174-.044a.154.154,0,0,0,.087-.043c.043,0,.087-.044.13-.087s.087-.043.087-.087l.087-.087h0c.043-.043.043-.087.087-.13,0-.044.043-.044.043-.087.044-.043.044-.087.087-.13,0-.044.044-.044.044-.087s.043-.131.043-.174v-.348s0-.478.044-1.347a46.589,46.589,0,0,1,4.476-16.47h0a10.622,10.622,0,0,1,.608-1.217c.043-.13.13-.217.174-.347.217-.391.391-.782.608-1.174a3.763,3.763,0,0,0,.261-.434c.13-.261.3-.478.435-.739.478-.782.956-1.564,1.477-2.3v-.043c11.3-16.557,34.417-29.811,34.678-29.985A1.131,1.131,0,0,0,183.852,317.577ZM125.1,355.427l.609-.826c7.648-10.777,16.9-23.814,42.282-31.679-8.734,4.65-20.859,12.863-28.811,25.726a90.668,90.668,0,0,0-9.734,23.292h-11.6C118.407,368.073,120.145,362.424,125.1,355.427Z" fill="#1a1a1a"/><path d="M91.16,370.332C86.119,347.561,70.823,332.96,58.872,324.7a99.055,99.055,0,0,0-24.9-12.559,1.316,1.316,0,0,0-1.043,2.39c.13.087,14.21,8.691,23.075,23.075,9.647,15.644,12.472,33.374,12.515,33.548,0,.044,0,.087.044.087,0,.043,0,.043.043.087a.228.228,0,0,0,.087.174v.043c.044.087.087.131.131.217h0l.043.044.13.13c.044.044.087.044.131.087l.043.044a1.233,1.233,0,0,0,.565.173h.087l7.3-.13c.043.174.13.3.173.478.478,1.26.826,2.216,1.7,2.216a2.575,2.575,0,0,0,.522-.087c.521-.173,1.086-.651.782-1.955-.044-.174-.087-.391-.174-.695l9.821-.131a1.3,1.3,0,0,0,1-.478A1.722,1.722,0,0,0,91.16,370.332Zm-11.907-.869c-.435-1.347-.956-3.042-1.608-5.127a89.506,89.506,0,0,0-21.206-35.5,80.615,80.615,0,0,0-9.6-8.344,98.266,98.266,0,0,1,10.6,6.388c11.255,7.779,25.6,21.424,30.767,42.457Z" fill="#1a1a1a"/><path d="M95.766,335.394c-12.341-24.9-30.593-35.808-31.375-36.286a1.272,1.272,0,0,0-1.651.3,1.371,1.371,0,0,0,0,1.7A117.606,117.606,0,0,1,82.208,335.7c3.085,8.822,5.128,25.161,6,33.027a1.606,1.606,0,0,0-.044.347,1.259,1.259,0,0,0,.218,1.043c.217,1.869.3,3.042.3,3.086a1.269,1.269,0,0,0,1.217,1.173l14.6.912h.087a1.3,1.3,0,0,0,1.26-1.043C105.935,373.766,108.5,361.12,95.766,335.394Zm7.649,37.242-6.649-.435c.391-2.39.3-8.691-3.477-25.248C90.16,333.221,81.86,320.1,75.646,311.71A95.742,95.742,0,0,1,93.42,336.524c6.431,12.95,8.734,22.38,9.6,27.985A36.7,36.7,0,0,1,103.415,372.636Z" fill="#1a1a1a"/><path d="M99.808,21.38a1.227,1.227,0,0,0-.913-.434L8.246,14.862A1.248,1.248,0,0,0,6.9,15.905L.033,50.974a1.114,1.114,0,0,0,.26,1.043,1.45,1.45,0,0,0,.956.478l18.339.7h.043a1.29,1.29,0,0,0,1.26-1.521L17.372,29.68l80.133,8.6a1.276,1.276,0,0,0,.956-.3,1.454,1.454,0,0,0,.478-.913l1.173-14.818A1.194,1.194,0,0,0,99.808,21.38Z" fill="#1a1a1a"/><circle cx="90.111" cy="29.252" r="3.607" transform="translate(55.59 117.479) rotate(-86.615)" fill="rgb(241,219,251)"/><path d="M183.156,51.8a14.906,14.906,0,1,1,14.906-14.906A14.93,14.93,0,0,1,183.156,51.8Zm0-27.16a12.3,12.3,0,1,0,12.3,12.3A12.314,12.314,0,0,0,183.156,24.64Z" fill="#fff"/><circle cx="183.156" cy="23.988" r="6.605" fill="#1a1a1a"/><path d="M182.591.043c-.086,0-.173-.043-.26-.043H54.092A42.081,42.081,0,0,0,12.07,42.022V96.646a1.281,1.281,0,0,0,1.3,1.3H153.65c0,.087-.044.217-.044.3a2.431,2.431,0,0,0,2.434,2.434h12.037a2.431,2.431,0,0,0,2.434-2.434.637.637,0,0,0-.044-.3h20.555c0,.087-.043.217-.043.3a2.43,2.43,0,0,0,2.433,2.434h12.037a2.43,2.43,0,0,0,2.434-2.434.637.637,0,0,0-.044-.3h14.037a1.28,1.28,0,0,0,1.3-1.3V42.022A42.017,42.017,0,0,0,182.591.043ZM54.092,2.651H166.643a42.079,42.079,0,0,0-27.421,39.414V83.74H14.721V42.065A39.428,39.428,0,0,1,54.092,2.651ZM220.616,95.343H141.83V42.022a39.415,39.415,0,1,1,78.829,0V95.343Z" fill="#1a1a1a"/></g></g></g>
              </svg>