<?xml version="1.0" encoding="UTF-8"?>
<svg xmlns="http://www.w3.org/2000/svg" xmlns:xlink="http://www.w3.org/1999/xlink" width="30pt" height="30.000001pt" viewBox="0 0 30 30.000001" version="1.2">
<defs>
<clipPath id="clip1">
  <path d="M 2 13 L 4 13 L 4 15 L 2 15 Z M 2 13 "/>
</clipPath>
<clipPath id="clip2">
  <path d="M 0.972656 -6.113281 L 35.90625 0.539062 L 29.253906 35.476562 L -5.683594 28.820312 Z M 0.972656 -6.113281 "/>
</clipPath>
<clipPath id="clip3">
  <path d="M 0.972656 -6.113281 L 35.90625 0.539062 L 29.253906 35.476562 L -5.683594 28.820312 Z M 0.972656 -6.113281 "/>
</clipPath>
<clipPath id="clip4">
  <path d="M 10 22 L 12 22 L 12 25 L 10 25 Z M 10 22 "/>
</clipPath>
<clipPath id="clip5">
  <path d="M 0.972656 -6.113281 L 35.90625 0.539062 L 29.253906 35.476562 L -5.683594 28.820312 Z M 0.972656 -6.113281 "/>
</clipPath>
<clipPath id="clip6">
  <path d="M 0.972656 -6.113281 L 35.90625 0.539062 L 29.253906 35.476562 L -5.683594 28.820312 Z M 0.972656 -6.113281 "/>
</clipPath>
<clipPath id="clip7">
  <path d="M 10 3 L 12 3 L 12 6 L 10 6 Z M 10 3 "/>
</clipPath>
<clipPath id="clip8">
  <path d="M 0.972656 -6.113281 L 35.90625 0.539062 L 29.253906 35.476562 L -5.683594 28.820312 Z M 0.972656 -6.113281 "/>
</clipPath>
<clipPath id="clip9">
  <path d="M 0.972656 -6.113281 L 35.90625 0.539062 L 29.253906 35.476562 L -5.683594 28.820312 Z M 0.972656 -6.113281 "/>
</clipPath>
<clipPath id="clip10">
  <path d="M 25 5 L 27 5 L 27 7 L 25 7 Z M 25 5 "/>
</clipPath>
<clipPath id="clip11">
  <path d="M 0.972656 -6.113281 L 35.90625 0.539062 L 29.253906 35.476562 L -5.683594 28.820312 Z M 0.972656 -6.113281 "/>
</clipPath>
<clipPath id="clip12">
  <path d="M 0.972656 -6.113281 L 35.90625 0.539062 L 29.253906 35.476562 L -5.683594 28.820312 Z M 0.972656 -6.113281 "/>
</clipPath>
<clipPath id="clip13">
  <path d="M 26 9 L 29 9 L 29 11 L 26 11 Z M 26 9 "/>
</clipPath>
<clipPath id="clip14">
  <path d="M 0.972656 -6.113281 L 35.90625 0.539062 L 29.253906 35.476562 L -5.683594 28.820312 Z M 0.972656 -6.113281 "/>
</clipPath>
<clipPath id="clip15">
  <path d="M 0.972656 -6.113281 L 35.90625 0.539062 L 29.253906 35.476562 L -5.683594 28.820312 Z M 0.972656 -6.113281 "/>
</clipPath>
<clipPath id="clip16">
  <path d="M 21 24 L 24 24 L 24 26 L 21 26 Z M 21 24 "/>
</clipPath>
<clipPath id="clip17">
  <path d="M 0.972656 -6.113281 L 35.90625 0.539062 L 29.253906 35.476562 L -5.683594 28.820312 Z M 0.972656 -6.113281 "/>
</clipPath>
<clipPath id="clip18">
  <path d="M 0.972656 -6.113281 L 35.90625 0.539062 L 29.253906 35.476562 L -5.683594 28.820312 Z M 0.972656 -6.113281 "/>
</clipPath>
<clipPath id="clip19">
  <path d="M 3 13 L 5 13 L 5 15 L 3 15 Z M 3 13 "/>
</clipPath>
<clipPath id="clip20">
  <path d="M 0.972656 -6.113281 L 35.90625 0.539062 L 29.253906 35.476562 L -5.683594 28.820312 Z M 0.972656 -6.113281 "/>
</clipPath>
<clipPath id="clip21">
  <path d="M 0.972656 -6.113281 L 35.90625 0.539062 L 29.253906 35.476562 L -5.683594 28.820312 Z M 0.972656 -6.113281 "/>
</clipPath>
<clipPath id="clip22">
  <path d="M 11 21 L 12 21 L 12 23 L 11 23 Z M 11 21 "/>
</clipPath>
<clipPath id="clip23">
  <path d="M 0.972656 -6.113281 L 35.90625 0.539062 L 29.253906 35.476562 L -5.683594 28.820312 Z M 0.972656 -6.113281 "/>
</clipPath>
<clipPath id="clip24">
  <path d="M 0.972656 -6.113281 L 35.90625 0.539062 L 29.253906 35.476562 L -5.683594 28.820312 Z M 0.972656 -6.113281 "/>
</clipPath>
<clipPath id="clip25">
  <path d="M 20 24 L 22 24 L 22 25 L 20 25 Z M 20 24 "/>
</clipPath>
<clipPath id="clip26">
  <path d="M 0.972656 -6.113281 L 35.90625 0.539062 L 29.253906 35.476562 L -5.683594 28.820312 Z M 0.972656 -6.113281 "/>
</clipPath>
<clipPath id="clip27">
  <path d="M 0.972656 -6.113281 L 35.90625 0.539062 L 29.253906 35.476562 L -5.683594 28.820312 Z M 0.972656 -6.113281 "/>
</clipPath>
<clipPath id="clip28">
  <path d="M 27 12 L 28 12 L 28 13 L 27 13 Z M 27 12 "/>
</clipPath>
<clipPath id="clip29">
  <path d="M 0.972656 -6.113281 L 35.90625 0.539062 L 29.253906 35.476562 L -5.683594 28.820312 Z M 0.972656 -6.113281 "/>
</clipPath>
<clipPath id="clip30">
  <path d="M 0.972656 -6.113281 L 35.90625 0.539062 L 29.253906 35.476562 L -5.683594 28.820312 Z M 0.972656 -6.113281 "/>
</clipPath>
<clipPath id="clip31">
  <path d="M 24 6 L 26 6 L 26 8 L 24 8 Z M 24 6 "/>
</clipPath>
<clipPath id="clip32">
  <path d="M 0.972656 -6.113281 L 35.90625 0.539062 L 29.253906 35.476562 L -5.683594 28.820312 Z M 0.972656 -6.113281 "/>
</clipPath>
<clipPath id="clip33">
  <path d="M 0.972656 -6.113281 L 35.90625 0.539062 L 29.253906 35.476562 L -5.683594 28.820312 Z M 0.972656 -6.113281 "/>
</clipPath>
<clipPath id="clip34">
  <path d="M 13 4 L 15 4 L 15 5 L 13 5 Z M 13 4 "/>
</clipPath>
<clipPath id="clip35">
  <path d="M 0.972656 -6.113281 L 35.90625 0.539062 L 29.253906 35.476562 L -5.683594 28.820312 Z M 0.972656 -6.113281 "/>
</clipPath>
<clipPath id="clip36">
  <path d="M 0.972656 -6.113281 L 35.90625 0.539062 L 29.253906 35.476562 L -5.683594 28.820312 Z M 0.972656 -6.113281 "/>
</clipPath>
<clipPath id="clip37">
  <path d="M 4 9 L 5 9 L 5 11 L 4 11 Z M 4 9 "/>
</clipPath>
<clipPath id="clip38">
  <path d="M 0.972656 -6.113281 L 35.90625 0.539062 L 29.253906 35.476562 L -5.683594 28.820312 Z M 0.972656 -6.113281 "/>
</clipPath>
<clipPath id="clip39">
  <path d="M 0.972656 -6.113281 L 35.90625 0.539062 L 29.253906 35.476562 L -5.683594 28.820312 Z M 0.972656 -6.113281 "/>
</clipPath>
<clipPath id="clip40">
  <path d="M 13 2 L 15 2 L 15 3 L 13 3 Z M 13 2 "/>
</clipPath>
<clipPath id="clip41">
  <path d="M 0.972656 -6.113281 L 35.90625 0.539062 L 29.253906 35.476562 L -5.683594 28.820312 Z M 0.972656 -6.113281 "/>
</clipPath>
<clipPath id="clip42">
  <path d="M 0.972656 -6.113281 L 35.90625 0.539062 L 29.253906 35.476562 L -5.683594 28.820312 Z M 0.972656 -6.113281 "/>
</clipPath>
<clipPath id="clip43">
  <path d="M 9 3 L 10 3 L 10 4 L 9 4 Z M 9 3 "/>
</clipPath>
<clipPath id="clip44">
  <path d="M 0.972656 -6.113281 L 35.90625 0.539062 L 29.253906 35.476562 L -5.683594 28.820312 Z M 0.972656 -6.113281 "/>
</clipPath>
<clipPath id="clip45">
  <path d="M 0.972656 -6.113281 L 35.90625 0.539062 L 29.253906 35.476562 L -5.683594 28.820312 Z M 0.972656 -6.113281 "/>
</clipPath>
<clipPath id="clip46">
  <path d="M 2 9 L 3 9 L 3 11 L 2 11 Z M 2 9 "/>
</clipPath>
<clipPath id="clip47">
  <path d="M 0.972656 -6.113281 L 35.90625 0.539062 L 29.253906 35.476562 L -5.683594 28.820312 Z M 0.972656 -6.113281 "/>
</clipPath>
<clipPath id="clip48">
  <path d="M 0.972656 -6.113281 L 35.90625 0.539062 L 29.253906 35.476562 L -5.683594 28.820312 Z M 0.972656 -6.113281 "/>
</clipPath>
<clipPath id="clip49">
  <path d="M 2 15 L 4 15 L 4 16 L 2 16 Z M 2 15 "/>
</clipPath>
<clipPath id="clip50">
  <path d="M 0.972656 -6.113281 L 35.90625 0.539062 L 29.253906 35.476562 L -5.683594 28.820312 Z M 0.972656 -6.113281 "/>
</clipPath>
<clipPath id="clip51">
  <path d="M 0.972656 -6.113281 L 35.90625 0.539062 L 29.253906 35.476562 L -5.683594 28.820312 Z M 0.972656 -6.113281 "/>
</clipPath>
<clipPath id="clip52">
  <path d="M 8 22 L 10 22 L 10 23 L 8 23 Z M 8 22 "/>
</clipPath>
<clipPath id="clip53">
  <path d="M 0.972656 -6.113281 L 35.90625 0.539062 L 29.253906 35.476562 L -5.683594 28.820312 Z M 0.972656 -6.113281 "/>
</clipPath>
<clipPath id="clip54">
  <path d="M 0.972656 -6.113281 L 35.90625 0.539062 L 29.253906 35.476562 L -5.683594 28.820312 Z M 0.972656 -6.113281 "/>
</clipPath>
<clipPath id="clip55">
  <path d="M 11 24 L 12 24 L 12 26 L 11 26 Z M 11 24 "/>
</clipPath>
<clipPath id="clip56">
  <path d="M 0.972656 -6.113281 L 35.90625 0.539062 L 29.253906 35.476562 L -5.683594 28.820312 Z M 0.972656 -6.113281 "/>
</clipPath>
<clipPath id="clip57">
  <path d="M 0.972656 -6.113281 L 35.90625 0.539062 L 29.253906 35.476562 L -5.683594 28.820312 Z M 0.972656 -6.113281 "/>
</clipPath>
<clipPath id="clip58">
  <path d="M 19 26 L 20 26 L 20 27 L 19 27 Z M 19 26 "/>
</clipPath>
<clipPath id="clip59">
  <path d="M 0.972656 -6.113281 L 35.90625 0.539062 L 29.253906 35.476562 L -5.683594 28.820312 Z M 0.972656 -6.113281 "/>
</clipPath>
<clipPath id="clip60">
  <path d="M 0.972656 -6.113281 L 35.90625 0.539062 L 29.253906 35.476562 L -5.683594 28.820312 Z M 0.972656 -6.113281 "/>
</clipPath>
<clipPath id="clip61">
  <path d="M 25 24 L 27 24 L 27 25 L 25 25 Z M 25 24 "/>
</clipPath>
<clipPath id="clip62">
  <path d="M 0.972656 -6.113281 L 35.90625 0.539062 L 29.253906 35.476562 L -5.683594 28.820312 Z M 0.972656 -6.113281 "/>
</clipPath>
<clipPath id="clip63">
  <path d="M 0.972656 -6.113281 L 35.90625 0.539062 L 29.253906 35.476562 L -5.683594 28.820312 Z M 0.972656 -6.113281 "/>
</clipPath>
<clipPath id="clip64">
  <path d="M 22 26 L 24 26 L 24 27 L 22 27 Z M 22 26 "/>
</clipPath>
<clipPath id="clip65">
  <path d="M 0.972656 -6.113281 L 35.90625 0.539062 L 29.253906 35.476562 L -5.683594 28.820312 Z M 0.972656 -6.113281 "/>
</clipPath>
<clipPath id="clip66">
  <path d="M 0.972656 -6.113281 L 35.90625 0.539062 L 29.253906 35.476562 L -5.683594 28.820312 Z M 0.972656 -6.113281 "/>
</clipPath>
<clipPath id="clip67">
  <path d="M 28 14 L 29 14 L 29 15 L 28 15 Z M 28 14 "/>
</clipPath>
<clipPath id="clip68">
  <path d="M 0.972656 -6.113281 L 35.90625 0.539062 L 29.253906 35.476562 L -5.683594 28.820312 Z M 0.972656 -6.113281 "/>
</clipPath>
<clipPath id="clip69">
  <path d="M 0.972656 -6.113281 L 35.90625 0.539062 L 29.253906 35.476562 L -5.683594 28.820312 Z M 0.972656 -6.113281 "/>
</clipPath>
<clipPath id="clip70">
  <path d="M 29 11 L 29.515625 11 L 29.515625 13 L 29 13 Z M 29 11 "/>
</clipPath>
<clipPath id="clip71">
  <path d="M 0.972656 -6.113281 L 35.90625 0.539062 L 29.253906 35.476562 L -5.683594 28.820312 Z M 0.972656 -6.113281 "/>
</clipPath>
<clipPath id="clip72">
  <path d="M 0.972656 -6.113281 L 35.90625 0.539062 L 29.253906 35.476562 L -5.683594 28.820312 Z M 0.972656 -6.113281 "/>
</clipPath>
<clipPath id="clip73">
  <path d="M 28 9 L 29.515625 9 L 29.515625 10 L 28 10 Z M 28 9 "/>
</clipPath>
<clipPath id="clip74">
  <path d="M 0.972656 -6.113281 L 35.90625 0.539062 L 29.253906 35.476562 L -5.683594 28.820312 Z M 0.972656 -6.113281 "/>
</clipPath>
<clipPath id="clip75">
  <path d="M 0.972656 -6.113281 L 35.90625 0.539062 L 29.253906 35.476562 L -5.683594 28.820312 Z M 0.972656 -6.113281 "/>
</clipPath>
<clipPath id="clip76">
  <path d="M 27 3 L 28 3 L 28 4 L 27 4 Z M 27 3 "/>
</clipPath>
<clipPath id="clip77">
  <path d="M 0.972656 -6.113281 L 35.90625 0.539062 L 29.253906 35.476562 L -5.683594 28.820312 Z M 0.972656 -6.113281 "/>
</clipPath>
<clipPath id="clip78">
  <path d="M 0.972656 -6.113281 L 35.90625 0.539062 L 29.253906 35.476562 L -5.683594 28.820312 Z M 0.972656 -6.113281 "/>
</clipPath>
<clipPath id="clip79">
  <path d="M 11 2 L 12 2 L 12 3 L 11 3 Z M 11 2 "/>
</clipPath>
<clipPath id="clip80">
  <path d="M 0.972656 -6.113281 L 35.90625 0.539062 L 29.253906 35.476562 L -5.683594 28.820312 Z M 0.972656 -6.113281 "/>
</clipPath>
<clipPath id="clip81">
  <path d="M 0.972656 -6.113281 L 35.90625 0.539062 L 29.253906 35.476562 L -5.683594 28.820312 Z M 0.972656 -6.113281 "/>
</clipPath>
<clipPath id="clip82">
  <path d="M 4 3 L 28 3 L 28 26 L 4 26 Z M 4 3 "/>
</clipPath>
<clipPath id="clip83">
  <path d="M 0.972656 -6.113281 L 35.90625 0.539062 L 29.253906 35.476562 L -5.683594 28.820312 Z M 0.972656 -6.113281 "/>
</clipPath>
<clipPath id="clip84">
  <path d="M 0.972656 -6.113281 L 35.90625 0.539062 L 29.253906 35.476562 L -5.683594 28.820312 Z M 0.972656 -6.113281 "/>
</clipPath>
<clipPath id="clip85">
  <path d="M 23 6 L 29.515625 6 L 29.515625 9 L 23 9 Z M 23 6 "/>
</clipPath>
<clipPath id="clip86">
  <path d="M 0.972656 -6.113281 L 35.90625 0.539062 L 29.253906 35.476562 L -5.683594 28.820312 Z M 0.972656 -6.113281 "/>
</clipPath>
<clipPath id="clip87">
  <path d="M 0.972656 -6.113281 L 35.90625 0.539062 L 29.253906 35.476562 L -5.683594 28.820312 Z M 0.972656 -6.113281 "/>
</clipPath>
<clipPath id="clip88">
  <path d="M 13 23 L 15 23 L 15 28 L 13 28 Z M 13 23 "/>
</clipPath>
<clipPath id="clip89">
  <path d="M 0.972656 -6.113281 L 35.90625 0.539062 L 29.253906 35.476562 L -5.683594 28.820312 Z M 0.972656 -6.113281 "/>
</clipPath>
<clipPath id="clip90">
  <path d="M 0.972656 -6.113281 L 35.90625 0.539062 L 29.253906 35.476562 L -5.683594 28.820312 Z M 0.972656 -6.113281 "/>
</clipPath>
<clipPath id="clip91">
  <path d="M 0.484375 11 L 5 11 L 5 14 L 0.484375 14 Z M 0.484375 11 "/>
</clipPath>
<clipPath id="clip92">
  <path d="M 0.972656 -6.113281 L 35.90625 0.539062 L 29.253906 35.476562 L -5.683594 28.820312 Z M 0.972656 -6.113281 "/>
</clipPath>
<clipPath id="clip93">
  <path d="M 0.972656 -6.113281 L 35.90625 0.539062 L 29.253906 35.476562 L -5.683594 28.820312 Z M 0.972656 -6.113281 "/>
</clipPath>
</defs>
<g id="surface1">
<g clip-path="url(#clip1)" clip-rule="nonzero">
<g clip-path="url(#clip2)" clip-rule="nonzero">
<g clip-path="url(#clip3)" clip-rule="nonzero">
<path style=" stroke:none;fill-rule:nonzero;fill:rgb(94.509888%,85.879517%,98.429871%);fill-opacity:1;" d="M 2.632812 14.433594 C 2.519531 14.410156 2.402344 14.371094 2.285156 14.3125 C 1.785156 14.058594 2.289062 13.398438 2.289062 13.398438 C 2.382812 13.257812 2.675781 13.253906 2.941406 13.230469 C 2.976562 13.226562 3.007812 13.226562 3.039062 13.234375 C 3.238281 13.269531 3.34375 13.515625 3.308594 13.964844 C 3.277344 14.363281 2.988281 14.5 2.632812 14.433594 "/>
</g>
</g>
</g>
<g clip-path="url(#clip4)" clip-rule="nonzero">
<g clip-path="url(#clip5)" clip-rule="nonzero">
<g clip-path="url(#clip6)" clip-rule="nonzero">
<path style=" stroke:none;fill-rule:nonzero;fill:rgb(94.509888%,85.879517%,98.429871%);fill-opacity:1;" d="M 11.261719 24.191406 C 11.152344 24.171875 11.035156 24.128906 10.917969 24.070312 C 10.417969 23.820312 10.921875 23.15625 10.921875 23.15625 C 11.015625 23.015625 11.308594 23.015625 11.574219 22.988281 C 11.609375 22.984375 11.640625 22.984375 11.671875 22.992188 C 11.871094 23.03125 11.976562 23.273438 11.941406 23.726562 C 11.910156 24.121094 11.621094 24.261719 11.261719 24.191406 "/>
</g>
</g>
</g>
<g clip-path="url(#clip7)" clip-rule="nonzero">
<g clip-path="url(#clip8)" clip-rule="nonzero">
<g clip-path="url(#clip9)" clip-rule="nonzero">
<path style=" stroke:none;fill-rule:nonzero;fill:rgb(94.509888%,85.879517%,98.429871%);fill-opacity:1;" d="M 11.226562 5 C 11.117188 4.976562 11 4.9375 10.882812 4.878906 C 10.382812 4.625 10.886719 3.964844 10.886719 3.964844 C 10.980469 3.820312 11.273438 3.820312 11.539062 3.796875 C 11.570312 3.792969 11.605469 3.792969 11.632812 3.800781 C 11.835938 3.835938 11.9375 4.082031 11.90625 4.53125 C 11.875 4.929688 11.585938 5.066406 11.226562 5 "/>
</g>
</g>
</g>
<g clip-path="url(#clip10)" clip-rule="nonzero">
<g clip-path="url(#clip11)" clip-rule="nonzero">
<g clip-path="url(#clip12)" clip-rule="nonzero">
<path style=" stroke:none;fill-rule:nonzero;fill:rgb(94.509888%,85.879517%,98.429871%);fill-opacity:1;" d="M 26.039062 6.386719 C 25.925781 6.367188 25.808594 6.324219 25.691406 6.265625 C 25.191406 6.015625 25.695312 5.351562 25.695312 5.351562 C 25.789062 5.210938 26.082031 5.210938 26.347656 5.183594 C 26.382812 5.179688 26.414062 5.179688 26.445312 5.1875 C 26.644531 5.226562 26.75 5.46875 26.714844 5.921875 C 26.683594 6.316406 26.394531 6.457031 26.039062 6.386719 "/>
</g>
</g>
</g>
<g clip-path="url(#clip13)" clip-rule="nonzero">
<g clip-path="url(#clip14)" clip-rule="nonzero">
<g clip-path="url(#clip15)" clip-rule="nonzero">
<path style=" stroke:none;fill-rule:nonzero;fill:rgb(94.509888%,85.879517%,98.429871%);fill-opacity:1;" d="M 27.40625 10.804688 C 27.292969 10.785156 27.175781 10.742188 27.058594 10.683594 C 26.558594 10.433594 27.0625 9.769531 27.0625 9.769531 C 27.15625 9.628906 27.449219 9.628906 27.714844 9.601562 C 27.75 9.597656 27.78125 9.597656 27.8125 9.605469 C 28.011719 9.644531 28.117188 9.886719 28.082031 10.339844 C 28.050781 10.734375 27.761719 10.875 27.40625 10.804688 "/>
</g>
</g>
</g>
<g clip-path="url(#clip16)" clip-rule="nonzero">
<g clip-path="url(#clip17)" clip-rule="nonzero">
<g clip-path="url(#clip18)" clip-rule="nonzero">
<path style=" stroke:none;fill-rule:nonzero;fill:rgb(94.509888%,85.879517%,98.429871%);fill-opacity:1;" d="M 22.460938 25.464844 C 22.351562 25.441406 22.234375 25.402344 22.113281 25.339844 C 21.613281 25.089844 22.121094 24.429688 22.121094 24.429688 C 22.210938 24.285156 22.507812 24.285156 22.769531 24.257812 C 22.804688 24.253906 22.835938 24.257812 22.867188 24.261719 C 23.066406 24.300781 23.171875 24.542969 23.136719 24.996094 C 23.105469 25.390625 22.816406 25.53125 22.460938 25.464844 "/>
</g>
</g>
</g>
<g clip-path="url(#clip19)" clip-rule="nonzero">
<g clip-path="url(#clip20)" clip-rule="nonzero">
<g clip-path="url(#clip21)" clip-rule="nonzero">
<path style=" stroke:none;fill-rule:nonzero;fill:rgb(94.509888%,85.879517%,98.429871%);fill-opacity:1;" d="M 4.039062 14.410156 L 4.035156 14.410156 C 3.835938 14.367188 3.964844 14.003906 3.964844 14.003906 C 3.988281 13.917969 4.078125 13.816406 4.230469 13.84375 C 4.28125 13.851562 4.339844 13.878906 4.402344 13.921875 C 4.65625 14.101562 4.242188 14.449219 4.039062 14.410156 "/>
</g>
</g>
</g>
<g clip-path="url(#clip22)" clip-rule="nonzero">
<g clip-path="url(#clip23)" clip-rule="nonzero">
<g clip-path="url(#clip24)" clip-rule="nonzero">
<path style=" stroke:none;fill-rule:nonzero;fill:rgb(94.509888%,85.879517%,98.429871%);fill-opacity:1;" d="M 11.363281 22.03125 L 11.359375 22.03125 C 11.15625 21.988281 11.289062 21.625 11.289062 21.625 C 11.308594 21.539062 11.402344 21.4375 11.554688 21.464844 C 11.605469 21.472656 11.660156 21.5 11.726562 21.542969 C 11.976562 21.722656 11.566406 22.070312 11.363281 22.03125 "/>
</g>
</g>
</g>
<g clip-path="url(#clip25)" clip-rule="nonzero">
<g clip-path="url(#clip26)" clip-rule="nonzero">
<g clip-path="url(#clip27)" clip-rule="nonzero">
<path style=" stroke:none;fill-rule:nonzero;fill:rgb(94.509888%,85.879517%,98.429871%);fill-opacity:1;" d="M 20.746094 24.984375 L 20.742188 24.984375 C 20.542969 24.941406 20.671875 24.578125 20.671875 24.578125 C 20.695312 24.492188 20.785156 24.390625 20.9375 24.417969 C 20.988281 24.429688 21.046875 24.453125 21.109375 24.5 C 21.363281 24.675781 20.949219 25.023438 20.746094 24.984375 "/>
</g>
</g>
</g>
<g clip-path="url(#clip28)" clip-rule="nonzero">
<g clip-path="url(#clip29)" clip-rule="nonzero">
<g clip-path="url(#clip30)" clip-rule="nonzero">
<path style=" stroke:none;fill-rule:nonzero;fill:rgb(94.509888%,85.879517%,98.429871%);fill-opacity:1;" d="M 27.457031 12.65625 C 27.253906 12.613281 27.382812 12.25 27.382812 12.25 C 27.40625 12.167969 27.496094 12.0625 27.648438 12.089844 C 27.699219 12.101562 27.757812 12.125 27.820312 12.171875 C 28.074219 12.351562 27.660156 12.695312 27.457031 12.65625 "/>
</g>
</g>
</g>
<g clip-path="url(#clip31)" clip-rule="nonzero">
<g clip-path="url(#clip32)" clip-rule="nonzero">
<g clip-path="url(#clip33)" clip-rule="nonzero">
<path style=" stroke:none;fill-rule:nonzero;fill:rgb(94.509888%,85.879517%,98.429871%);fill-opacity:1;" d="M 24.734375 7.128906 L 24.730469 7.128906 C 24.527344 7.085938 24.660156 6.722656 24.660156 6.722656 C 24.679688 6.640625 24.773438 6.535156 24.921875 6.5625 C 24.976562 6.574219 25.03125 6.597656 25.097656 6.644531 C 25.347656 6.824219 24.9375 7.167969 24.734375 7.128906 "/>
</g>
</g>
</g>
<g clip-path="url(#clip34)" clip-rule="nonzero">
<g clip-path="url(#clip35)" clip-rule="nonzero">
<g clip-path="url(#clip36)" clip-rule="nonzero">
<path style=" stroke:none;fill-rule:nonzero;fill:rgb(94.509888%,85.879517%,98.429871%);fill-opacity:1;" d="M 13.730469 4.691406 L 13.726562 4.691406 C 13.523438 4.648438 13.65625 4.285156 13.65625 4.285156 C 13.675781 4.199219 13.769531 4.097656 13.921875 4.125 C 13.972656 4.136719 14.027344 4.160156 14.09375 4.207031 C 14.34375 4.382812 13.933594 4.730469 13.730469 4.691406 "/>
</g>
</g>
</g>
<g clip-path="url(#clip37)" clip-rule="nonzero">
<g clip-path="url(#clip38)" clip-rule="nonzero">
<g clip-path="url(#clip39)" clip-rule="nonzero">
<path style=" stroke:none;fill-rule:nonzero;fill:rgb(94.509888%,85.879517%,98.429871%);fill-opacity:1;" d="M 4.40625 10.132812 L 4.402344 10.132812 C 4.203125 10.089844 4.332031 9.730469 4.332031 9.730469 C 4.355469 9.644531 4.449219 9.539062 4.597656 9.570312 C 4.648438 9.578125 4.707031 9.605469 4.769531 9.648438 C 5.023438 9.828125 4.609375 10.171875 4.40625 10.132812 "/>
</g>
</g>
</g>
<g clip-path="url(#clip40)" clip-rule="nonzero">
<g clip-path="url(#clip41)" clip-rule="nonzero">
<g clip-path="url(#clip42)" clip-rule="nonzero">
<path style=" stroke:none;fill-rule:nonzero;fill:rgb(94.509888%,85.879517%,98.429871%);fill-opacity:1;" d="M 14.042969 2.785156 C 13.960938 2.769531 13.882812 2.6875 13.855469 2.640625 C 13.8125 2.574219 13.960938 2.511719 13.960938 2.511719 C 14.019531 2.488281 14.066406 2.484375 14.101562 2.488281 C 14.222656 2.511719 14.214844 2.675781 14.179688 2.722656 C 14.136719 2.78125 14.089844 2.792969 14.042969 2.785156 "/>
</g>
</g>
</g>
<g clip-path="url(#clip43)" clip-rule="nonzero">
<g clip-path="url(#clip44)" clip-rule="nonzero">
<g clip-path="url(#clip45)" clip-rule="nonzero">
<path style=" stroke:none;fill-rule:nonzero;fill:rgb(94.509888%,85.879517%,98.429871%);fill-opacity:1;" d="M 9.554688 3.796875 C 9.472656 3.78125 9.398438 3.699219 9.371094 3.65625 C 9.324219 3.589844 9.472656 3.523438 9.472656 3.523438 C 9.53125 3.5 9.578125 3.496094 9.617188 3.503906 C 9.738281 3.527344 9.730469 3.6875 9.691406 3.734375 C 9.652344 3.792969 9.601562 3.804688 9.554688 3.796875 "/>
</g>
</g>
</g>
<g clip-path="url(#clip46)" clip-rule="nonzero">
<g clip-path="url(#clip47)" clip-rule="nonzero">
<g clip-path="url(#clip48)" clip-rule="nonzero">
<path style=" stroke:none;fill-rule:nonzero;fill:rgb(94.509888%,85.879517%,98.429871%);fill-opacity:1;" d="M 2.40625 10.257812 C 2.324219 10.242188 2.25 10.160156 2.222656 10.117188 C 2.175781 10.046875 2.324219 9.984375 2.324219 9.984375 C 2.382812 9.960938 2.429688 9.957031 2.464844 9.964844 C 2.589844 9.988281 2.578125 10.148438 2.542969 10.195312 C 2.5 10.253906 2.453125 10.265625 2.40625 10.257812 "/>
</g>
</g>
</g>
<g clip-path="url(#clip49)" clip-rule="nonzero">
<g clip-path="url(#clip50)" clip-rule="nonzero">
<g clip-path="url(#clip51)" clip-rule="nonzero">
<path style=" stroke:none;fill-rule:nonzero;fill:rgb(94.509888%,85.879517%,98.429871%);fill-opacity:1;" d="M 3.035156 15.953125 C 2.953125 15.9375 2.878906 15.855469 2.851562 15.8125 C 2.804688 15.746094 2.953125 15.679688 2.953125 15.679688 C 3.011719 15.65625 3.058594 15.652344 3.09375 15.660156 C 3.21875 15.683594 3.207031 15.847656 3.171875 15.894531 C 3.132812 15.949219 3.082031 15.964844 3.035156 15.953125 "/>
</g>
</g>
</g>
<g clip-path="url(#clip52)" clip-rule="nonzero">
<g clip-path="url(#clip53)" clip-rule="nonzero">
<g clip-path="url(#clip54)" clip-rule="nonzero">
<path style=" stroke:none;fill-rule:nonzero;fill:rgb(94.509888%,85.879517%,98.429871%);fill-opacity:1;" d="M 8.972656 22.96875 C 8.894531 22.953125 8.816406 22.871094 8.789062 22.828125 C 8.746094 22.761719 8.890625 22.695312 8.890625 22.695312 C 8.953125 22.671875 9 22.667969 9.035156 22.675781 C 9.15625 22.699219 9.148438 22.859375 9.113281 22.910156 C 9.070312 22.964844 9.019531 22.980469 8.972656 22.96875 "/>
</g>
</g>
</g>
<g clip-path="url(#clip55)" clip-rule="nonzero">
<g clip-path="url(#clip56)" clip-rule="nonzero">
<g clip-path="url(#clip57)" clip-rule="nonzero">
<path style=" stroke:none;fill-rule:nonzero;fill:rgb(94.509888%,85.879517%,98.429871%);fill-opacity:1;" d="M 11.6875 25.101562 C 11.605469 25.085938 11.53125 25.003906 11.503906 24.960938 C 11.457031 24.894531 11.605469 24.828125 11.605469 24.828125 C 11.664062 24.804688 11.710938 24.800781 11.75 24.808594 C 11.871094 24.832031 11.863281 24.992188 11.828125 25.039062 C 11.785156 25.097656 11.734375 25.109375 11.6875 25.101562 "/>
</g>
</g>
</g>
<g clip-path="url(#clip58)" clip-rule="nonzero">
<g clip-path="url(#clip59)" clip-rule="nonzero">
<g clip-path="url(#clip60)" clip-rule="nonzero">
<path style=" stroke:none;fill-rule:nonzero;fill:rgb(94.509888%,85.879517%,98.429871%);fill-opacity:1;" d="M 19.742188 26.996094 C 19.660156 26.980469 19.585938 26.898438 19.558594 26.855469 C 19.511719 26.789062 19.660156 26.722656 19.660156 26.722656 C 19.71875 26.699219 19.765625 26.695312 19.800781 26.703125 C 19.925781 26.726562 19.914062 26.886719 19.878906 26.9375 C 19.835938 26.992188 19.789062 27.003906 19.742188 26.996094 "/>
</g>
</g>
</g>
<g clip-path="url(#clip61)" clip-rule="nonzero">
<g clip-path="url(#clip62)" clip-rule="nonzero">
<g clip-path="url(#clip63)" clip-rule="nonzero">
<path style=" stroke:none;fill-rule:nonzero;fill:rgb(94.509888%,85.879517%,98.429871%);fill-opacity:1;" d="M 26.175781 24.765625 C 26.09375 24.75 26.019531 24.664062 25.992188 24.621094 C 25.949219 24.554688 26.09375 24.488281 26.09375 24.488281 C 26.15625 24.46875 26.199219 24.464844 26.234375 24.46875 C 26.359375 24.492188 26.351562 24.65625 26.3125 24.703125 C 26.273438 24.757812 26.222656 24.773438 26.175781 24.765625 "/>
</g>
</g>
</g>
<g clip-path="url(#clip64)" clip-rule="nonzero">
<g clip-path="url(#clip65)" clip-rule="nonzero">
<g clip-path="url(#clip66)" clip-rule="nonzero">
<path style=" stroke:none;fill-rule:nonzero;fill:rgb(94.509888%,85.879517%,98.429871%);fill-opacity:1;" d="M 22.914062 26.480469 C 22.832031 26.464844 22.757812 26.382812 22.730469 26.339844 C 22.683594 26.273438 22.832031 26.207031 22.832031 26.207031 C 22.890625 26.183594 22.9375 26.179688 22.972656 26.1875 C 23.097656 26.210938 23.085938 26.371094 23.050781 26.421875 C 23.007812 26.476562 22.960938 26.492188 22.914062 26.480469 "/>
</g>
</g>
</g>
<g clip-path="url(#clip67)" clip-rule="nonzero">
<g clip-path="url(#clip68)" clip-rule="nonzero">
<g clip-path="url(#clip69)" clip-rule="nonzero">
<path style=" stroke:none;fill-rule:nonzero;fill:rgb(94.509888%,85.879517%,98.429871%);fill-opacity:1;" d="M 28.398438 14.304688 C 28.316406 14.289062 28.242188 14.207031 28.210938 14.164062 C 28.167969 14.09375 28.316406 14.03125 28.316406 14.03125 C 28.375 14.007812 28.421875 14.003906 28.457031 14.011719 C 28.578125 14.035156 28.570312 14.195312 28.535156 14.242188 C 28.492188 14.300781 28.445312 14.3125 28.398438 14.304688 "/>
</g>
</g>
</g>
<g clip-path="url(#clip70)" clip-rule="nonzero">
<g clip-path="url(#clip71)" clip-rule="nonzero">
<g clip-path="url(#clip72)" clip-rule="nonzero">
<path style=" stroke:none;fill-rule:nonzero;fill:rgb(94.509888%,85.879517%,98.429871%);fill-opacity:1;" d="M 29.335938 12.207031 C 29.253906 12.191406 29.175781 12.105469 29.148438 12.0625 C 29.105469 11.996094 29.253906 11.929688 29.253906 11.929688 C 29.3125 11.910156 29.359375 11.90625 29.394531 11.910156 C 29.515625 11.933594 29.507812 12.097656 29.472656 12.144531 C 29.429688 12.199219 29.382812 12.214844 29.335938 12.207031 "/>
</g>
</g>
</g>
<g clip-path="url(#clip73)" clip-rule="nonzero">
<g clip-path="url(#clip74)" clip-rule="nonzero">
<g clip-path="url(#clip75)" clip-rule="nonzero">
<path style=" stroke:none;fill-rule:nonzero;fill:rgb(94.509888%,85.879517%,98.429871%);fill-opacity:1;" d="M 28.9375 9.363281 C 28.855469 9.347656 28.78125 9.265625 28.75 9.222656 C 28.707031 9.152344 28.855469 9.085938 28.855469 9.085938 C 28.914062 9.066406 28.960938 9.0625 28.996094 9.066406 C 29.121094 9.089844 29.109375 9.253906 29.074219 9.300781 C 29.03125 9.355469 28.984375 9.371094 28.9375 9.363281 "/>
</g>
</g>
</g>
<g clip-path="url(#clip76)" clip-rule="nonzero">
<g clip-path="url(#clip77)" clip-rule="nonzero">
<g clip-path="url(#clip78)" clip-rule="nonzero">
<path style=" stroke:none;fill-rule:nonzero;fill:rgb(94.509888%,85.879517%,98.429871%);fill-opacity:1;" d="M 27.675781 3.828125 C 27.59375 3.8125 27.515625 3.730469 27.488281 3.6875 C 27.445312 3.621094 27.59375 3.554688 27.59375 3.554688 C 27.652344 3.53125 27.699219 3.527344 27.734375 3.535156 C 27.859375 3.558594 27.847656 3.71875 27.8125 3.769531 C 27.769531 3.824219 27.722656 3.839844 27.675781 3.828125 "/>
</g>
</g>
</g>
<g clip-path="url(#clip79)" clip-rule="nonzero">
<g clip-path="url(#clip80)" clip-rule="nonzero">
<g clip-path="url(#clip81)" clip-rule="nonzero">
<path style=" stroke:none;fill-rule:nonzero;fill:rgb(94.509888%,85.879517%,98.429871%);fill-opacity:1;" d="M 11.46875 2.609375 C 11.386719 2.59375 11.3125 2.511719 11.28125 2.46875 C 11.238281 2.402344 11.386719 2.335938 11.386719 2.335938 C 11.445312 2.3125 11.492188 2.308594 11.527344 2.316406 C 11.652344 2.339844 11.640625 2.5 11.605469 2.546875 C 11.5625 2.605469 11.515625 2.617188 11.46875 2.609375 "/>
</g>
</g>
</g>
<g clip-path="url(#clip82)" clip-rule="nonzero">
<g clip-path="url(#clip83)" clip-rule="nonzero">
<g clip-path="url(#clip84)" clip-rule="nonzero">
<path style=" stroke:none;fill-rule:nonzero;fill:rgb(94.509888%,85.879517%,98.429871%);fill-opacity:1;" d="M 15.78125 25.445312 C 14.675781 25.238281 14.703125 24.441406 14.753906 22.808594 C 14.777344 21.949219 14.582031 21.601562 14.382812 21.566406 C 14.269531 21.542969 14.15625 21.625 14.085938 21.769531 C 13.539062 22.882812 13.847656 23.4375 13.378906 23.398438 C 13.363281 23.394531 13.351562 23.394531 13.339844 23.390625 C 12.90625 23.308594 12.90625 22.445312 13.230469 21.175781 C 13.441406 20.363281 12.984375 19.539062 12.339844 19.417969 C 11.957031 19.34375 11.503906 19.523438 11.09375 20.109375 C 10.546875 20.890625 11.222656 22.023438 10.339844 21.902344 C 10.328125 21.902344 10.320312 21.898438 10.308594 21.898438 C 9.34375 21.714844 10.367188 19.179688 10.914062 18.101562 C 11.46875 17.011719 10.960938 16.355469 10.554688 16.1875 C 10.527344 16.175781 10.503906 16.171875 10.476562 16.167969 C 9.960938 16.066406 9.472656 17.09375 9.230469 17.648438 C 9.046875 18.066406 8.34375 18.574219 7.957031 18.5 C 7.804688 18.472656 7.703125 18.351562 7.699219 18.101562 C 7.683594 17.210938 9.21875 16.351562 8.660156 15.875 C 8.523438 15.761719 8.417969 15.703125 8.300781 15.683594 C 7.941406 15.613281 7.535156 15.910156 6.191406 15.953125 C 5.972656 15.957031 5.785156 15.945312 5.625 15.914062 C 4.507812 15.703125 4.820312 14.667969 5.234375 14.253906 C 5.707031 13.777344 6.398438 13.328125 6.488281 11.625 C 6.578125 9.917969 5.578125 9.242188 5.8125 8.476562 C 6.046875 7.714844 7.839844 8.113281 8.503906 7.546875 C 9.167969 6.980469 8.863281 6.167969 8.496094 5.910156 C 8.132812 5.65625 7.542969 4.945312 7.960938 4.375 C 8.113281 4.167969 8.304688 4.101562 8.492188 4.136719 C 8.824219 4.199219 9.140625 4.585938 9.207031 5.105469 C 9.292969 5.78125 9.726562 6.425781 10.484375 6.570312 C 10.636719 6.597656 10.796875 6.609375 10.972656 6.59375 C 11.984375 6.511719 11.855469 5.640625 12.554688 5.773438 C 12.585938 5.78125 12.625 5.789062 12.660156 5.800781 C 13.480469 6.046875 14.378906 7.554688 14.699219 8.089844 C 14.777344 8.21875 14.894531 8.292969 15.023438 8.316406 C 15.363281 8.382812 15.796875 8.097656 15.898438 7.554688 C 15.976562 7.144531 16.207031 7.015625 16.417969 7.054688 C 16.664062 7.101562 16.886719 7.382812 16.792969 7.738281 C 16.664062 8.222656 17.050781 8.488281 17.433594 8.5625 C 17.566406 8.585938 17.699219 8.589844 17.804688 8.566406 C 18.269531 8.476562 18.484375 7.4375 18.667969 6.691406 C 18.761719 6.304688 19.015625 6.121094 19.269531 6.167969 C 19.503906 6.214844 19.742188 6.457031 19.851562 6.917969 C 20.042969 7.726562 19.679688 8.363281 20.308594 8.515625 C 20.320312 8.515625 20.328125 8.519531 20.339844 8.519531 C 21.632812 8.769531 23.246094 5.148438 23.40625 4.625 C 23.710938 3.601562 24.25 3.1875 24.800781 3.292969 C 24.9375 3.316406 25.074219 3.375 25.210938 3.464844 C 26.207031 4.125 25.359375 5.292969 24.503906 5.839844 C 23.644531 6.386719 23.15625 6.527344 22.164062 7.707031 C 21.332031 8.691406 22.105469 9.339844 23.023438 9.515625 C 23.203125 9.550781 23.386719 9.566406 23.5625 9.5625 C 24.066406 9.554688 24.472656 9.578125 24.804688 9.644531 C 25.855469 9.84375 26.117188 10.4375 26.085938 11.660156 C 26.046875 13.265625 26.003906 15.140625 26.421875 16.199219 C 27.101562 17.921875 26.214844 18.28125 25.730469 19.109375 C 25.242188 19.941406 27.6875 19.980469 27.199219 20.808594 C 27.101562 20.980469 26.953125 21.019531 26.78125 20.988281 C 26.542969 20.941406 26.253906 20.753906 25.960938 20.566406 C 25.667969 20.382812 25.375 20.195312 25.125 20.148438 C 24.917969 20.109375 24.746094 20.164062 24.628906 20.398438 C 24.140625 21.394531 26.890625 23.054688 25.929688 23.925781 C 25.753906 24.085938 25.554688 24.125 25.339844 24.085938 C 24.917969 24.003906 24.433594 23.617188 23.949219 23.226562 C 23.464844 22.839844 22.976562 22.453125 22.546875 22.367188 C 22.425781 22.347656 22.308594 22.347656 22.199219 22.375 C 21.089844 22.6875 21.144531 23.304688 20.667969 23.457031 C 20.550781 23.496094 20.445312 23.496094 20.339844 23.476562 C 20.234375 23.453125 20.125 23.414062 20 23.367188 C 19.878906 23.324219 19.738281 23.277344 19.570312 23.242188 C 19.414062 23.214844 19.230469 23.199219 19.007812 23.207031 C 18.074219 23.257812 17.898438 25.523438 16.441406 25.503906 C 16.183594 25.503906 15.964844 25.484375 15.78125 25.445312 "/>
</g>
</g>
</g>
<g clip-path="url(#clip85)" clip-rule="nonzero">
<g clip-path="url(#clip86)" clip-rule="nonzero">
<g clip-path="url(#clip87)" clip-rule="nonzero">
<path style=" stroke:none;fill-rule:nonzero;fill:rgb(94.509888%,85.879517%,98.429871%);fill-opacity:1;" d="M 23.855469 8.675781 C 23.738281 8.652344 23.707031 8.574219 23.832031 8.421875 C 24.054688 8.136719 24.707031 7.941406 25.816406 7.742188 C 26.929688 7.546875 27.460938 7.152344 27.882812 6.953125 C 28.34375 6.742188 28.664062 6.6875 28.855469 6.722656 C 29.257812 6.800781 29.074219 7.273438 28.320312 7.488281 C 27.214844 7.804688 26.417969 7.867188 25.738281 8.160156 C 25.234375 8.378906 24.1875 8.738281 23.855469 8.675781 "/>
</g>
</g>
</g>
<g clip-path="url(#clip88)" clip-rule="nonzero">
<g clip-path="url(#clip89)" clip-rule="nonzero">
<g clip-path="url(#clip90)" clip-rule="nonzero">
<path style=" stroke:none;fill-rule:nonzero;fill:rgb(94.509888%,85.879517%,98.429871%);fill-opacity:1;" d="M 13.390625 27.925781 C 13.109375 27.871094 12.996094 27.351562 13.167969 27.058594 C 13.375 26.707031 13.566406 26.195312 13.394531 25.539062 C 13.222656 24.878906 13.488281 23.878906 13.890625 23.820312 C 13.984375 23.808594 14.0625 23.808594 14.125 23.820312 C 14.660156 23.921875 14.195312 24.855469 14.085938 25.222656 C 13.964844 25.632812 13.820312 26.238281 13.734375 26.640625 C 13.644531 27.042969 13.988281 27.710938 13.578125 27.898438 C 13.507812 27.929688 13.445312 27.9375 13.390625 27.925781 "/>
</g>
</g>
</g>
<g clip-path="url(#clip91)" clip-rule="nonzero">
<g clip-path="url(#clip92)" clip-rule="nonzero">
<g clip-path="url(#clip93)" clip-rule="nonzero">
<path style=" stroke:none;fill-rule:nonzero;fill:rgb(94.509888%,85.879517%,98.429871%);fill-opacity:1;" d="M 0.320312 13.386719 C -0.371094 13.253906 -0.28125 12.578125 0.414062 12.460938 C 1.289062 12.3125 1.300781 12.289062 2.148438 11.804688 C 2.726562 11.476562 3.703125 11.277344 4.289062 11.386719 C 4.566406 11.441406 4.753906 11.5625 4.777344 11.769531 C 4.820312 12.164062 4.078125 12.050781 3.339844 12.097656 C 2.601562 12.144531 2.398438 13.078125 1.011719 13.359375 C 0.726562 13.417969 0.5 13.417969 0.320312 13.386719 "/>
</g>
</g>
</g>
</g>
</svg>
